<?xml version="1.0" ?><svg viewBox="0 0 88 88" xmlns="http://www.w3.org/2000/svg"><title/><g id="Image"><path d="M57.793,30.793a.9994.9994,0,0,1,1.414,0L73,44.5859V29a1,1,0,0,1,1-1h4V23H7V57.5859L26.293,38.293a.9994.9994,0,0,1,1.414,0l25,25a1,1,0,1,1-1.414,1.414L27,40.4141,8.4141,59H16a1,1,0,0,1,1,1v9H78V64H74a1,1,0,0,1-1-1V47.4141l-14.5-14.5L42.707,48.707a1,1,0,0,1-1.414-1.414ZM44.6567,38.6567a.9994.9994,0,0,1-1.414,0l-.7071-.707A1,1,0,1,1,43.95,36.5356l.707.7071A1,1,0,0,1,44.6567,38.6567ZM46,32a1,1,0,0,1,0,2H45a1,1,0,0,1,0-2Zm-3.4644-3.95.7071-.707a1,1,0,0,1,1.414,1.414l-.707.7071A1,1,0,1,1,42.5356,28.05ZM38,26a1,1,0,0,1,2,0v1a1,1,0,0,1-2,0Zm-4.6567,1.3433a.9994.9994,0,0,1,1.414,0l.7071.707A1,1,0,1,1,34.05,29.4644l-.707-.7071A.9994.9994,0,0,1,33.3433,27.3433ZM32,34a1,1,0,0,1,0-2h1a1,1,0,0,1,0,2Zm3.4644,3.95-.7071.707a1,1,0,0,1-1.414-1.414l.707-.7071A1,1,0,1,1,35.4644,37.95ZM40,40a1,1,0,0,1-2,0V39a1,1,0,0,1,2,0Zm-1-3a4,4,0,1,1,4-4A4.0045,4.0045,0,0,1,39,37Z"/><polygon points="15 67.586 15 61 8.414 61 15 67.586"/><circle cx="39" cy="33" r="2"/><path d="M80,70a1,1,0,0,1-1,1H16a1.0044,1.0044,0,0,1-.707-.293l-10-10A1.1052,1.1052,0,0,1,5,60V22a1,1,0,0,1,1-1H79a1,1,0,0,1,1,1v6h4V18a1,1,0,0,0-1-1H2a1,1,0,0,0-1,1V74a1,1,0,0,0,1,1H83a1,1,0,0,0,1-1V64H80Z"/><path d="M86,1H2A1,1,0,0,0,1,2V4H87V2A1,1,0,0,0,86,1Z"/><path d="M1,14a1,1,0,0,0,1,1H8V11a1,1,0,0,1,2,0v4h5V11a1,1,0,0,1,2,0v4h5V11a1,1,0,0,1,2,0v4h5V11a1,1,0,0,1,2,0v4h5V11a1,1,0,0,1,2,0v4h5V11a1,1,0,0,1,2,0v4h5V11a1,1,0,0,1,2,0v4h5V11a1,1,0,0,1,2,0v4h5V11a1,1,0,0,1,2,0v4h5V11a1,1,0,0,1,2,0v4h5V11a1,1,0,0,1,2,0v4h6a1,1,0,0,0,1-1V6H1Z"/><rect height="4" width="49" x="20" y="77"/><rect height="4" width="49" x="20" y="83"/><rect height="10" width="2" x="16" y="77"/><path d="M80.5547,81.168,75,77.4648v9.07l5.5547-3.7032a1,1,0,0,0,0-1.664Z"/><path d="M7,82a5.0059,5.0059,0,0,0,5,5h2V77H12A5.0059,5.0059,0,0,0,7,82Z"/><rect height="10" width="2" x="71" y="77"/><path d="M86,30H75V62H86a1,1,0,0,0,1-1V31A1,1,0,0,0,86,30Z"/></g></svg>