<?xml version="1.0" encoding="UTF-8"?>
<svg version="1.1" xmlns="http://www.w3.org/2000/svg" width="512" height="512">
<path d="M0 0 C4.87550838 3.97592711 8.42751424 9.21925584 9.71484375 15.3984375 C10.66152127 24.86521269 6.53383938 32.48151612 1.71484375 40.3984375 C2.31941406 40.64722656 2.92398437 40.89601562 3.546875 41.15234375 C7.49219079 43.42001175 9.0919524 47.26799599 10.71484375 51.3984375 C11.56868599 55.933701 11.81909735 60.40570432 11.578125 65.01171875 C11.73715415 67.78791342 12.33873421 68.72549623 14.08984375 70.8359375 C17.97644212 75.55213143 18.9633903 80.52081382 18.97769928 86.5380497 C18.98538157 87.75481726 18.99306386 88.97158483 19.00097895 90.22522414 C18.99941867 91.56702995 18.99766114 92.90883554 18.99572754 94.25064087 C19.00089816 95.68270066 19.00692541 97.11475757 19.01373434 98.54681051 C19.02984206 102.47784937 19.03345167 106.40881513 19.03492928 110.33988309 C19.03863605 114.58137542 19.05373361 118.82283006 19.06719971 123.06430054 C19.09434471 132.33717726 19.10641248 141.61003665 19.11522102 150.88294649 C19.12074969 156.67522707 19.12922511 162.46750099 19.13822937 168.25977707 C19.16261217 184.30323937 19.18321111 200.34669634 19.18997955 216.39017677 C19.19063825 217.92992564 19.19063825 217.92992564 19.19131026 219.50078055 C19.19174681 220.52970833 19.19218337 221.55863612 19.19263315 222.61874354 C19.19352008 224.70367408 19.1944132 226.78860462 19.1953125 228.87353516 C19.19597679 230.42482497 19.19597679 230.42482497 19.1966545 232.00745396 C19.20454838 248.76028275 19.23945111 265.51293743 19.28603154 282.26569898 C19.33349096 299.47378265 19.35838473 316.68177901 19.36071539 333.88992918 C19.36254713 343.54834501 19.37400703 353.20653399 19.41035461 362.86488724 C19.44120055 371.09020402 19.45137196 379.31522385 19.43487841 387.5405875 C19.42708048 391.73464153 19.42884837 395.92809798 19.4569931 400.12207794 C19.48256519 403.96799335 19.47999721 407.81286511 19.45581168 411.65878002 C19.45007878 413.69562549 19.47369999 415.73248978 19.4986558 417.76919043 C19.39913268 427.07545612 17.4983611 435.65931137 10.66107416 442.43314803 C4.55263705 447.38736327 -1.6813031 449.77094864 -9.51609325 449.78434086 C-10.5611657 449.79222953 -10.5611657 449.79222953 -11.62735072 449.80027756 C-13.95553966 449.81420298 -16.28316202 449.80687599 -18.6113739 449.79957581 C-20.30003577 449.80518255 -21.98869375 449.81208562 -23.67734557 449.82017177 C-28.31305278 449.83851574 -32.9485976 449.83812622 -37.58433282 449.83458865 C-42.5858748 449.83397636 -47.58736473 449.85053548 -52.58888245 449.86476135 C-62.38645807 449.88967771 -72.18397955 449.89792575 -81.98158421 449.89959849 C-89.94661647 449.90102423 -97.91163088 449.90718977 -105.87665749 449.91670036 C-128.4629082 449.94312011 -151.04911616 449.95695861 -173.63538244 449.95470894 C-175.46171896 449.95452914 -175.46171896 449.95452914 -177.32495117 449.9543457 C-178.54399699 449.95422306 -179.76304281 449.95410042 -181.01902942 449.95397406 C-200.77225621 449.95275489 -220.52531138 449.98145792 -240.27848854 450.0237608 C-260.56476295 450.06686222 -280.85095368 450.08757077 -301.13727504 450.08497947 C-312.52493175 450.08398385 -323.91240858 450.09221197 -335.30002403 450.12451363 C-344.99654471 450.15184221 -354.69280397 450.15834362 -364.3893465 450.13798536 C-369.33474054 450.1281959 -374.27963318 450.12799576 -379.2249794 450.1540451 C-383.7573203 450.17767293 -388.28876318 450.17331513 -392.82108245 450.14719271 C-394.45566944 450.14259464 -396.0903238 450.14801062 -397.72483131 450.16477294 C-407.65290983 450.25979852 -415.89960118 449.35039635 -424.28515625 443.3984375 C-430.55408625 437.05228046 -433.49648274 430.94591066 -433.54331887 421.99672997 C-433.53458034 420.76811472 -433.53458034 420.76811472 -433.52566528 419.51467896 C-433.52737413 418.63158865 -433.52908298 417.74849834 -433.53084362 416.83864772 C-433.53413217 413.88600104 -433.52314522 410.9335827 -433.51220703 407.98095703 C-433.51164278 405.86187241 -433.51195975 403.7427874 -433.51309204 401.623703 C-433.51366601 395.87420741 -433.50190443 390.12479521 -433.48794413 384.375319 C-433.47544423 378.36552255 -433.47426685 372.3557242 -433.47189331 366.34591675 C-433.46567637 354.96694783 -433.44926263 343.58801732 -433.42919433 332.20906532 C-433.40684201 319.25391805 -433.39584357 306.29876894 -433.38580346 293.34360719 C-433.36489662 266.69519599 -433.32971645 240.0468189 -433.28515625 213.3984375 C-432.29515625 213.0684375 -431.30515625 212.7384375 -430.28515625 212.3984375 C-430.28515625 204.8084375 -430.28515625 197.2184375 -430.28515625 189.3984375 C-431.27515625 189.3984375 -432.26515625 189.3984375 -433.28515625 189.3984375 C-433.37879996 175.34210536 -433.44896686 161.28582194 -433.49240494 147.22924137 C-433.51325585 140.70178958 -433.54152859 134.17454776 -433.58691406 127.6472168 C-433.63045979 121.34484742 -433.65431213 115.04267967 -433.66466522 108.74017143 C-433.67204084 106.33886988 -433.68644366 103.93757903 -433.70807648 101.5363636 C-433.73722548 98.16601059 -433.74110731 94.79648471 -433.73925781 91.42602539 C-433.75363892 90.43915237 -433.76802002 89.45227936 -433.78283691 88.4355011 C-433.7318974 79.8244839 -431.19430922 72.38450496 -425.15456975 66.07580435 C-417.34505115 59.06856509 -408.76242028 58.67602569 -398.71932983 58.75920105 C-397.25875884 58.75288047 -395.79819598 58.74437216 -394.33764899 58.73388082 C-390.34670038 58.71148028 -386.35633352 58.71990055 -382.36536765 58.7335664 C-378.05325112 58.74285817 -373.74125202 58.72326524 -369.4291687 58.70724487 C-361.96569853 58.68343953 -354.50239347 58.67778741 -347.03889084 58.68459129 C-336.24806041 58.694402 -325.45741271 58.676639 -314.66661187 58.65222398 C-297.15778276 58.61335422 -279.64900601 58.59667261 -262.14013672 58.59399414 C-245.13555212 58.59134518 -228.13102868 58.57821561 -211.12646484 58.55102539 C-209.55327203 58.54851532 -209.55327203 58.54851532 -207.94829755 58.54595455 C-202.68661052 58.53749486 -197.42492385 58.52882948 -192.16323733 58.52006185 C-148.53722099 58.44763309 -104.91122811 58.41123454 -61.28515625 58.3984375 C-59.36749598 54.97799437 -57.45030471 51.55728882 -55.53352261 48.13635349 C-54.56572789 46.40932282 -53.59757624 44.68249218 -52.62941742 42.95566559 C-49.42758872 37.2407551 -46.23890055 31.52010467 -43.1015625 25.76953125 C-42.26915039 24.25262695 -42.26915039 24.25262695 -41.41992188 22.70507812 C-40.33743719 20.72971166 -39.26233215 18.75028914 -38.19335938 16.76757812 C-29.21044926 0.48804208 -29.21044926 0.48804208 -21.4296875 -2.19921875 C-14.23152903 -3.54969293 -6.45086491 -3.8459702 0 0 Z M-2.28515625 46.3984375 C-3.45443168 48.37606405 -4.62051198 50.35558008 -5.78515625 52.3359375 C-6.43484375 53.43808594 -7.08453125 54.54023437 -7.75390625 55.67578125 C-9.36685656 58.0230868 -9.36685656 58.0230868 -9.28515625 59.3984375 C-4.66515625 60.0584375 -0.04515625 60.7184375 4.71484375 61.3984375 C4.3105804 55.53661887 3.51197515 52.1160856 -0.28515625 47.3984375 C-0.94515625 47.0684375 -1.60515625 46.7384375 -2.28515625 46.3984375 Z " fill="#3C332C" transform="translate(463.28515625,32.6015625)"/>
<path d="M0 0 C3.62493334 -0.05787784 7.24974857 -0.0935542 10.875 -0.125 C11.90753906 -0.14175781 12.94007813 -0.15851563 14.00390625 -0.17578125 C14.99003906 -0.18222656 15.97617187 -0.18867188 16.9921875 -0.1953125 C18.35899658 -0.21102295 18.35899658 -0.21102295 19.75341797 -0.22705078 C22 0 22 0 24 2 C27.11709939 2.33329044 27.11709939 2.33329044 30.83642578 2.31884766 C31.89024948 2.33391609 31.89024948 2.33391609 32.96536255 2.34928894 C35.29200406 2.38022731 37.61852996 2.39718527 39.9453125 2.4140625 C41.55672203 2.43276562 43.16812168 2.45233839 44.7795105 2.4727478 C49.0242125 2.52416562 53.2689463 2.56373948 57.51379395 2.60089111 C61.843912 2.64087047 66.17389673 2.6919904 70.50390625 2.7421875 C79.00251323 2.83906096 87.50118597 2.92342895 96 3 C94.73332471 5.5483074 93.46502706 8.09578576 92.19580078 10.64282227 C91.84048782 11.35806313 91.48517487 12.07330399 91.11909485 12.81021881 C88.21814661 18.62679177 85.11878005 24.30475163 81.875 29.9375 C80.74557993 31.91767577 79.61669253 33.89815544 78.48828125 35.87890625 C77.91416504 36.88453613 77.34004883 37.89016602 76.74853516 38.92626953 C73.82735542 44.06137883 70.94522038 49.2182322 68.0625 54.375 C66.8919393 56.46745475 65.72136632 58.55990263 64.55078125 60.65234375 C63.9676416 61.69503418 63.38450195 62.73772461 62.78369141 63.81201172 C60.97569692 67.04343684 59.16587824 70.27383358 57.35546875 73.50390625 C51.83628243 83.35167647 46.32372283 93.202807 40.84912109 103.07543945 C34.93330767 113.73584736 28.96208107 124.36542539 23 135 C22.01 135 21.02 135 20 135 C19.6596875 134.38930664 19.319375 133.77861328 18.96875 133.14941406 C9.99459492 117.05679688 0.94624229 101.00875782 -8.25097656 85.04248047 C-9.78843995 82.36801526 -11.31344156 79.6869022 -12.8359375 77.00390625 C-13.61874171 75.64783086 -14.40248543 74.29229704 -15.1875 72.9375 C-15.82042969 71.83277344 -16.45335937 70.72804688 -17.10546875 69.58984375 C-19.16955157 66.76822125 -20.85647341 65.48402531 -24 64 C-27.74121451 63.45440622 -29.3449554 63.55064635 -32.48486328 65.70458984 C-35.07123865 68.06501512 -36.53508009 70.12275159 -38.2421875 73.1640625 C-38.82548828 74.19015625 -39.40878906 75.21625 -40.00976562 76.2734375 C-40.62529297 77.37945312 -41.24082031 78.48546875 -41.875 79.625 C-42.53471848 80.79228271 -43.19554672 81.95893882 -43.85742188 83.125 C-45.23054315 85.5461013 -46.5988675 87.96981903 -47.96386719 90.39550781 C-51.09809035 95.95591394 -54.30263761 101.47575028 -57.5 107 C-58.74384302 109.15474393 -59.98733105 111.30969282 -61.23046875 113.46484375 C-61.84841309 114.53589355 -62.46635742 115.60694336 -63.10302734 116.71044922 C-65.04519939 120.07838052 -66.98566627 123.4472896 -68.92578125 126.81640625 C-75.89322882 138.91186046 -82.88974723 150.98785531 -90 163 C-94.1635037 161.61216543 -95.06124463 158.7395755 -97 155.0625 C-99.67587229 149.86688827 -99.67587229 149.86688827 -104 146 C-106.86976283 145.16516674 -106.86976283 145.16516674 -110 146 C-115.78838468 151.77178717 -119.47987439 159.81659394 -123.4375 166.875 C-124.14127277 168.12016172 -124.84571262 169.3649466 -125.55078125 170.609375 C-126.63595674 172.52471573 -127.72080145 174.44023232 -128.80368042 176.35687256 C-132.32879146 182.59460887 -135.91068461 188.7990149 -139.5 195 C-144.6930443 203.98504069 -149.85637605 212.98661915 -155 222 C-160.38045578 231.4255344 -165.77230279 240.84437557 -171.1875 250.25 C-171.79916016 251.31476563 -172.41082031 252.37953125 -173.04101562 253.4765625 C-175.93279919 258.49285595 -178.85122358 263.44489725 -182.09692383 268.24194336 C-183.82123085 271.59872488 -183.50101942 274.30498177 -183 278 C-181.8576973 279.8023981 -181.8576973 279.8023981 -180 281 C-177.61521201 281.44914216 -177.61521201 281.44914216 -174.8943491 281.37473011 C-173.83189049 281.38193665 -172.76943189 281.3891432 -171.67477757 281.39656812 C-170.50339629 281.38919383 -169.33201501 281.38181955 -168.12513733 281.3742218 C-166.26342594 281.38018341 -166.26342594 281.38018341 -164.36410421 281.38626546 C-160.91234836 281.3942443 -157.46108638 281.38870533 -154.00937045 281.37751496 C-150.2894639 281.3686924 -146.56959182 281.37711085 -142.84968567 281.38337708 C-135.55949372 281.39287879 -128.26940056 281.3862531 -120.97921593 281.37411413 C-112.49408738 281.36051051 -104.00898252 281.36213057 -95.52384584 281.36424746 C-80.38607548 281.36743941 -65.24835213 281.35575828 -50.1105957 281.33618164 C-35.41364103 281.31717999 -20.71674147 281.31009296 -6.01977539 281.31567383 C9.97337138 281.32172891 25.9664939 281.32155927 41.95963866 281.310188 C43.66441794 281.30898067 45.36919723 281.30777469 47.07397652 281.30657005 C47.91281823 281.30596651 48.75165994 281.30536298 49.61592109 281.30474115 C55.53368852 281.30085827 61.45144693 281.30125707 67.36921501 281.3031559 C74.57954753 281.30527603 81.78983172 281.3000677 89.00015061 281.28554235 C92.68059777 281.27828859 96.36097448 281.27422965 100.04142761 281.27878571 C104.02705049 281.28359958 108.01254474 281.27296576 111.99815369 281.26069641 C113.75187952 281.2663654 113.75187952 281.2663654 115.54103416 281.27214891 C116.60610051 281.26631671 117.67116687 281.26048452 118.76850796 281.25447559 C120.14901007 281.25317543 120.14901007 281.25317543 121.55740112 281.251849 C124.17546357 280.98190848 125.79012818 280.41222331 128 279 C129.53466316 275.93067368 129.2223681 273.39476072 129 270 C127.83440375 266.93343012 127.83440375 266.93343012 126.0703125 264.0078125 C125.44511719 262.89978271 124.81992187 261.79175293 124.17578125 260.65014648 C123.4925862 259.4748658 122.80898344 258.29982203 122.125 257.125 C121.42718745 255.90180569 120.73058187 254.67792207 120.03515625 253.45336914 C118.04337962 249.95713025 116.02495136 246.47713076 114 243 C113.28215332 241.7637085 113.28215332 241.7637085 112.54980469 240.50244141 C110.59418666 237.14261295 108.61957821 233.79461356 106.6328125 230.453125 C103.33273021 224.89211337 100.10523285 219.28928046 96.875 213.6875 C95.92717651 212.04394531 95.92717651 212.04394531 94.96020508 210.3671875 C91.57252398 204.48575544 88.19585905 198.59822181 84.83203125 192.703125 C84.48756454 192.09971786 84.14309784 191.49631073 83.78819275 190.87461853 C82.07801391 187.87802265 80.37054485 184.87993429 78.66772461 181.87915039 C75.75786699 176.76420867 72.83007673 171.67307015 69.734375 166.66796875 C69.25524658 165.88687744 68.77611816 165.10578613 68.2824707 164.30102539 C67.42076164 162.90686803 66.54543017 161.52098443 65.65307617 160.14624023 C63.87820391 157.26741359 62.95738498 155.51142323 63.2421875 152.09350586 C63.9981904 149.00738707 64.95591198 146.88691287 66.59765625 144.18359375 C67.14365479 143.26956787 67.68965332 142.35554199 68.25219727 141.41381836 C68.84959717 140.4316333 69.44699707 139.44944824 70.0625 138.4375 C75.57336043 129.19317634 80.89413695 119.87601166 86.0625 110.4375 C87.41464947 107.97226339 88.76764495 105.50749222 90.12109375 103.04296875 C90.45028305 102.44336838 90.77947235 101.84376801 91.11863708 101.22599792 C94.24334212 95.54222328 97.42529646 89.89180208 100.625 84.25 C101.40822632 82.86820557 101.40822632 82.86820557 102.20727539 81.45849609 C103.26347255 79.59519412 104.31970639 77.73191293 105.37597656 75.86865234 C113.5308438 61.46400861 121.57692358 47.0064323 129.43066406 32.43530273 C133.33753425 25.19449724 137.32960727 18.00687478 141.390625 10.8515625 C142.29315692 9.25241614 143.17880173 7.64239653 144 6 C148.90050858 7.81500318 151.561618 11.84242699 154.375 16.0625 C155.48014008 19.48843425 154.31660488 22.33684113 152.80761719 25.49755859 C152.0597998 26.80974365 152.0597998 26.80974365 151.296875 28.1484375 C150.73452148 29.14343262 150.17216797 30.13842773 149.59277344 31.16357422 C148.9846582 32.22334473 148.37654297 33.28311523 147.75 34.375 C147.12899414 35.4695752 146.50798828 36.56415039 145.86816406 37.69189453 C144.56974862 39.97971962 143.26859363 42.26599186 141.96484375 44.55078125 C140.04931972 47.91342086 138.14709775 51.28318614 136.25 54.65625 C131.3227917 63.4116861 131.3227917 63.4116861 129.546875 66.5546875 C129.10182617 67.34343262 128.65677734 68.13217773 128.19824219 68.94482422 C127.19391587 70.66740346 126.10606031 72.34090953 125 74 C124.61500109 75.65549531 124.27206865 77.3222433 124 79 C125.65 79 127.3 79 129 79 C129.20753906 78.23042969 129.41507812 77.46085937 129.62890625 76.66796875 C131.53587875 71.56640983 134.22272911 67.02349492 136.9375 62.3125 C137.51145508 61.30823975 138.08541016 60.30397949 138.67675781 59.26928711 C139.8618845 57.19825373 141.04956391 55.1286791 142.23974609 53.06054688 C143.92353397 50.13295119 145.59762245 47.20001638 147.26953125 44.265625 C148.2624816 42.53094122 149.25594441 40.79655066 150.25 39.0625 C150.715271 38.24628174 151.18054199 37.43006348 151.65991211 36.58911133 C152.74453352 34.70919643 153.86782627 32.85166581 155 31 C155.33 31 155.66 31 156 31 C156.06869467 63.71446694 156.12154328 96.42891514 156.15319599 129.14343777 C156.15694802 133.00732777 156.160831 136.87121763 156.16479492 140.73510742 C156.16558185 141.50432524 156.16636878 142.27354306 156.16717956 143.0660705 C156.18022682 155.51454248 156.20387691 167.96297281 156.23145839 180.4114201 C156.25953153 193.18851117 156.2761803 205.96558046 156.28226548 218.74270111 C156.28637797 226.62431057 156.29935818 234.50580232 156.3237494 242.38737554 C156.34150986 248.43509377 156.3433608 254.48271114 156.33932304 260.53045845 C156.34014797 263.00841114 156.34610991 265.48636832 156.35761642 267.96429443 C156.37256946 271.35070329 156.36894292 274.73661086 156.36076355 278.12303162 C156.36950207 279.1006807 156.3782406 280.07832979 156.38724393 281.08560461 C156.33085619 289.73883453 154.60248751 296.68729368 148.98828125 303.39453125 C141.5231072 309.42240263 134.77099056 309.57522141 125.49452209 309.5146637 C124.12459057 309.5199942 122.7546649 309.52706278 121.38475031 309.53571075 C117.63475156 309.55429856 113.88514878 309.54804664 110.13513386 309.53755772 C106.08526832 309.53055467 102.03548322 309.54657201 97.98564148 309.55955505 C90.05743766 309.58118184 82.12937744 309.58107156 74.20115382 309.57292951 C67.75642262 309.56662613 61.31173325 309.56776965 54.86700249 309.57420158 C53.94926498 309.57510324 53.03152747 309.57600489 52.08597974 309.57693387 C50.22151958 309.5787851 48.35705944 309.58064766 46.4925993 309.58252143 C29.01413412 309.59909531 11.53574968 309.59038421 -5.94271065 309.57353585 C-21.92791261 309.55883946 -37.9129266 309.57346716 -53.89810436 309.60230602 C-70.3186318 309.63170929 -86.73907251 309.64266957 -103.15962511 309.63312382 C-105.01747897 309.63210128 -106.87533284 309.63110667 -108.73318672 309.6301403 C-109.64724502 309.62966391 -110.56130332 309.62918752 -111.50306035 309.6286967 C-117.93804212 309.62653379 -124.37294166 309.6363301 -130.8079052 309.65091133 C-138.65300776 309.66844012 -146.4978707 309.6683095 -154.34296387 309.64555968 C-158.3441827 309.63442235 -162.34497944 309.63124309 -166.34617996 309.64986038 C-170.01229948 309.66669882 -173.67762987 309.66026977 -177.34369857 309.63564359 C-179.29117249 309.62847037 -181.23868965 309.64576392 -183.18609089 309.66405493 C-191.75816156 309.57300318 -197.9164433 307.97259049 -204.15625 301.90234375 C-204.5996875 301.25394531 -205.043125 300.60554688 -205.5 299.9375 C-205.9640625 299.28652344 -206.428125 298.63554687 -206.90625 297.96484375 C-208.84652215 294.47928342 -209.12543607 291.22582505 -209.13142776 287.28223038 C-209.13526891 286.33171618 -209.13911005 285.38120198 -209.1430676 284.40188432 C-209.14220112 283.3606547 -209.14133463 282.31942509 -209.14044189 281.24664307 C-209.14489858 279.58389394 -209.14489858 279.58389394 -209.1494453 277.88755393 C-209.15814191 274.1597289 -209.15964136 270.43193594 -209.16113281 266.70410156 C-209.16576029 264.03672127 -209.17076422 261.36934391 -209.17617798 258.70196533 C-209.18975613 251.44569979 -209.19578522 244.18943978 -209.20018864 236.93316364 C-209.20295196 232.40160569 -209.20718948 227.87004986 -209.21169281 223.33849335 C-209.22388484 210.78992471 -209.23418426 198.24135778 -209.2375679 185.69278336 C-209.23778747 184.88974608 -209.23800703 184.0867088 -209.23823325 183.25933705 C-209.23845153 182.45438727 -209.23866981 181.6494375 -209.2388947 180.8200953 C-209.23933817 179.1889828 -209.23978473 177.55787031 -209.24023438 175.92675781 C-209.2404558 175.11767108 -209.24067723 174.30858436 -209.24090537 173.47497985 C-209.24485293 160.36649732 -209.26230593 147.2580704 -209.2855939 134.14960936 C-209.30931476 120.68873416 -209.32177009 107.22788686 -209.32293582 93.76699042 C-209.32385217 86.21025295 -209.32959443 78.65358793 -209.34775543 71.09687042 C-209.36316634 64.66181199 -209.36827106 58.2268484 -209.36001733 51.79177502 C-209.35611428 48.50974224 -209.35866016 45.22794007 -209.37107468 41.94592285 C-209.38375711 38.38421456 -209.37793695 34.82299627 -209.36749268 31.2612915 C-209.37554908 30.22898478 -209.38360548 29.19667805 -209.39190602 28.1330893 C-209.34477571 21.26044608 -208.69733323 15.23905706 -204.1328125 9.7578125 C-203.47023438 9.21898437 -202.80765625 8.68015625 -202.125 8.125 C-201.46757812 7.57070312 -200.81015625 7.01640625 -200.1328125 6.4453125 C-195.27572628 3.15388045 -190.86173053 2.70633426 -185.10966492 2.7215271 C-184.32135074 2.7157347 -183.53303656 2.7099423 -182.72083408 2.70397437 C-180.08297211 2.68698772 -177.44528526 2.68409902 -174.80737305 2.68115234 C-172.91502962 2.67185325 -171.02269029 2.6616846 -169.13035583 2.65071106 C-163.99446078 2.62339494 -158.85859319 2.60825683 -153.72264457 2.59528303 C-148.3547626 2.57965959 -142.98693676 2.55286685 -137.61909485 2.5272522 C-127.45489984 2.48045051 -117.29069429 2.4437131 -107.12644655 2.41057932 C-95.55456928 2.37236778 -83.98274837 2.32295507 -72.41091859 2.27259517 C-48.60732082 2.16925463 -24.80368685 2.08000109 -1 2 C-0.67 1.34 -0.34 0.68 0 0 Z " fill="#FBE7CA" transform="translate(283,131)"/>
<path d="M0 0 C1.21521011 -0.0039821 2.43042022 -0.00796419 3.68245488 -0.01206696 C5.02761111 -0.00636129 6.37276656 -0.0004701 7.71792126 0.00558662 C9.14941823 0.00471443 10.5809149 0.00296319 12.01240987 0.00040829 C15.94609852 -0.00406651 19.87967839 0.00394027 23.81335318 0.01396441 C28.05529536 0.02259469 32.29723132 0.01967905 36.5391798 0.01815987 C43.88866475 0.01711075 51.2381142 0.02339017 58.58759022 0.03463554 C69.21371735 0.05088392 79.83982732 0.05609787 90.46596553 0.05861153 C107.70581886 0.06298967 124.94565327 0.07630201 142.18549633 0.09521675 C158.93321672 0.11357246 175.68093197 0.12773048 192.42866039 0.13623238 C193.46084725 0.13675782 194.4930341 0.13728327 195.55649934 0.13782464 C200.73463479 0.1404347 205.91277028 0.14296212 211.09090579 0.14544845 C254.05433384 0.16618466 297.01774126 0.20141344 339.98115063 0.24609566 C338.72686581 3.43183049 337.4134194 6.43824884 335.73896313 9.42578316 C335.31228344 10.19019722 334.88560375 10.95461128 334.44599438 11.74218941 C333.78277172 12.919748 333.78277172 12.919748 333.10615063 14.12109566 C332.67173656 14.89840034 332.2373225 15.67570503 331.78974438 16.47656441 C330.52522838 18.73598488 329.25668867 20.99287746 327.98115063 23.24609566 C327.17858837 25.02589317 327.17858837 25.02589317 326.35981274 26.84164619 C325.27869892 28.71487045 325.27869892 28.71487045 323.98115063 30.24609566 C321.14987192 30.97194826 319.41471176 31.16885592 316.58222485 31.08496284 C315.47426052 31.09389816 315.47426052 31.09389816 314.34391308 31.10301399 C311.9067445 31.1151094 309.47273425 31.07865571 307.03583813 31.04297066 C305.34240039 31.04473794 303.64896299 31.05001538 301.95554638 31.05865669 C297.5007257 31.07391732 293.04703793 31.05005121 288.59235668 31.0154438 C281.45525694 30.96497624 274.31820372 30.96656683 267.18098354 30.98185158 C264.68451999 30.98048363 262.18887319 30.95810004 259.69254589 30.93329048 C258.16879431 30.92984788 256.64504126 30.92698795 255.12128735 30.92480659 C254.42410595 30.91237419 253.72692455 30.89994179 253.00861645 30.88713264 C250.87960154 30.86020935 250.87960154 30.86020935 247.98115063 31.24609566 C247.32115063 32.23609566 246.66115063 33.22609566 245.98115063 34.24609566 C243.7345686 34.49487495 243.7345686 34.49487495 240.97333813 34.32031441 C239.98720531 34.26552925 239.0010725 34.21074409 237.98505688 34.15429878 C236.43624828 34.04505074 236.43624828 34.04505074 234.85615063 33.93359566 C233.81587719 33.87236519 232.77560375 33.81113472 231.70380688 33.74804878 C229.12842062 33.5944707 226.55476831 33.42658395 223.98115063 33.24609566 C223.65115063 32.58609566 223.32115063 31.92609566 222.98115063 31.24609566 C197.98984178 31.1292112 172.99857399 31.04108229 148.0070467 30.9870348 C136.40261851 30.96127079 124.79836032 30.92615452 113.19404125 30.86889839 C103.07782496 30.81900848 92.96173182 30.78679154 82.84539592 30.77565318 C77.49053028 30.76914395 72.13601688 30.75388263 66.78126431 30.71744537 C61.73661425 30.68339779 56.69246008 30.67306045 51.64770603 30.68055725 C49.8006632 30.67918662 47.95360304 30.66930656 46.10665989 30.65006828 C35.33385717 30.54340108 26.23339705 30.473601 17.85752583 38.20676899 C10.56215765 45.65477718 9.53545489 53.54234828 9.59347057 63.54294014 C9.58808504 64.66161323 9.5826995 65.78028631 9.57715076 66.93285859 C9.5628739 70.67133554 9.5699745 74.40945828 9.57709789 78.14795113 C9.57139418 80.83239037 9.56453025 83.51680442 9.55630016 86.20123482 C9.53913096 92.73006776 9.53826828 99.25880438 9.54351307 105.78765403 C9.54755971 111.09631202 9.54610534 116.40494161 9.54076481 121.71359825 C9.53964218 122.848315 9.53964218 122.848315 9.53849686 124.00595532 C9.53696533 125.54290374 9.53542699 127.07985215 9.5338819 128.61680056 C9.52016351 143.02027996 9.52558976 157.42370499 9.53706711 171.82718314 C9.54699756 184.99228737 9.53406093 198.15725101 9.51013292 211.32233356 C9.48572574 224.85341822 9.47613809 238.38443745 9.48278564 251.91554368 C9.48627443 259.50694881 9.48406839 267.09824587 9.46653461 274.68963432 C9.45179231 281.15238887 9.45120348 287.61495924 9.46860553 294.07771026 C9.47710165 297.37222182 9.47712018 300.66633802 9.46395397 303.96084404 C9.45074661 307.53929954 9.46229096 311.11686632 9.47994518 314.69528389 C9.47034018 315.72681835 9.46073517 316.75835281 9.4508391 317.82114589 C9.53029683 325.66975117 11.08293439 332.65145038 16.09443188 338.86718941 C16.82017406 339.46660347 17.54591625 340.06601753 18.29365063 340.68359566 C19.01165844 341.30105659 19.72966625 341.91851753 20.46943188 342.55468941 C28.04006713 347.65279993 34.44181431 347.67621741 43.40433788 347.63377571 C44.77752798 347.63795147 46.15071463 347.64343031 47.52389491 347.65009552 C51.28749708 347.66453739 55.05088003 347.6603094 58.81449413 347.65292871 C62.87731508 347.64819618 66.94008866 347.66070767 71.0028944 347.67094612 C78.95862138 347.68813807 86.91426939 347.68897327 94.87001012 347.68373322 C101.33716586 347.67969085 107.80429828 347.68113587 114.2714529 347.68648148 C115.19210126 347.6872299 116.11274962 347.68797832 117.06129641 347.68874942 C118.9316351 347.69028091 120.80197378 347.69181926 122.67231245 347.69336439 C140.21037152 347.70709098 157.74838597 347.70165073 175.28644402 347.69017918 C191.3266487 347.68024766 207.36673801 347.69318577 223.40692489 347.71711337 C239.88165276 347.74150379 256.35632689 347.75111231 272.83107245 347.74446064 C282.07851397 347.74096816 291.32586678 347.74320234 300.57329464 347.76071167 C308.44583817 347.77543297 316.31823052 347.7760701 324.19077109 347.75864076 C328.20610775 347.75012757 332.22117434 347.74798881 336.23649693 347.76329231 C339.91550613 347.77714023 343.59401391 347.77237539 347.27299412 347.75305308 C349.22747251 347.74751782 351.18197644 347.76156384 353.1364063 347.77640718 C363.13518665 347.69278996 370.80831929 345.40008965 378.11366928 338.3695392 C384.01415872 331.66031224 384.55149581 323.39219879 384.4059248 314.8476429 C384.40354813 313.741928 384.40117146 312.6362131 384.39872277 311.49699169 C384.38629823 307.81330826 384.34542964 304.13049613 384.3048811 300.44702339 C384.29068614 297.7964789 384.2781784 295.14598184 384.26806164 292.49542427 C384.24369662 286.79498343 384.20625444 281.09475333 384.16135311 275.3944397 C384.09156591 266.35968342 384.06608095 257.32504284 384.04783154 248.29005623 C384.04106151 245.19041882 384.03405839 242.09078195 384.02702045 238.99114513 C384.02527973 238.21654946 384.023539 237.44195378 384.02174553 236.6438855 C384.0014872 227.8381702 383.97348213 219.03248724 383.94111156 210.22680855 C383.93816783 209.42258349 383.93522409 208.61835843 383.93219115 207.78976292 C383.88335421 194.79315292 383.79665866 181.79700881 383.69935893 168.80068409 C383.60042074 155.41294001 383.55604923 142.02571046 383.55756009 128.63760144 C383.5565475 120.40580295 383.51261728 112.17659707 383.4108295 103.94541705 C383.34465232 98.28466431 383.33109733 92.62522003 383.35635392 86.96414512 C383.36929335 83.71261691 383.35316966 80.46616852 383.28873158 77.21513748 C382.94063069 58.69126349 387.04700523 46.52485501 397.1943047 31.03753197 C400.07197131 26.54199995 402.60890668 21.86484904 405.16865063 17.18359566 C406.67976898 14.42678894 408.22058059 11.86046425 409.98115063 9.24609566 C410.97115063 9.24609566 411.96115063 9.24609566 412.98115063 9.24609566 C417.54938981 16.50377072 417.54655391 22.77844899 417.4890852 31.21386909 C417.49369841 32.63400982 417.50005415 34.05414576 417.50799417 35.47427177 C417.52465312 39.36302434 417.51645697 43.25138296 417.5040493 47.14013672 C417.49498698 51.33926084 417.50897439 55.53831793 417.51996899 59.73742867 C417.53774619 67.95807466 417.53391779 76.17857449 417.52231842 84.39922619 C417.51328123 91.08090158 417.51206134 97.76253603 417.51641369 104.44421577 C417.51702662 105.39554634 417.51763955 106.3468769 417.51827106 107.32703567 C417.51954997 109.25970556 417.52084683 111.19237543 417.52216142 113.1250453 C417.53356488 131.24347348 417.52045719 149.36182068 417.49895996 167.48023558 C417.48108919 183.02332324 417.48419337 198.5662914 417.502635 214.10937691 C417.52404584 232.16340922 417.53246627 250.21737057 417.52018595 268.2714138 C417.51891176 270.19693437 417.51765428 272.12245495 417.51641369 274.04797554 C417.51548804 275.46902804 417.51548804 275.46902804 417.51454368 276.91878867 C417.51109143 283.59166973 417.51691645 290.26450575 417.5263319 296.93737984 C417.53755562 305.07051005 417.53450398 313.20348585 417.51320893 321.3365984 C417.50270352 325.48547742 417.4985679 329.63409909 417.51180553 333.78297615 C417.52374599 337.58279063 417.5171401 341.38210982 417.49589533 345.18187952 C417.48932776 347.20365042 417.5023506 349.22545583 417.51612425 351.24719048 C417.44504467 359.4875709 416.60079087 365.11553204 411.01630688 371.48828316 C410.36533031 372.02711128 409.71435375 372.56593941 409.04365063 373.12109566 C408.39525219 373.67539253 407.74685375 374.22968941 407.07880688 374.80078316 C402.48910295 377.96314899 398.56932128 378.49702499 393.04760551 378.50336456 C392.01432727 378.50862367 392.01432727 378.50862367 390.96017471 378.51398903 C388.64682984 378.52330925 386.33373636 378.51837817 384.02038097 378.51352119 C382.3470962 378.51725714 380.67381318 378.52185844 379.00053293 378.52725184 C374.39821565 378.5395041 369.79597094 378.53921875 365.19364107 378.53686309 C360.23169128 378.53645548 355.26976494 378.54748867 350.30782604 378.55697823 C340.58485045 378.57360137 330.86189911 378.57908836 321.13891049 378.58020298 C313.23672942 378.58115283 305.33455636 378.58525994 297.43237782 378.59160423 C275.03540326 378.60922017 252.63844789 378.61844254 230.24146637 378.61694328 C228.42977926 378.61682342 228.42977926 378.61682342 226.58149242 378.61670113 C224.76759701 378.61657848 224.76759701 378.61657848 222.91705725 378.61645336 C203.31623842 378.61564035 183.71549641 378.63478107 164.1146998 378.66297786 C143.99575662 378.69169199 123.87685091 378.70551897 103.75788671 378.70379031 C92.45979463 378.7031259 81.16178309 378.70864038 69.86370945 378.73014641 C60.24465734 378.74833883 50.62572227 378.75272148 41.00666042 378.73912756 C36.09833179 378.73258815 31.19022783 378.73251582 26.28192043 378.74983406 C21.78811983 378.76552679 17.29472274 378.7627401 12.80093221 378.7452658 C11.17578006 378.74218751 9.55059808 378.74585942 7.9254811 378.75698595 C-1.52131464 378.8173776 -8.78914003 378.74692565 -16.26103687 372.31640816 C-16.799865 371.67445503 -17.33869312 371.03250191 -17.89384937 370.37109566 C-18.44814625 369.73429878 -19.00244312 369.09750191 -19.57353687 368.44140816 C-23.11577189 363.06104038 -23.31228863 357.72985839 -23.29732227 351.51419258 C-23.30311468 350.64743648 -23.30890708 349.78068039 -23.31487501 348.88765895 C-23.33184755 345.99033556 -23.33474916 343.09317173 -23.33769703 340.19580269 C-23.34699709 338.11612242 -23.35716588 336.03644588 -23.36813831 333.95677376 C-23.39544349 328.31475493 -23.41058932 322.67276107 -23.42356634 317.03069353 C-23.43919455 311.1329725 -23.46598578 305.23530248 -23.49159718 299.33761787 C-23.53839039 288.17118239 -23.57513192 277.00473731 -23.60827005 265.83825386 C-23.64648756 253.12490304 -23.69589872 240.41160346 -23.74625421 227.69829583 C-23.84958216 201.54760041 -23.9388398 175.39687208 -24.01884937 149.24609566 C-24.67884937 148.91609566 -25.33884937 148.58609566 -26.01884937 148.24609566 C-26.01884937 140.32609566 -26.01884937 132.40609566 -26.01884937 124.24609566 C-25.02884937 123.75109566 -25.02884937 123.75109566 -24.01884937 123.24609566 C-24.01338093 121.28077888 -24.01338093 121.28077888 -24.00780201 119.27575874 C-23.97082969 106.91654037 -23.9130321 94.55757064 -23.83494663 82.19854164 C-23.79547041 75.84491646 -23.7632824 69.49142991 -23.74785328 63.13769722 C-23.73268802 57.00374996 -23.69824381 50.87018382 -23.65054035 44.73640633 C-23.63572539 42.39853926 -23.6278083 40.06061779 -23.62696552 37.72270393 C-23.62459458 34.44298048 -23.5975027 31.16430916 -23.56474781 27.88476753 C-23.56977818 26.92235146 -23.57480854 25.95993538 -23.57999134 24.96835518 C-23.46938142 17.79011957 -21.82786943 12.45161755 -17.05400562 7.00390816 C-16.40302906 6.46508003 -15.7520525 5.92625191 -15.08134937 5.37109566 C-14.43295094 4.81679878 -13.7845525 4.26250191 -13.11650562 3.69140816 C-8.8412869 0.74572673 -5.14772366 -0.00372618 0 0 Z " fill="#86786E" transform="translate(59.01884937286377,97.75390434265137)"/>
<path d="M0 0 C4.90050858 1.81500318 7.561618 5.84242699 10.375 10.0625 C11.48014008 13.48843425 10.31660488 16.33684113 8.80761719 19.49755859 C8.30907227 20.37234863 7.81052734 21.24713867 7.296875 22.1484375 C6.73452148 23.14343262 6.17216797 24.13842773 5.59277344 25.16357422 C4.9846582 26.22334473 4.37654297 27.28311523 3.75 28.375 C2.81849121 30.01686279 2.81849121 30.01686279 1.86816406 31.69189453 C0.56974862 33.97971962 -0.73140637 36.26599186 -2.03515625 38.55078125 C-3.95068028 41.91342086 -5.85290225 45.28318614 -7.75 48.65625 C-12.6772083 57.4116861 -12.6772083 57.4116861 -14.453125 60.5546875 C-14.89817383 61.34343262 -15.34322266 62.13217773 -15.80175781 62.94482422 C-16.80608413 64.66740346 -17.89393969 66.34090953 -19 68 C-19.38499891 69.65549531 -19.72793135 71.3222433 -20 73 C-18.35 73 -16.7 73 -15 73 C-14.79246094 72.23042969 -14.58492188 71.46085937 -14.37109375 70.66796875 C-12.46412125 65.56640983 -9.77727089 61.02349492 -7.0625 56.3125 C-6.48854492 55.30823975 -5.91458984 54.30397949 -5.32324219 53.26928711 C-4.1381155 51.19825373 -2.95043609 49.1286791 -1.76025391 47.06054688 C-0.07646603 44.13295119 1.59762245 41.20001638 3.26953125 38.265625 C4.2624816 36.53094122 5.25594441 34.79655066 6.25 33.0625 C6.715271 32.24628174 7.18054199 31.43006348 7.65991211 30.58911133 C8.74453352 28.70919643 9.86782627 26.85166581 11 25 C11.33 25 11.66 25 12 25 C12.06869467 57.71446694 12.12154328 90.42891514 12.15319599 123.14343777 C12.15694802 127.00732777 12.160831 130.87121763 12.16479492 134.73510742 C12.16558185 135.50432524 12.16636878 136.27354306 12.16717956 137.0660705 C12.18022682 149.51454248 12.20387691 161.96297281 12.23145839 174.4114201 C12.25953153 187.18851117 12.2761803 199.96558046 12.28226548 212.74270111 C12.28637797 220.62431057 12.29935818 228.50580232 12.3237494 236.38737554 C12.34150986 242.43509377 12.3433608 248.48271114 12.33932304 254.53045845 C12.34014797 257.00841114 12.34610991 259.48636832 12.35761642 261.96429443 C12.37256946 265.35070329 12.36894292 268.73661086 12.36076355 272.12303162 C12.36950207 273.1006807 12.3782406 274.07832979 12.38724393 275.08560461 C12.33085619 283.73883453 10.60248751 290.68729368 4.98828125 297.39453125 C-3.15465085 303.96966896 -11.08334491 303.48852177 -21 303.25 C-22.45700669 303.22990336 -23.91404015 303.21165818 -25.37109375 303.1953125 C-28.9146255 303.15156901 -32.45713877 303.08271767 -36 303 C-34.39453271 301.92968847 -32.77634221 300.87324528 -31.09765625 299.921875 C-25.99372033 296.98294836 -22.31017842 294.0253508 -20.40625 288.17578125 C-19.90616394 285.49743574 -19.90508267 282.97305547 -19.9375 280.25 C-19.94652344 279.26515625 -19.95554687 278.2803125 -19.96484375 277.265625 C-19.97644531 276.51796875 -19.98804688 275.7703125 -20 275 C-19.0409375 274.566875 -19.0409375 274.566875 -18.0625 274.125 C-15.84793921 273.17176549 -15.84793921 273.17176549 -15 271 C-14.60065973 265.71489426 -15.30859722 262.58518586 -17.9296875 258.0078125 C-18.55488281 256.89978271 -19.18007813 255.79175293 -19.82421875 254.65014648 C-20.5074138 253.4748658 -21.19101656 252.29982203 -21.875 251.125 C-22.57281255 249.90180569 -23.26941813 248.67792207 -23.96484375 247.45336914 C-25.95662038 243.95713025 -27.97504864 240.47713076 -30 237 C-30.71784668 235.7637085 -30.71784668 235.7637085 -31.45019531 234.50244141 C-33.40581334 231.14261295 -35.38042179 227.79461356 -37.3671875 224.453125 C-40.66726979 218.89211337 -43.89476715 213.28928046 -47.125 207.6875 C-47.75688232 206.59179688 -48.38876465 205.49609375 -49.03979492 204.3671875 C-52.42747602 198.48575544 -55.80414095 192.59822181 -59.16796875 186.703125 C-59.51243546 186.09971786 -59.85690216 185.49631073 -60.21180725 184.87461853 C-61.92198609 181.87802265 -63.62945515 178.87993429 -65.33227539 175.87915039 C-68.24213301 170.76420867 -71.16992327 165.67307015 -74.265625 160.66796875 C-74.98431763 159.49633179 -74.98431763 159.49633179 -75.7175293 158.30102539 C-76.57923836 156.90686803 -77.45456983 155.52098443 -78.34692383 154.14624023 C-80.12179609 151.26741359 -81.04261502 149.51142323 -80.7578125 146.09350586 C-80.0018096 143.00738707 -79.04408802 140.88691287 -77.40234375 138.18359375 C-76.58334595 136.81255493 -76.58334595 136.81255493 -75.74780273 135.41381836 C-75.15040283 134.4316333 -74.55300293 133.44944824 -73.9375 132.4375 C-68.42663957 123.19317634 -63.10586305 113.87601166 -57.9375 104.4375 C-56.58535053 101.97226339 -55.23235505 99.50749222 -53.87890625 97.04296875 C-53.54971695 96.44336838 -53.22052765 95.84376801 -52.88136292 95.22599792 C-49.75665788 89.54222328 -46.57470354 83.89180208 -43.375 78.25 C-42.85284912 77.32880371 -42.33069824 76.40760742 -41.79272461 75.45849609 C-40.73652745 73.59519412 -39.68029361 71.73191293 -38.62402344 69.86865234 C-30.4691562 55.46400861 -22.42307642 41.0064323 -14.56933594 26.43530273 C-10.66246575 19.19449724 -6.67039273 12.00687478 -2.609375 4.8515625 C-1.70684308 3.25241614 -0.82119827 1.64239653 0 0 Z " fill="#DBC7AB" transform="translate(427,137)"/>
<path d="M0 0 C3 1.75 3 1.75 6 4 C12.16268412 8.43713256 17.46860371 9.01018728 25 8 C29.61388775 6.46702271 33.1502349 3.90271891 37 1 C44.82891201 14.38709273 52.64185918 27.78274269 60.35571289 41.23657227 C63.54673528 46.7927398 66.77968187 52.31697507 70.09375 57.80078125 C70.74923828 58.89455078 71.40472656 59.98832031 72.08007812 61.11523438 C73.33234465 63.20064669 74.59616828 65.27917536 75.87304688 67.34960938 C76.43056641 68.28224609 76.98808594 69.21488281 77.5625 70.17578125 C78.05878906 70.98958252 78.55507813 71.80338379 79.06640625 72.6418457 C80 75 80 75 79 80 C23.23 80 -32.54 80 -90 80 C-89.15089474 74.05626318 -88.71749348 71.85618659 -85.89453125 67.03515625 C-85.24766357 65.9174585 -84.6007959 64.79976074 -83.93432617 63.64819336 C-83.22727103 62.45283193 -82.51999016 61.25760401 -81.8125 60.0625 C-81.08531538 58.81513383 -80.35917368 57.56715913 -79.6340332 56.31860352 C-77.78758489 53.14493209 -75.92844074 49.97890427 -74.06604004 46.8145752 C-72.43917523 44.04538416 -70.82511916 41.26878569 -69.2109375 38.4921875 C-66.90732906 34.52986757 -64.59383236 30.57360238 -62.2734375 26.62109375 C-60.07308482 22.86329784 -57.91521567 19.08540972 -55.7890625 15.28515625 C-55.28544189 14.3919165 -54.78182129 13.49867676 -54.26293945 12.57836914 C-53.319804 10.90180737 -52.38553028 9.22021886 -51.46166992 7.53295898 C-50.39144014 5.63886677 -49.20628008 3.81048763 -48 2 C-47.01 2 -46.02 2 -45 2 C-44.94392578 3.35544922 -44.94392578 3.35544922 -44.88671875 4.73828125 C-44.78810547 6.50751953 -44.78810547 6.50751953 -44.6875 8.3125 C-44.62949219 9.48425781 -44.57148438 10.65601563 -44.51171875 11.86328125 C-44.20510718 14.90521834 -44.20510718 14.90521834 -42.89453125 16.91796875 C-39.86870766 18.64611954 -37.43062141 18.28486905 -34 18 C-30.74222372 16.39217699 -30.74222372 16.39217699 -27.65625 14.0625 C-27.08346313 13.66297119 -26.51067627 13.26344238 -25.92053223 12.85180664 C-24.10238473 11.58305508 -22.2998744 10.29451948 -20.5 9 C-18.12730925 7.29349515 -15.74083478 5.60950836 -13.34375 3.9375 C-12.29380859 3.18339844 -11.24386719 2.42929687 -10.16210938 1.65234375 C-6.44205056 -0.29155357 -4.14324126 -0.44751923 0 0 Z " fill="#D6DF56" transform="translate(327,327)"/>
<path d="M0 0 C2.92056362 1.73279919 5.41594909 3.81022916 8 6 C11.92240988 7.96120494 16.71453006 7.35156613 21 7 C24.3859434 5.76763727 24.3859434 5.76763727 27 4 C28.32800825 3.32278784 29.66046856 2.65412364 31 2 C31.79557292 3.34635417 32.59114583 4.69270833 33.38671875 6.0390625 C33.90733887 6.91957275 34.42795898 7.80008301 34.96435547 8.70727539 C36.12283604 10.66887942 37.27938092 12.63162779 38.43408203 14.59545898 C41.50963549 19.81973808 44.61524849 25.02072423 47.79296875 30.18359375 C48.69366089 31.66255127 48.69366089 31.66255127 49.61254883 33.17138672 C50.7712573 35.07212446 51.94138131 36.96595845 53.1237793 38.85205078 C53.6475415 39.71685059 54.17130371 40.58165039 54.7109375 41.47265625 C55.17806152 42.22812744 55.64518555 42.98359863 56.12646484 43.76196289 C57.23524388 46.6027056 56.88061397 48.1166233 56 51 C54.56709549 53.83324301 52.97639619 56.54039884 51.375 59.28125 C49.71604246 62.2604472 49.71604246 62.2604472 49 67 C7.75 67 -33.5 67 -76 67 C-75.16842653 62.01055916 -74.78365483 60.09996017 -72.3671875 56.078125 C-71.81538818 55.14750244 -71.26358887 54.21687988 -70.69506836 53.25805664 C-69.79413452 51.7690686 -69.79413452 51.7690686 -68.875 50.25 C-67.60207347 48.10854297 -66.32996764 45.96659794 -65.05859375 43.82421875 C-64.39456543 42.71095215 -63.73053711 41.59768555 -63.04638672 40.45068359 C-59.61912275 34.688167 -56.28280978 28.87281876 -52.9375 23.0625 C-52.3192334 21.99225586 -51.7009668 20.92201172 -51.06396484 19.81933594 C-47.6542068 13.90933716 -44.28903096 7.9780807 -41 2 C-38.03474535 2.59808746 -36.89096334 3.08776121 -34.4375 5.0625 C-29.6012921 7.78836264 -25.43721555 7.67457233 -20 7 C-16.48478259 5.67350286 -14.10965646 4.08343426 -11.125 1.8125 C-7.31197306 -0.39905562 -4.25023143 -1.08634647 0 0 Z " fill="#D6DF56" transform="translate(181,340)"/>
<path d="M0 0 C4.90050858 1.81500318 7.561618 5.84242699 10.375 10.0625 C11.48014008 13.48843425 10.31660488 16.33684113 8.80761719 19.49755859 C8.30907227 20.37234863 7.81052734 21.24713867 7.296875 22.1484375 C6.73452148 23.14343262 6.17216797 24.13842773 5.59277344 25.16357422 C4.9846582 26.22334473 4.37654297 27.28311523 3.75 28.375 C2.81849121 30.01686279 2.81849121 30.01686279 1.86816406 31.69189453 C0.56974862 33.97971962 -0.73140637 36.26599186 -2.03515625 38.55078125 C-3.95068028 41.91342086 -5.85290225 45.28318614 -7.75 48.65625 C-12.6772083 57.4116861 -12.6772083 57.4116861 -14.453125 60.5546875 C-14.89817383 61.34343262 -15.34322266 62.13217773 -15.80175781 62.94482422 C-16.80608413 64.66740346 -17.89393969 66.34090953 -19 68 C-19.290154 70.48578135 -19.290154 70.48578135 -19.22705078 73.29760742 C-19.22682419 74.91894844 -19.22682419 74.91894844 -19.22659302 76.57304382 C-19.21627045 77.73874405 -19.20594788 78.90444427 -19.1953125 80.10546875 C-19.19106766 81.89698112 -19.19106766 81.89698112 -19.18673706 83.72468567 C-19.17552677 87.54572497 -19.15042037 91.36653134 -19.125 95.1875 C-19.11497131 97.77538724 -19.10584527 100.36327816 -19.09765625 102.95117188 C-19.07558465 109.30086096 -19.0420986 115.65041384 -19 122 C-19.99 122.33 -20.98 122.66 -22 123 C-22.556875 122.071875 -23.11375 121.14375 -23.6875 120.1875 C-26.09531421 116.86862095 -27.2181911 115.47983827 -31 114 C-36.04325384 113.31573943 -39.83076884 113.4260138 -44.4375 115.6875 C-47.12412635 117.80934203 -47.12412635 117.80934203 -48.25 120.6875 C-50 123 -50 123 -52.2265625 123.3984375 C-54.00210223 123.50842669 -55.77818881 123.60989766 -57.5546875 123.703125 C-61.00997346 124.12261659 -62.68277769 125.46553809 -65 128 C-67.87920894 132.69658195 -67.63475823 137.66009641 -67 143 C-64.36587437 147.86300116 -62.25120613 148.37439693 -57 151 C-44.46 151.33 -31.92 151.66 -19 152 C-19 185.66 -19 219.32 -19 254 C-23.49495549 249.50504451 -23.49495549 249.50504451 -25.0859375 246.515625 C-25.45178955 245.84055908 -25.8176416 245.16549316 -26.19458008 244.4699707 C-26.58411865 243.73738037 -26.97365723 243.00479004 -27.375 242.25 C-31.39114491 234.8580093 -35.55143927 227.56599414 -39.8125 220.3125 C-44.4205849 212.45300625 -48.96998654 204.56525875 -53.4375 196.625 C-58.22479793 188.11901062 -63.0612482 179.64271282 -67.9375 171.1875 C-68.55230225 170.12031738 -69.16710449 169.05313477 -69.80053711 167.95361328 C-70.3910083 166.93122559 -70.98147949 165.90883789 -71.58984375 164.85546875 C-72.15558105 163.86981934 -72.72131836 162.88416992 -73.30419922 161.86865234 C-74.4305285 159.96333 -75.59910965 158.08233543 -76.80908203 156.22900391 C-77.36837402 155.36581543 -77.92766602 154.50262695 -78.50390625 153.61328125 C-79.26102905 152.49046753 -79.26102905 152.49046753 -80.03344727 151.3449707 C-81.34843458 148.15465671 -80.89630091 146.29962807 -80 143 C-78.85522461 140.57592773 -78.85522461 140.57592773 -77.40234375 138.18359375 C-76.58334595 136.81255493 -76.58334595 136.81255493 -75.74780273 135.41381836 C-75.15040283 134.4316333 -74.55300293 133.44944824 -73.9375 132.4375 C-68.42663957 123.19317634 -63.10586305 113.87601166 -57.9375 104.4375 C-56.58535053 101.97226339 -55.23235505 99.50749222 -53.87890625 97.04296875 C-53.54971695 96.44336838 -53.22052765 95.84376801 -52.88136292 95.22599792 C-49.75665788 89.54222328 -46.57470354 83.89180208 -43.375 78.25 C-42.85284912 77.32880371 -42.33069824 76.40760742 -41.79272461 75.45849609 C-40.73652745 73.59519412 -39.68029361 71.73191293 -38.62402344 69.86865234 C-30.4691562 55.46400861 -22.42307642 41.0064323 -14.56933594 26.43530273 C-10.66246575 19.19449724 -6.67039273 12.00687478 -2.609375 4.8515625 C-1.70684308 3.25241614 -0.82119827 1.64239653 0 0 Z " fill="#FAE6C9" transform="translate(427,137)"/>
<path d="M0 0 C2.66609199 1.04123888 3.35754511 2.20362311 4.86743164 4.61743164 C5.38192871 5.4348584 5.89642578 6.25228516 6.42651367 7.09448242 C9.33749961 11.94437574 12.18530752 16.8255388 14.98852539 21.73852539 C15.97147853 23.45152102 16.95443647 25.16451391 17.93766785 26.87734985 C18.95657719 28.65326909 19.97415012 30.42994842 20.99145508 32.20678711 C24.35415918 38.07805172 27.73417337 43.93933336 31.11352539 49.80102539 C31.71994873 50.85539795 32.32637207 51.90977051 32.95117188 52.99609375 C33.5319751 54.00422119 34.11277832 55.01234863 34.71118164 56.05102539 C35.26306152 57.01782227 35.81494141 57.98461914 36.38354492 58.98071289 C37.50097475 60.87069085 38.66999332 62.73104158 39.88647461 64.55883789 C40.4551123 65.42250977 41.02375 66.28618164 41.60961914 67.17602539 C42.12709717 67.92625977 42.6445752 68.67649414 43.17773438 69.44946289 C44.43939242 72.84680431 43.48240898 74.53635673 42.05102539 77.80102539 C41.08585066 79.69852772 40.07041128 81.57111669 39.01196289 83.41821289 C38.43188477 84.43657227 37.85180664 85.45493164 37.25415039 86.50415039 C36.65086914 87.55086914 36.04758789 88.59758789 35.42602539 89.67602539 C34.81500977 90.74594727 34.20399414 91.81586914 33.57446289 92.91821289 C32.07139429 95.54858294 30.56346254 98.17603465 29.05102539 100.80102539 C24.50789989 100.15705667 22.09689677 99.45559977 18.61352539 96.42602539 C10.01149918 89.50174975 3.08763757 88.73451238 -7.94897461 89.80102539 C-13.34249432 91.29034363 -17.2253549 94.61661545 -21.21069336 98.43383789 C-25.76922232 102.01919775 -30.57456858 102.29255165 -36.17553711 102.17993164 C-40.63285403 101.57097426 -43.47241539 99.53008912 -46.94897461 96.80102539 C-47.69791992 96.2505957 -48.44686523 95.70016602 -49.21850586 95.13305664 C-51.14699626 93.71117493 -53.05424896 92.2674221 -54.94897461 90.80102539 C-53.57448594 87.16469916 -51.94462603 83.83038418 -50.04272461 80.44165039 C-49.46917236 79.4175708 -48.89562012 78.39349121 -48.3046875 77.33837891 C-47.69230225 76.25355225 -47.07991699 75.16872559 -46.44897461 74.05102539 C-45.49849243 72.3609436 -45.49849243 72.3609436 -44.52880859 70.63671875 C-40.70269102 63.85244771 -36.82463221 57.10334135 -32.84936523 50.40551758 C-28.99231217 43.90336108 -25.22064249 37.35299944 -21.44897461 30.80102539 C-19.54153433 27.49354982 -17.63336547 24.18649595 -15.72485352 20.87963867 C-14.59314924 18.91774825 -13.4625017 16.95524761 -12.33325195 14.99194336 C-10.93946858 12.57111387 -9.5391352 10.15421863 -8.13647461 7.73852539 C-7.73428711 7.03663086 -7.33209961 6.33473633 -6.91772461 5.61157227 C-3.43899426 -0.35109361 -3.43899426 -0.35109361 0 0 Z " fill="#89C4DB" transform="translate(256.948974609375,200.198974609375)"/>
<path d="M0 0 C6.12295537 1.65679969 11.34891353 4.80960604 16.8125 7.9375 C18.26172852 8.74477539 18.26172852 8.74477539 19.74023438 9.56835938 C20.65740234 10.09107422 21.57457031 10.61378906 22.51953125 11.15234375 C23.35589111 11.62663818 24.19225098 12.10093262 25.05395508 12.58959961 C27 14 27 14 28 17 C27.05053711 19.23876953 27.05053711 19.23876953 25.52734375 21.8828125 C24.9645874 22.8723291 24.40183105 23.8618457 23.82202148 24.88134766 C23.20012939 25.95175293 22.5782373 27.0221582 21.9375 28.125 C20.63513061 30.4060867 19.33305534 32.68734135 18.03125 34.96875 C17.35303903 36.14983977 16.67465336 37.33082924 15.99609375 38.51171875 C12.93031373 43.85683957 9.9385487 49.24337079 6.9375 54.625 C2.47846881 62.59478129 -2.00164316 70.55235616 -6.5 78.5 C-16.75412531 96.61770874 -26.90757036 114.79176864 -37 133 C-40.82097776 132.41274734 -43.62990591 131.30137273 -46.9765625 129.3828125 C-47.894375 128.85816406 -48.8121875 128.33351562 -49.7578125 127.79296875 C-51.17707031 126.96732422 -51.17707031 126.96732422 -52.625 126.125 C-53.57890625 125.58230469 -54.5328125 125.03960937 -55.515625 124.48046875 C-63.22223703 120.04102604 -63.22223703 120.04102604 -66 117 C-58.33328671 103.15834475 -50.64470571 89.33085127 -42.84472656 75.5637207 C-38.89768789 68.59506878 -34.97380111 61.61377037 -31.0625 54.625 C-30.48395264 53.59165527 -29.90540527 52.55831055 -29.30932617 51.49365234 C-26.31981663 46.15212967 -23.33501522 40.80802411 -20.35546875 35.4609375 C-13.71358938 23.55274765 -6.98938258 11.70802105 0 0 Z " fill="#D5DE56" transform="translate(392,123)"/>
<path d="M0 0 C3.02174988 1.70364174 5.68659661 3.73307278 8.40234375 5.8828125 C10.85780105 7.72054469 13.47544276 9.02176174 16.265625 10.27734375 C15.72867049 14.58635451 14.74474001 17.72271318 12.59765625 21.48828125 C11.762948 22.96627197 11.762948 22.96627197 10.91137695 24.47412109 C10.30640381 25.52293457 9.70143066 26.57174805 9.078125 27.65234375 C8.45317139 28.75143066 7.82821777 29.85051758 7.18432617 30.98291016 C1.18131893 41.50978125 -4.93317744 51.97257106 -11.06494141 62.42480469 C-13.76202921 67.03328288 -16.43650759 71.65478829 -19.109375 76.27734375 C-19.58012451 77.09122559 -20.05087402 77.90510742 -20.53588867 78.74365234 C-21.6024056 80.58801102 -22.66845088 82.43264241 -23.734375 84.27734375 C-27.5497971 83.00553638 -27.81459556 81.85275529 -29.703125 78.37890625 C-30.26829834 77.35224854 -30.83347168 76.32559082 -31.41577148 75.26782227 C-32.01591064 74.15721436 -32.6160498 73.04660645 -33.234375 71.90234375 C-34.50541564 69.59054358 -35.77756035 67.27935011 -37.05078125 64.96875 C-37.99268311 63.25196045 -37.99268311 63.25196045 -38.95361328 61.50048828 C-41.303669 57.24693254 -43.72342559 53.03731846 -46.171875 48.83984375 C-47.04690871 47.33595711 -47.92190763 45.83205024 -48.796875 44.328125 C-49.25578125 43.54002441 -49.7146875 42.75192383 -50.1875 41.93994141 C-53.02434502 37.05695028 -55.84430162 32.16419475 -58.66555786 27.27218628 C-59.64648783 25.57136229 -60.62780422 23.87076117 -61.60913086 22.17016602 C-62.79967642 20.1064168 -63.98828398 18.04154785 -65.17456055 15.9753418 C-66.12659596 14.32861409 -67.08904659 12.68778086 -68.06958008 11.05786133 C-70.75369489 6.56714206 -70.75369489 6.56714206 -70.546875 3.46484375 C-69.734375 1.27734375 -69.734375 1.27734375 -68.734375 -0.72265625 C-65.23858373 0.36977852 -62.70705625 1.98212869 -59.859375 4.21484375 C-52.78045302 9.60642492 -46.5588898 11.35764886 -37.734375 10.27734375 C-31.50753272 8.67304814 -27.05704479 5.99942705 -22.37890625 1.671875 C-15.3222489 -4.31203634 -7.81851757 -3.7364004 0 0 Z " fill="#D5DE56" transform="translate(266.734375,296.72265625)"/>
<path d="M0 0 C-5.8989689 12.27912256 -12.49936141 24.09919191 -19.25146484 35.92626953 C-22.17264458 41.06137883 -25.05477962 46.2182322 -27.9375 51.375 C-29.1080607 53.46745475 -30.27863368 55.55990263 -31.44921875 57.65234375 C-32.0323584 58.69503418 -32.61549805 59.73772461 -33.21630859 60.81201172 C-35.02430308 64.04343684 -36.83412176 67.27383358 -38.64453125 70.50390625 C-44.16371757 80.35167647 -49.67627717 90.202807 -55.15087891 100.07543945 C-61.06669233 110.73584736 -67.03791893 121.36542539 -73 132 C-73.99 132 -74.98 132 -76 132 C-89.77316472 111.93794731 -89.77316472 111.93794731 -90.10351562 104.74658203 C-89.07438061 100.59421764 -86.26347298 97.38799141 -83.61230469 94.14355469 C-80.34620669 89.8012863 -77.95779646 84.89234518 -75.375 80.125 C-74.15751847 77.9483502 -72.93610682 75.77389438 -71.7109375 73.6015625 C-68.71367172 68.27117102 -65.72274088 62.93727974 -62.73583984 57.60107422 C-61.57774765 55.53214496 -60.4192183 53.46346033 -59.26025391 51.39501953 C-55.68068734 45.00629968 -52.10670781 38.61456232 -48.55078125 32.21264648 C-47.3603691 30.08891635 -46.15483687 27.97358358 -44.93359375 25.86743164 C-42.24227203 21.20647716 -39.7948289 16.71702946 -37.953125 11.65234375 C-31.36385517 -5.05150543 -15.37234521 -1.59797192 0 0 Z " fill="#DDC9AC" transform="translate(379,134)"/>
<path d="M0 0 C0.66644531 0.4125 1.33289063 0.825 2.01953125 1.25 C2.71691406 1.6625 3.41429687 2.075 4.1328125 2.5 C10.9352292 7.00932331 14.49990452 13.31278529 17.39453125 20.8125 C19.17851815 30.62442796 17.82492887 39.66978354 12.1015625 48.0625 C6.12257565 55.17379056 0.15814752 59.89911334 -9.265625 60.71875 C-19.35433786 61.22276299 -26.88352201 60.10586865 -34.95703125 53.67578125 C-41.14974228 48.02328543 -45.53148638 40.74819399 -46.21875 32.33203125 C-46.38565234 24.97954417 -45.83558344 19.56710383 -41.98046875 13.25 C-41.55636719 12.55132812 -41.13226563 11.85265625 -40.6953125 11.1328125 C-31.8927618 -1.86259662 -14.3168715 -7.64983115 0 0 Z " fill="#D5DE56" transform="translate(140.98046875,201.75)"/>
<path d="M0 0 C9.54849857 4.64529785 18.78175906 9.73577611 28 15 C26.67108972 18.47549215 25.15371762 21.72871874 23.3828125 25 C22.86396484 25.95962646 22.34511719 26.91925293 21.81054688 27.90795898 C20.97620117 29.43851929 20.97620117 29.43851929 20.125 31 C19.55072266 32.05711182 18.97644531 33.11422363 18.38476562 34.20336914 C13.59060807 42.99287678 8.65797427 51.6983953 3.65625 60.37109375 C1.05368942 64.88634499 -1.48315457 69.43651155 -4 74 C-7.70897259 72.60582632 -11.07838312 70.92181521 -14.51953125 68.9609375 C-15.54111328 68.38085938 -16.56269531 67.80078125 -17.61523438 67.203125 C-18.67033203 66.59984375 -19.72542969 65.9965625 -20.8125 65.375 C-21.88693359 64.76398438 -22.96136719 64.15296875 -24.06835938 63.5234375 C-26.71386076 62.01844115 -29.3576625 60.51054209 -32 59 C-31.35078871 55.87467562 -30.26980131 53.39804772 -28.734375 50.60546875 C-28.26273926 49.7434082 -27.79110352 48.88134766 -27.30517578 47.99316406 C-26.79196777 47.06729492 -26.27875977 46.14142578 -25.75 45.1875 C-25.22003418 44.22424805 -24.69006836 43.26099609 -24.14404297 42.26855469 C-20.17524495 35.07474511 -16.16018384 27.90675223 -12.125 20.75 C-11.60260742 19.82340576 -11.08021484 18.89681152 -10.54199219 17.94213867 C-7.12092727 11.90410063 -3.59800861 5.93423226 0 0 Z " fill="#EE6B79" transform="translate(323,246)"/>
<path d="M0 0 C9.55767365 4.64810877 18.82842262 9.63365153 28 15 C26.54671326 18.86920356 24.76285747 22.40892783 22.76171875 26.0234375 C22.44441299 26.59842987 22.12710724 27.17342224 21.80018616 27.76583862 C20.7660154 29.63746109 19.72728253 31.50648993 18.6875 33.375 C18.33328979 34.01240112 17.97907959 34.64980225 17.61413574 35.30651855 C16.15560374 37.93102197 14.69663944 40.55527729 13.23464966 43.17785645 C10.8621837 47.43620643 8.5197327 51.70954318 6.19140625 55.9921875 C5.04466982 58.07834437 3.8975564 60.16429407 2.75 62.25 C2.22623779 63.22501465 1.70247559 64.2000293 1.1628418 65.20458984 C0.67082275 66.09098145 0.17880371 66.97737305 -0.328125 67.890625 C-0.7499707 68.66438477 -1.17181641 69.43814453 -1.60644531 70.23535156 C-3 72 -3 72 -4.80078125 72.94213867 C-8.09166611 73.02872168 -10.02682049 71.66821064 -12.859375 70.03515625 C-13.97441406 69.40029297 -15.08945312 68.76542969 -16.23828125 68.11132812 C-17.40900834 67.42864974 -18.57957931 66.74570356 -19.75 66.0625 C-20.93555219 65.38233677 -22.12174371 64.70328663 -23.30859375 64.02539062 C-26.21221432 62.3611203 -29.10878427 60.68569897 -32 59 C-31.33229677 55.71113602 -30.11810952 53.10915549 -28.515625 50.16796875 C-27.99871094 49.21535156 -27.48179687 48.26273438 -26.94921875 47.28125 C-26.38847656 46.2603125 -25.82773437 45.239375 -25.25 44.1875 C-24.67378906 43.13175781 -24.09757812 42.07601562 -23.50390625 40.98828125 C-19.38478931 33.46486159 -15.21119008 25.97223498 -11 18.5 C-10.20964355 17.09657349 -10.20964355 17.09657349 -9.40332031 15.66479492 C-6.39442722 10.35693447 -3.27263138 5.14958172 0 0 Z " fill="#EF6B79" transform="translate(428,59)"/>
<path d="M0 0 C3.91137276 1.47985028 5.14295403 3.442509 7.1015625 7.06640625 C7.6694751 8.101604 8.2373877 9.13680176 8.82250977 10.20336914 C9.41733154 11.31188232 10.01215332 12.42039551 10.625 13.5625 C11.87488663 15.84452583 13.12619519 18.12577341 14.37890625 20.40625 C15.29953857 22.09041016 15.29953857 22.09041016 16.23876953 23.80859375 C18.60867138 28.10293211 21.06438462 32.34176438 23.5625 36.5625 C23.94293457 37.20840088 24.32336914 37.85430176 24.71533203 38.51977539 C25.07868652 39.13328857 25.44204102 39.74680176 25.81640625 40.37890625 C26.16461426 40.96816895 26.51282227 41.55743164 26.87158203 42.16455078 C27.68980556 43.49544748 28.54486842 44.80391957 29.42138672 46.09716797 C29.88947754 46.79600098 30.35756836 47.49483398 30.83984375 48.21484375 C31.49327759 49.15831665 31.49327759 49.15831665 32.15991211 50.12084961 C33 52 33 52 32.79125977 54.09594727 C31.3981681 57.44822184 29.17486521 58.41256739 26 60 C21.82862458 60.90815923 18.48589222 60.86935013 14.75 58.68359375 C13.37537589 57.63493749 12.03071836 56.54525487 10.7265625 55.41015625 C7.28879259 52.6023849 3.58691463 52.66957888 -0.65234375 52.7109375 C-5.18734132 53.26932322 -8.5575291 55.65369382 -11.875 58.75 C-15.42719368 60.8395257 -19.00608558 60.75053425 -23 60 C-25.69943424 58.58131923 -27.65467393 56.99602219 -30 55 C-29.40978811 50.99837244 -28.15443329 48.14707221 -26.11328125 44.66796875 C-25.5107251 43.63269043 -24.90816895 42.59741211 -24.28735352 41.53076172 C-23.63565186 40.42748535 -22.9839502 39.32420898 -22.3125 38.1875 C-21.29957607 36.45320118 -20.28665461 34.71890091 -19.27391052 32.98449707 C-18.22487586 31.190789 -17.17248471 29.39909049 -16.11914062 27.60791016 C-14.03364006 24.06042527 -11.96051592 20.50582887 -9.890625 16.94921875 C-6.59957682 11.29606388 -3.30221368 5.64663911 0 0 Z " fill="#89C4DA" transform="translate(175,282)"/>
<path d="M0 0 C3.98862687 1.80687796 6.44397609 3.91212714 8.4375 7.8125 C8.7159375 8.8953125 8.7159375 8.8953125 9 10 C10.19625 9.938125 11.3925 9.87625 12.625 9.8125 C16.79034704 9.82721854 19.46642017 10.67104966 23 13 C26.3777799 16.65165394 27.83255122 19.25853268 28.3125 24.25 C27.86455659 29.62532091 26.007149 33.1753191 21.9375 36.875 C18.82591043 38.68172943 16.2408567 39.13115208 12.71557617 39.17700195 C11.85425583 39.18983719 10.99293549 39.20267242 10.10551453 39.21589661 C9.17737442 39.22328354 8.24923431 39.23067047 7.29296875 39.23828125 C6.33481766 39.246353 5.37666656 39.25442474 4.38948059 39.26274109 C2.36115321 39.27657193 0.33280264 39.28729856 -1.69555664 39.29516602 C-4.79032701 39.31237669 -7.88402837 39.35627169 -10.97851562 39.40039062 C-12.95051299 39.41051812 -14.92251942 39.41903405 -16.89453125 39.42578125 C-17.81659866 39.44328934 -18.73866608 39.46079742 -19.68867493 39.47883606 C-26.6492182 39.45545057 -30.10299444 37.51582061 -35.375 32.9375 C-37.90009929 28.37289743 -37.97487287 24.08534428 -37 19 C-34.65566515 14.74238542 -31.53780058 11.78633568 -27 10 C-24.640625 9.8046875 -24.640625 9.8046875 -22.25 9.875 C-21.45078125 9.89304688 -20.6515625 9.91109375 -19.828125 9.9296875 C-19.22484375 9.95289063 -18.6215625 9.97609375 -18 10 C-17.89558594 9.39542969 -17.79117188 8.79085937 -17.68359375 8.16796875 C-16.57842199 4.66299545 -13.85509589 3.15588873 -11 1 C-7.49741684 -0.75129158 -3.82180718 -0.55578568 0 0 Z " fill="#89C4DA" transform="translate(202,161)"/>
<path d="M0 0 C3.95122602 2.01153324 6.70849352 4.18082253 9 8 C9 8.66 9 9.32 9 10 C9.58007812 9.95359375 10.16015625 9.9071875 10.7578125 9.859375 C16.39949528 9.59870319 19.59161489 10.11642265 24 14 C27.38570467 17.83713196 27.51291172 21.63401462 27.3515625 26.5625 C26.82577497 30.20796018 25.44465904 32.2910535 23 35 C18.82870915 38.02418587 15.08115055 39.1032927 9.98510742 39.17700195 C9.20717331 39.18983719 8.4292392 39.20267242 7.62773132 39.21589661 C6.79538467 39.22328354 5.96303802 39.23067047 5.10546875 39.23828125 C3.80709831 39.25038887 3.80709831 39.25038887 2.48249817 39.26274109 C0.65265895 39.27655225 -1.1772057 39.28728764 -3.00708008 39.29516602 C-4.87206609 39.3066893 -6.73701903 39.32714665 -8.60180664 39.35668945 C-11.30377499 39.39947918 -14.00476564 39.41554997 -16.70703125 39.42578125 C-17.53330521 39.44328934 -18.35957916 39.46079742 -19.21089172 39.47883606 C-26.11825515 39.45317159 -30.12432878 37.43326026 -35.4375 32.9375 C-37.86068855 28.38190553 -37.74102976 24.04641268 -37 19 C-34.97685519 14.95371039 -32.81145098 12.39243955 -29 10 C-26.5625 9.69921875 -26.5625 9.69921875 -24 9.6875 C-21.37098581 9.5707447 -21.37098581 9.5707447 -19 9 C-16.60869555 6.20485402 -16.60869555 6.20485402 -15 3 C-10.63912272 -0.84783289 -5.53618134 -0.80735978 0 0 Z " fill="#88C2D8" transform="translate(396,250)"/>
<path d="M0 0 C0.66644531 0.4125 1.33289063 0.825 2.01953125 1.25 C2.71691406 1.6625 3.41429687 2.075 4.1328125 2.5 C10.9352292 7.00932331 14.49990452 13.31278529 17.39453125 20.8125 C19.17851815 30.62442796 17.82492887 39.66978354 12.1015625 48.0625 C6.12257565 55.17379056 0.15814752 59.89911334 -9.265625 60.71875 C-19.35433786 61.22276299 -26.88352201 60.10586865 -34.95703125 53.67578125 C-41.14974228 48.02328543 -45.53148638 40.74819399 -46.21875 32.33203125 C-46.38565234 24.97954417 -45.83558344 19.56710383 -41.98046875 13.25 C-41.55636719 12.55132812 -41.13226563 11.85265625 -40.6953125 11.1328125 C-31.8927618 -1.86259662 -14.3168715 -7.64983115 0 0 Z M-34.5078125 12.27734375 C-38.88646581 18.14264858 -40.79763625 24.00172461 -40.48828125 31.34375 C-39.20253609 38.70216844 -35.81138213 45.29095431 -29.85546875 49.875 C-27.9414798 51.17716675 -27.9414798 51.17716675 -25.98046875 52.25 C-25.3875 52.61996094 -24.79453125 52.98992187 -24.18359375 53.37109375 C-18.24222267 55.74132158 -10.05749112 55.11252909 -3.984375 53.41015625 C3.47226104 50.03934818 6.97504904 44.86191857 10.89453125 37.9375 C13.02036871 30.96947721 13.03927007 24.70259595 10.01953125 18 C5.99851547 10.85531377 -0.04239453 5.53724172 -7.98046875 3.25 C-18.25979069 1.98094791 -27.46909041 4.43990142 -34.5078125 12.27734375 Z " fill="#42392F" transform="translate(140.98046875,201.75)"/>
<path d="M0 0 C3.98862687 1.80687796 6.44397609 3.91212714 8.4375 7.8125 C8.7159375 8.8953125 8.7159375 8.8953125 9 10 C10.19625 9.938125 11.3925 9.87625 12.625 9.8125 C16.79034704 9.82721854 19.46642017 10.67104966 23 13 C26.3777799 16.65165394 27.83255122 19.25853268 28.3125 24.25 C27.86455659 29.62532091 26.007149 33.1753191 21.9375 36.875 C18.82591043 38.68172943 16.2408567 39.13115208 12.71557617 39.17700195 C11.85425583 39.18983719 10.99293549 39.20267242 10.10551453 39.21589661 C9.17737442 39.22328354 8.24923431 39.23067047 7.29296875 39.23828125 C6.33481766 39.246353 5.37666656 39.25442474 4.38948059 39.26274109 C2.36115321 39.27657193 0.33280264 39.28729856 -1.69555664 39.29516602 C-4.79032701 39.31237669 -7.88402837 39.35627169 -10.97851562 39.40039062 C-12.95051299 39.41051812 -14.92251942 39.41903405 -16.89453125 39.42578125 C-17.81659866 39.44328934 -18.73866608 39.46079742 -19.68867493 39.47883606 C-26.6492182 39.45545057 -30.10299444 37.51582061 -35.375 32.9375 C-37.90009929 28.37289743 -37.97487287 24.08534428 -37 19 C-34.65566515 14.74238542 -31.53780058 11.78633568 -27 10 C-24.640625 9.8046875 -24.640625 9.8046875 -22.25 9.875 C-21.45078125 9.89304688 -20.6515625 9.91109375 -19.828125 9.9296875 C-19.22484375 9.95289063 -18.6215625 9.97609375 -18 10 C-17.89558594 9.39542969 -17.79117188 8.79085937 -17.68359375 8.16796875 C-16.57842199 4.66299545 -13.85509589 3.15588873 -11 1 C-7.49741684 -0.75129158 -3.82180718 -0.55578568 0 0 Z M-13 11 C-14.33563611 14.16701423 -14.33563611 14.16701423 -15 17 C-15.73605469 16.86980469 -16.47210938 16.73960937 -17.23046875 16.60546875 C-23.50703026 15.61985338 -23.50703026 15.61985338 -29.1875 18 C-31.46228785 21.76516609 -31.77293829 23.67154558 -31 28 C-28.98962451 30.76906012 -27.39708023 32.68455791 -23.95947266 33.46072388 C-21.45942403 33.64566361 -19.00664174 33.66679193 -16.5 33.62890625 C-15.58669922 33.63131821 -14.67339844 33.63373016 -13.73242188 33.63621521 C-11.80594531 33.6352379 -9.87944027 33.62187193 -7.953125 33.59692383 C-5.00944326 33.56261008 -2.06876411 33.57627153 0.875 33.59570312 C2.75001274 33.58880439 4.62501775 33.57913177 6.5 33.56640625 C7.37720703 33.57136612 8.25441406 33.57632599 9.15820312 33.58143616 C13.22692579 33.5032737 15.4748311 33.31582133 19.02734375 31.17944336 C21.78569536 28.13194276 22.0714758 26.07412066 22 22 C20.23358828 19.19810554 18.96950178 17.48475089 16 16 C11.77853434 15.71856896 8.82708507 16.19901879 5 18 C4.95875 16.948125 4.9175 15.89625 4.875 14.8125 C4.29163127 10.83425048 4.29163127 10.83425048 1.3125 8.0625 C-5.00057999 4.13171435 -8.49633543 5.24531749 -13 11 Z " fill="#3F3730" transform="translate(202,161)"/>
<path d="M0 0 C3.95122602 2.01153324 6.70849352 4.18082253 9 8 C9 8.66 9 9.32 9 10 C9.58007812 9.95359375 10.16015625 9.9071875 10.7578125 9.859375 C16.39949528 9.59870319 19.59161489 10.11642265 24 14 C27.38570467 17.83713196 27.51291172 21.63401462 27.3515625 26.5625 C26.82577497 30.20796018 25.44465904 32.2910535 23 35 C18.82870915 38.02418587 15.08115055 39.1032927 9.98510742 39.17700195 C9.20717331 39.18983719 8.4292392 39.20267242 7.62773132 39.21589661 C6.79538467 39.22328354 5.96303802 39.23067047 5.10546875 39.23828125 C3.80709831 39.25038887 3.80709831 39.25038887 2.48249817 39.26274109 C0.65265895 39.27655225 -1.1772057 39.28728764 -3.00708008 39.29516602 C-4.87206609 39.3066893 -6.73701903 39.32714665 -8.60180664 39.35668945 C-11.30377499 39.39947918 -14.00476564 39.41554997 -16.70703125 39.42578125 C-17.53330521 39.44328934 -18.35957916 39.46079742 -19.21089172 39.47883606 C-26.11825515 39.45317159 -30.12432878 37.43326026 -35.4375 32.9375 C-37.86068855 28.38190553 -37.74102976 24.04641268 -37 19 C-34.97685519 14.95371039 -32.81145098 12.39243955 -29 10 C-26.5625 9.69921875 -26.5625 9.69921875 -24 9.6875 C-21.37098581 9.5707447 -21.37098581 9.5707447 -19 9 C-16.60869555 6.20485402 -16.60869555 6.20485402 -15 3 C-10.63912272 -0.84783289 -5.53618134 -0.80735978 0 0 Z M-13 10 C-14.26784124 13.13350717 -14.26784124 13.13350717 -15 16 C-16.22976563 15.93039062 -16.22976563 15.93039062 -17.484375 15.859375 C-18.56203125 15.82328125 -19.6396875 15.7871875 -20.75 15.75 C-21.81734375 15.70359375 -22.8846875 15.6571875 -23.984375 15.609375 C-27.08147375 15.75828193 -27.08147375 15.75828193 -29.3515625 17.76953125 C-31.31719798 20.42919443 -31.55755293 22.63265853 -31.7265625 25.90234375 C-30.5425951 29.32057222 -28.04590008 31.24767599 -25 33 C-21.93353099 33.68646199 -18.97183271 33.65574432 -15.83984375 33.59375 C-14.53860313 33.59381042 -14.53860313 33.59381042 -13.21107483 33.59387207 C-11.38470173 33.58853063 -9.55832816 33.57100685 -7.73217773 33.54199219 C-4.94247999 33.50007483 -2.15519459 33.50093281 0.63476562 33.5078125 C2.41407921 33.49732092 4.19338041 33.48438299 5.97265625 33.46875 C7.21813988 33.46844788 7.21813988 33.46844788 8.48878479 33.46813965 C13.13880848 33.37341189 16.20884408 32.98338513 20 30 C22.06528536 27.04959234 22.6066975 24.55351395 22 21 C20.36305491 17.94139173 20.36305491 17.94139173 17 16 C12.96558412 15.58029484 9.04063742 15.7100021 5 16 C4.7525 15.0925 4.505 14.185 4.25 13.25 C2.89649254 9.73088059 2.10640228 8.12543314 -1 6 C-6.20584989 4.95026072 -9.86356781 5.41598372 -13 10 Z " fill="#403831" transform="translate(396,250)"/>
<path d="M0 0 C4.90050858 1.81500318 7.561618 5.84242699 10.375 10.0625 C11.48014008 13.48843425 10.31660488 16.33684113 8.80761719 19.49755859 C8.30907227 20.37234863 7.81052734 21.24713867 7.296875 22.1484375 C6.73452148 23.14359375 6.17216797 24.13875 5.59277344 25.1640625 C4.9846582 26.22367188 4.37654297 27.28328125 3.75 28.375 C3.12899414 29.468125 2.50798828 30.56125 1.86816406 31.6875 C0.56939007 33.97365756 -0.73175955 36.25846699 -2.03515625 38.54199219 C-3.95847489 41.92691828 -5.85820631 45.32393357 -7.75 48.7265625 C-8.63316895 50.30945068 -8.63316895 50.30945068 -9.53417969 51.92431641 C-10.66320916 53.94815153 -11.78895351 55.97382341 -12.91113281 58.00146484 C-13.41999023 58.90848145 -13.92884766 59.81549805 -14.453125 60.75 C-14.89817383 61.54921875 -15.34322266 62.3484375 -15.80175781 63.171875 C-17 65 -17 65 -19 66 C-20.84763567 48.58792462 -21.55371784 35.10153152 -11.41943359 20.14648438 C-9.03324729 16.53806505 -7.01569446 12.72843103 -4.9375 8.9375 C-4.19908335 7.63271435 -3.45841923 6.32919637 -2.71484375 5.02734375 C-1.77616417 3.37022149 -0.85172455 1.7034491 0 0 Z " fill="#DBC8AB" transform="translate(427,137)"/>
<path d="M0 0 C4.9710149 2.53240382 8.49430567 5.98861134 11 11 C12.35125948 19.58648427 9.2237192 25.68391495 5 33 C0.81238337 31.71939982 -2.82056379 30.13653086 -6.6171875 27.9609375 C-7.63554687 27.38085938 -8.65390625 26.80078125 -9.703125 26.203125 C-10.74984375 25.59984375 -11.7965625 24.9965625 -12.875 24.375 C-13.94492187 23.76398437 -15.01484375 23.15296875 -16.1171875 22.5234375 C-18.74755755 21.0203689 -21.37500926 19.51243714 -24 18 C-23.22397139 16.39200091 -22.44146652 14.78712625 -21.65625 13.18359375 C-21.22119141 12.28954834 -20.78613281 11.39550293 -20.33789062 10.47436523 C-15.92567098 2.31417434 -9.05627352 -1.44004349 0 0 Z " fill="#D4DC56" transform="translate(455,36)"/>
<path d="M0 0 C0.66 0 1.32 0 2 0 C2.37286133 0.66008057 2.74572266 1.32016113 3.12988281 2.00024414 C4.83641134 5.02109624 6.54320357 8.04179926 8.25 11.0625 C8.83652344 12.10083984 9.42304688 13.13917969 10.02734375 14.20898438 C10.60097656 15.22412109 11.17460937 16.23925781 11.765625 17.28515625 C12.32193604 18.27169189 12.87824707 19.25822754 13.45141602 20.2746582 C14.75328768 22.56581276 16.0811288 24.83860668 17.41796875 27.109375 C19 30 19 30 19.0625 32.1875 C16.9356046 35.81573333 13.9140643 37.6953119 10 39 C5.34746551 39.75123493 1.51952695 39.8498672 -2.66796875 37.5078125 C-4.37465549 36.26329963 -6.06166149 34.99128953 -7.7265625 33.69140625 C-10.34399193 31.74407473 -12.83143197 30.75045032 -16 30 C-14.55454275 26.1382097 -12.76719216 22.63274974 -10.7421875 19.04296875 C-10.11699219 17.93115234 -9.49179687 16.81933594 -8.84765625 15.67382812 C-8.1901709 14.51168099 -7.53261797 13.34957209 -6.875 12.1875 C-6.20935359 11.00601811 -5.54398616 9.824379 -4.87890625 8.64257812 C-3.25534066 5.76016095 -1.62894985 2.87937669 0 0 Z " fill="#88C3D9" transform="translate(341,291)"/>
<path d="M0 0 C4.2762426 0.02732423 7.12681442 0.9818858 10.8125 3.25 C9.48392288 7.61718785 7.77424742 11.41007895 5.546875 15.390625 C5.07305389 16.24125519 5.07305389 16.24125519 4.58966064 17.10906982 C3.92300309 18.30370474 3.25391558 19.49698657 2.58251953 20.68896484 C1.57455759 22.47859186 0.5737178 24.27204165 -0.42578125 26.06640625 C-4.2253996 32.86847088 -8.12845953 39.59927172 -12.1875 46.25 C-12.703125 45.569375 -13.21875 44.88875 -13.75 44.1875 C-16.68821413 40.64657527 -19.89537019 37.45890181 -23.1875 34.25 C-6.75018397 0.13568209 -6.75018397 0.13568209 0 0 Z " fill="#85776D" transform="translate(454.1875,97.75)"/>
<path d="M0 0 C5.07634826 1.7989503 9.63713611 4.49026455 14.3125 7.125 C15.14845703 7.59292969 15.98441406 8.06085938 16.84570312 8.54296875 C18.89866233 9.6926259 20.95002202 10.84503802 23 12 C23 12.99 23 13.98 23 15 C21.22753906 16.62573242 21.22753906 16.62573242 18.765625 18.35546875 C17.88132812 18.97744141 16.99703125 19.59941406 16.0859375 20.24023438 C15.15007812 20.88283203 14.21421875 21.52542969 13.25 22.1875 C12.32960938 22.84169922 11.40921875 23.49589844 10.4609375 24.16992188 C3.51046011 29 3.51046011 29 -1 29 C-1.13500337 19.26475712 -0.7609241 9.70178229 0 0 Z " fill="#85776D" transform="translate(289,311)"/>
</svg>
