<?xml version="1.0" encoding="UTF-8"?>
<svg version="1.1" xmlns="http://www.w3.org/2000/svg" width="512" height="512">
<path d="M0 0 C1.00811234 -0.00852997 2.01622467 -0.01705994 3.05488586 -0.02584839 C4.72016327 -0.02448883 4.72016327 -0.02448883 6.41908264 -0.02310181 C8.1679351 -0.03317764 8.1679351 -0.03317764 9.95211792 -0.04345703 C13.82274079 -0.0625221 17.69319108 -0.06636544 21.56385803 -0.06851196 C23.56728407 -0.07331177 25.57071015 -0.07811467 27.57413489 -0.08343279 C33.87597927 -0.09972763 40.17776649 -0.10460073 46.47962952 -0.10317993 C52.98491242 -0.10197803 59.48986379 -0.12308664 65.99506277 -0.15466726 C71.57643605 -0.18079953 77.15770084 -0.19154853 82.73913485 -0.19026911 C86.07437394 -0.18975859 89.40925136 -0.19732006 92.74444389 -0.21662521 C96.46309607 -0.23613492 100.1808865 -0.23050575 103.89955139 -0.21841431 C105.0077121 -0.22965332 106.1158728 -0.24089233 107.25761414 -0.25247192 C108.77401237 -0.23988846 108.77401237 -0.23988846 110.32104492 -0.22705078 C111.20060317 -0.22814032 112.08016142 -0.22922985 112.98637295 -0.2303524 C115.22401428 0.26742554 115.22401428 0.26742554 116.96044731 2.1508913 C118.34436255 4.46901456 119.3963002 6.75687086 120.40052795 9.26376343 C120.8007164 10.25481583 121.20090485 11.24586823 121.61322021 12.26695251 C122.03521194 13.33058517 122.45720367 14.39421783 122.89198303 15.49008179 C123.55149712 17.13562294 123.55149712 17.13562294 124.22433472 18.81440735 C125.15091305 21.13066264 126.07448282 23.44812341 126.99525452 25.76669312 C128.4087996 29.32309555 129.83425399 32.8745544 131.26112366 36.42562866 C132.1596262 38.67599392 133.05743647 40.92663574 133.95448303 43.17758179 C134.38254745 44.24323868 134.81061188 45.30889557 135.25164795 46.40684509 C135.64237991 47.39474533 136.03311188 48.38264557 136.4356842 49.40048218 C136.95505806 50.70475914 136.95505806 50.70475914 137.48492432 52.03538513 C138.22401428 54.26742554 138.22401428 54.26742554 138.22401428 57.26742554 C156.37401428 57.26742554 174.52401428 57.26742554 193.22401428 57.26742554 C193.10544797 46.25792536 193.10544797 46.25792536 192.95375061 35.24887085 C192.94498538 33.86443781 192.93734152 32.47999701 192.93104553 31.09555054 C192.90802368 30.0250647 192.90802368 30.0250647 192.88453674 28.93295288 C192.88297828 25.96771791 192.98333334 23.7176942 194.3952179 21.07632446 C196.89063013 18.60806252 198.35111692 18.76077648 201.82533264 18.74984741 C202.9733989 18.73723877 204.12146515 18.72463013 205.30432129 18.7116394 C206.54496841 18.71973633 207.78561554 18.72783325 209.06385803 18.73617554 C210.97431664 18.73043518 210.97431664 18.73043518 212.92337036 18.72457886 C215.61975738 18.72185397 218.31469871 18.72724673 221.01087952 18.74594116 C224.46239765 18.76870937 227.91267019 18.75562423 231.36414242 18.73165131 C234.65992523 18.71369606 237.95555894 18.72628008 241.25135803 18.73617554 C242.48998093 18.72807861 243.72860382 18.71998169 245.00476074 18.7116394 C246.15597916 18.72424805 247.30719757 18.73685669 248.49330139 18.74984741 C249.5057341 18.75302979 250.51816681 18.75621216 251.5612793 18.75949097 C254.95851434 19.40753635 256.14765213 20.54350791 258.22401428 23.26742554 C258.57341357 26.01828745 258.69286608 28.35578114 258.61463928 31.09555054 C258.60897949 31.84455627 258.6033197 32.59356201 258.5974884 33.36526489 C258.57515486 35.74997753 258.52496814 38.13316962 258.47401428 40.51742554 C258.45394519 42.13719545 258.43569513 43.756989 258.41932678 45.37680054 C258.37530052 49.3409252 258.30629726 53.30391786 258.22401428 57.26742554 C259.085672 57.25171509 259.94732971 57.23600464 260.83509827 57.21981812 C264.0723798 57.16828774 267.30945029 57.13088159 270.54701233 57.10263062 C271.94063757 57.08766616 273.33421672 57.06728703 274.72767639 57.04110718 C285.73730214 56.83963932 294.60228355 57.46851378 303.43104553 64.51742554 C307.70386565 68.68784692 311.07199193 74.00212296 311.35396612 80.05867344 C311.35629676 81.2034256 311.3586274 82.34817775 311.36102867 83.52761936 C311.3636805 84.16797856 311.36633232 84.80833775 311.36906451 85.46810177 C311.37676548 87.62848366 311.37731699 89.78880878 311.37791443 91.94920349 C311.38192854 93.50796618 311.38636667 95.06672783 311.39119399 96.62548822 C311.40317127 100.92059976 311.40881062 105.21570006 311.41337514 109.51082504 C311.41932692 114.13882618 311.43093788 118.76681385 311.44166565 123.39480591 C311.46620028 134.57797517 311.48081882 145.7611489 311.49372572 156.9443368 C311.49743702 160.1025211 311.50141031 163.26070495 311.50547838 166.41888881 C311.53071541 186.02661785 311.55277072 205.63434757 311.56520653 225.24208927 C311.56813628 229.78495855 311.57109793 234.3278278 311.57411194 238.87069702 C311.57485799 239.99982041 311.57560404 241.1289438 311.5763727 242.29228305 C311.58902564 260.58242084 311.62224717 278.8724614 311.66391377 297.16255374 C311.70633282 315.93672368 311.72990158 334.71084385 311.73512709 353.48506159 C311.73854135 364.02762941 311.75029826 374.57004532 311.78322983 385.11256599 C311.81123112 394.09152566 311.82222931 403.07030229 311.81103437 412.04930223 C311.80584784 416.62983595 311.80873405 421.20998636 311.83349991 425.7904644 C311.85600141 429.98722595 311.85524579 434.18332905 311.83629604 438.38010221 C311.83349726 439.89499433 311.83908785 441.40993118 311.85410897 442.92475141 C311.94531777 452.72530069 311.15076762 460.8985694 304.26349866 468.40386826 C297.81411323 474.67590419 290.69705447 476.72865868 281.92460728 476.64774227 C281.12453726 476.65240219 280.32446724 476.65706211 279.50015268 476.66186324 C276.82644053 476.67378848 274.15323886 476.66442743 271.47952271 476.65510559 C269.54037319 476.65927958 267.60122611 476.66475746 265.66208357 476.6714254 C260.3387455 476.68589002 255.01556213 476.68163207 249.69221556 476.67425859 C243.9491026 476.66953179 238.20602333 476.68203243 232.46292114 476.692276 C221.21398465 476.70947863 209.96510398 476.710301 198.71615774 476.7050631 C189.574066 476.70102305 180.43199077 476.70246299 171.28989983 476.70781136 C169.98916247 476.70855978 168.68842511 476.7093082 167.34827147 476.7100793 C164.70590532 476.71161076 162.06353917 476.71314911 159.42117303 476.71469427 C141.67814731 476.72452403 123.93512869 476.72868569 106.19210148 476.72106838 C105.49841225 476.72077121 104.80472302 476.72047404 104.09001291 476.72016786 C98.45688355 476.71771896 92.82375426 476.71510735 87.19062498 476.71248372 C65.21678107 476.70238082 43.24301356 476.71073804 21.2691803 476.73397827 C-3.42357858 476.76005193 -28.11628971 476.77284907 -52.80906302 476.76579052 C-65.881684 476.76229517 -78.95424222 476.76455128 -92.02685356 476.78204155 C-103.15473233 476.79674514 -114.28250415 476.797423 -125.41038077 476.77997064 C-131.08844047 476.77144332 -136.76630897 476.76935349 -142.44435883 476.78462219 C-147.64247403 476.79842735 -152.84023347 476.79375972 -158.03832788 476.77438296 C-159.91845073 476.77060985 -161.7986018 476.77358251 -163.67869961 476.78399461 C-181.8570568 476.87750628 -181.8570568 476.87750628 -188.77598572 472.26742554 C-189.7135438 471.65617054 -189.7135438 471.65617054 -190.67004246 471.03256696 C-195.82803528 467.16911938 -198.71404266 462.32705264 -200.77598572 456.26742554 C-201.47820149 451.08702377 -201.45291351 445.95793398 -201.41090393 440.74386597 C-201.41667234 439.1790538 -201.42461828 437.61424842 -201.43454015 436.04945707 C-201.45533819 431.76997403 -201.44513065 427.49105126 -201.42960906 423.21156669 C-201.41827049 418.5884299 -201.43577067 413.96538773 -201.44950867 409.3422699 C-201.47171888 400.29369129 -201.46694976 391.24532028 -201.45244546 382.19673359 C-201.4411445 374.84149101 -201.43962604 367.48630652 -201.44506454 360.13105774 C-201.44583071 359.08343796 -201.44659688 358.03581818 -201.44738626 356.95645234 C-201.44898492 354.82810198 -201.45060598 352.69975163 -201.45224921 350.5714013 C-201.46650022 330.62305204 -201.45012414 310.67481774 -201.42324738 290.72648734 C-201.40090921 273.61719173 -201.40478952 256.50806575 -201.42784119 239.39877319 C-201.45461061 219.52085277 -201.46512699 199.64303307 -201.44977987 179.76509714 C-201.44818716 177.64466255 -201.4466153 175.52422795 -201.44506454 173.40379333 C-201.44429317 172.36055254 -201.44352179 171.31731175 -201.44272704 170.2424576 C-201.43841347 162.89772318 -201.4456892 155.55305275 -201.45746231 148.20832825 C-201.47149852 139.25512293 -201.46766374 130.30213674 -201.44105859 121.34895647 C-201.42793554 116.78257463 -201.4227422 112.21655789 -201.43930435 107.65017891 C-201.45424835 103.4666101 -201.44594295 99.28374338 -201.41941659 95.10023791 C-201.4138504 93.59028169 -201.41663017 92.08026567 -201.42879553 90.5703482 C-201.49988401 81.01073591 -200.82395967 72.66897507 -194.00258696 65.36981249 C-187.04358147 58.93025132 -180.01760875 57.13022714 -170.72520447 57.16976929 C-170.06639786 57.17118423 -169.40759125 57.17259918 -168.7288208 57.17405701 C-166.6403281 57.17962054 -164.5519456 57.19216607 -162.46348572 57.20492554 C-161.04096123 57.20994526 -159.61843505 57.21450734 -158.19590759 57.21859741 C-154.72256495 57.22957796 -151.24928611 57.24681718 -147.77598572 57.26742554 C-147.79693298 56.25841187 -147.81788025 55.24939819 -147.83946228 54.20980835 C-147.91195356 50.46027867 -147.95781792 46.71081072 -147.99571228 42.96078491 C-148.01580715 41.3389341 -148.04308826 39.71715556 -148.07774353 38.09555054 C-148.12635842 35.76203573 -148.1489746 33.42947996 -148.16661072 31.09555054 C-148.18725586 30.37248718 -148.207901 29.64942383 -148.22917175 28.90444946 C-148.23061644 25.65091101 -148.10636347 23.70083826 -146.10577393 21.07632446 C-143.20334751 18.82281661 -141.69094449 18.76130683 -138.04527283 18.74984741 C-136.31844521 18.73093445 -136.31844521 18.73093445 -134.55673218 18.7116394 C-133.31810928 18.71973633 -132.07948639 18.72783325 -130.80332947 18.73617554 C-128.89143578 18.73043518 -128.89143578 18.73043518 -126.94091797 18.72457886 C-124.24630882 18.72185646 -121.55315109 18.72722663 -118.85874939 18.74594116 C-115.4060418 18.76875484 -111.95457628 18.75559093 -108.50191402 18.73165131 C-105.20650786 18.71372253 -101.91125183 18.72627378 -98.61582947 18.73617554 C-97.37518234 18.72807861 -96.13453522 18.71998169 -94.85629272 18.7116394 C-93.13419334 18.73055237 -93.13419334 18.73055237 -91.37730408 18.74984741 C-90.36566696 18.75302979 -89.35402985 18.75621216 -88.31173706 18.75949097 C-85.77598572 19.26742554 -85.77598572 19.26742554 -83.94718933 21.07632446 C-82.20794175 24.33012866 -82.40571401 27.50106467 -82.48301697 31.09555054 C-82.48603821 31.75990112 -82.48905945 32.42425171 -82.49217224 33.10873413 C-82.50780875 35.57845711 -82.54969287 38.04795774 -82.58848572 40.51742554 C-82.65036072 46.04492554 -82.71223572 51.57242554 -82.77598572 57.26742554 C-64.62598572 57.26742554 -46.47598572 57.26742554 -27.77598572 57.26742554 C-27.44598572 55.61742554 -27.11598572 53.96742554 -26.77598572 52.26742554 C-26.17583381 50.5447287 -25.53342172 48.83639807 -24.85826111 47.14169312 C-24.46437698 46.14748856 -24.07049286 45.153284 -23.66467285 44.12895203 C-23.23863266 43.0673436 -22.81259247 42.00573517 -22.37364197 40.91195679 C-21.93587936 39.81397263 -21.49811676 38.71598846 -21.04708862 37.58473206 C-20.12204005 35.26822325 -19.19478729 32.95259358 -18.26548767 30.63778687 C-16.84070807 27.0854664 -15.42610076 23.52921113 -14.01231384 19.97250366 C-13.11253448 17.72291012 -12.21216409 15.47355286 -11.31114197 13.22445679 C-10.88712601 12.15677567 -10.46311005 11.08909454 -10.02624512 9.98905945 C-9.43069069 8.51193733 -9.43069069 8.51193733 -8.82310486 7.00497437 C-8.30134422 5.70189079 -8.30134422 5.70189079 -7.76904297 4.3724823 C-5.85577291 0.31678252 -4.23724463 0.01615358 0 0 Z " fill="#186584" transform="translate(200.77598571777344,17.732574462890625)"/>
<path d="M0 0 C1.84996582 0.00737183 1.84996582 0.00737183 3.73730469 0.01489258 C33.98326261 0.40159346 62.62853882 11.36130287 85.375 31.3125 C86.20386719 31.99699219 87.03273438 32.68148437 87.88671875 33.38671875 C110.93117747 52.95822922 125.93252028 83.48664058 129.375 113.3125 C129.66001136 118.23305672 129.70849684 123.13451051 129.6875 128.0625 C129.68634186 128.72069733 129.68518372 129.37889465 129.68399048 130.05703735 C129.64884266 140.16901877 129.01012829 149.54192145 126.375 159.3125 C126.16641357 160.13927246 125.95782715 160.96604492 125.74291992 161.81787109 C116.85949192 196.13979552 94.839237 222.89718318 65.0625 241.3671875 C57.51053261 245.79963121 49.58953203 248.86705865 41.3125 251.6875 C40.34401123 252.02144775 39.37552246 252.35539551 38.37768555 252.69946289 C14.55690392 260.46003436 -13.82680976 259.90540085 -37.625 252.3125 C-38.31400391 252.09319824 -39.00300781 251.87389648 -39.71289062 251.64794922 C-55.05501466 246.54283068 -69.64893591 238.11782706 -81.625 227.3125 C-82.45 226.61769531 -83.275 225.92289063 -84.125 225.20703125 C-106.51985837 205.99644181 -120.65961298 179.21549909 -125.625 150.3125 C-125.81449219 149.27609375 -126.00398437 148.2396875 -126.19921875 147.171875 C-128.8141647 123.46942914 -126.67978336 99.13469465 -116.625 77.3125 C-116.35880859 76.70954102 -116.09261719 76.10658203 -115.81835938 75.48535156 C-110.8434822 64.29468542 -104.37465997 54.76546538 -96.625 45.3125 C-95.96226074 44.49289795 -95.96226074 44.49289795 -95.28613281 43.65673828 C-72.40317771 15.74792406 -35.75195728 -0.16891845 0 0 Z " fill="#176583" transform="translate(254.625,155.6875)"/>
<path d="M0 0 C1.28875534 0.00555908 1.28875534 0.00555908 2.60354614 0.01123047 C15.38644615 0.08969055 27.45588665 0.6670052 39.75 4.4375 C41.1723999 4.85612305 41.1723999 4.85612305 42.62353516 5.28320312 C55.6029135 9.15543571 67.98426081 13.69588425 79.75 20.4375 C80.7385498 20.99775879 80.7385498 20.99775879 81.74707031 21.56933594 C92.03685901 27.47944413 101.07405561 34.35802679 109.75 42.4375 C110.28109375 42.93008301 110.8121875 43.42266602 111.359375 43.93017578 C138.480361 69.36449155 159.30448273 107.90851923 160.97436523 145.50317383 C161.11629159 150.08538141 161.13754231 154.66590115 161.125 159.25 C161.1237915 160.06664124 161.12258301 160.88328247 161.12133789 161.72467041 C160.98267692 196.33495717 151.0571043 231.26506019 128.75 258.4375 C128.10289062 259.283125 127.45578125 260.12875 126.7890625 261 C109.57311424 283.01593383 87.58977812 299.79759136 61.75 310.4375 C60.07357422 311.15873047 60.07357422 311.15873047 58.36328125 311.89453125 C21.20911989 327.25822626 -22.48596661 326.15514194 -59.48974609 311.02709961 C-78.65902658 302.76398158 -95.11509016 291.77962885 -110.25 277.4375 C-111.14460938 276.59574219 -112.03921875 275.75398438 -112.9609375 274.88671875 C-142.16351344 246.62484204 -158.95010723 206.50341884 -159.63818359 166.04266357 C-159.66446937 163.6533961 -159.67820947 161.26438991 -159.6875 158.875 C-159.69376404 158.11890442 -159.70002808 157.36280884 -159.70648193 156.58380127 C-159.7612933 146.13584543 -158.67659948 136.63704799 -156.25 126.4375 C-156.05672119 125.55940674 -155.86344238 124.68131348 -155.66430664 123.77661133 C-152.9529175 111.63585383 -148.72716345 100.5849146 -143.25 89.4375 C-142.43402344 87.74560547 -142.43402344 87.74560547 -141.6015625 86.01953125 C-134.0512485 71.19513425 -123.8916439 58.23495572 -112.25 46.4375 C-111.71342773 45.87828857 -111.17685547 45.31907715 -110.62402344 44.74291992 C-106.41094808 40.41095602 -101.94475197 36.63900952 -97.125 33 C-96.37710205 32.43506836 -95.6292041 31.87013672 -94.85864258 31.28808594 C-79.64745583 19.9280589 -63.19067591 11.5937728 -45 6.0625 C-44.25806396 5.8361084 -43.51612793 5.6097168 -42.75170898 5.37646484 C-28.45584356 1.27873751 -14.7940959 -0.11471487 0 0 Z M-82.25 62.4375 C-83.24515625 63.25605469 -84.2403125 64.07460937 -85.265625 64.91796875 C-106.15743104 82.99320931 -119.25228978 107.72042721 -125.25 134.4375 C-125.42877686 135.22423096 -125.60755371 136.01096191 -125.79174805 136.8215332 C-127.39944642 144.59792368 -127.59603757 152.20162331 -127.5625 160.125 C-127.56134186 160.78569489 -127.56018372 161.44638977 -127.55899048 162.12710571 C-127.52388196 172.25844294 -126.89013511 181.64835706 -124.25 191.4375 C-124.04141357 192.26427246 -123.83282715 193.09104492 -123.61791992 193.94287109 C-114.9559724 227.40908571 -93.29009101 255.34222896 -63.61376953 272.82080078 C-35.97681991 288.70826409 -1.66482736 295.30213888 29.66113281 287.02392578 C30.35045898 286.83040527 31.03978516 286.63688477 31.75 286.4375 C32.56049805 286.21175293 33.37099609 285.98600586 34.20605469 285.75341797 C52.38772567 280.51766385 68.34751523 272.74826113 82.75 260.4375 C83.52102051 259.78394531 83.52102051 259.78394531 84.30761719 259.1171875 C109.59520417 237.45568531 124.51789442 208.29327201 128.75 175.4375 C130.01949807 152.26259382 128.14509552 130.81646593 118.75 109.4375 C118.46672852 108.78330078 118.18345703 108.12910156 117.89160156 107.45507812 C104.55790613 77.25167964 78.58614954 52.79673753 47.88574219 40.703125 C2.98026416 24.02857927 -45.60271725 31.69918206 -82.25 62.4375 Z " fill="#E3E9EB" transform="translate(255.25,123.5625)"/>
<path d="M0 0 C20.06332462 -0.21089839 40.12642214 -0.36926888 60.19062805 -0.46630955 C69.50832327 -0.51257922 78.82532699 -0.57558056 88.14257812 -0.67895508 C96.27020484 -0.76908723 104.39733042 -0.82682403 112.52544308 -0.84679645 C116.82351216 -0.85845905 121.12014856 -0.88556712 125.41775513 -0.95157051 C158.8219242 -1.44513091 158.8219242 -1.44513091 172 9 C175.09806737 10.5982875 178.25250094 11.9250838 181.5 13.1875 C182.72432739 13.66920654 182.72432739 13.66920654 183.97338867 14.16064453 C194.37384528 18.09510807 205.13427332 20.70780585 216 23 C216.69367676 23.14695312 217.38735352 23.29390625 218.10205078 23.4453125 C249.28952022 29.67121561 282.75999002 23.23294515 311.875 11.625 C312.80034546 11.25991333 312.80034546 11.25991333 313.74438477 10.88745117 C317.01447146 9.5152169 319.95434404 8.02995723 322.93118477 6.0766983 C331.92106569 0.3008481 339.26453696 -1.13109313 349.90966797 -0.90820312 C351.44865805 -0.90594003 352.98765673 -0.90722586 354.52664185 -0.91174316 C358.65869195 -0.9140157 362.78884098 -0.86736324 366.92045355 -0.8111515 C371.25514636 -0.76075211 375.58989459 -0.75641137 379.92483521 -0.74694824 C388.11295581 -0.72219616 396.30021025 -0.65670275 404.4879514 -0.57615232 C413.81808441 -0.48637809 423.14826128 -0.44265851 432.47871947 -0.40258884 C451.65296861 -0.31922452 470.82641439 -0.17873429 490 0 C490.12422629 5.55004849 490.21463317 11.09927582 490.2746582 16.65039062 C490.29969777 18.53595083 490.33373999 20.42141498 490.37719727 22.30664062 C490.43831786 25.02758564 490.46631493 27.74724027 490.48828125 30.46875 C490.51408768 31.30241089 490.5398941 32.13607178 490.56648254 32.99499512 C490.56938285 39.14055706 488.9286446 43.25029556 485 48 C479.70866671 52.0007642 474.73405175 52.14757461 468.28369522 52.13701439 C467.10525923 52.14099213 467.10525923 52.14099213 465.90301645 52.14505023 C463.25452586 52.15274667 460.6060816 52.15330253 457.95758057 52.15390015 C456.04592161 52.15791452 454.1342635 52.1623527 452.22260642 52.1671797 C446.95675909 52.17915349 441.69092093 52.1847955 436.42506266 52.18936086 C430.75075586 52.19531375 425.07646004 52.20692424 419.40216064 52.21765137 C405.69362684 52.24218033 391.9850894 52.25680211 378.2765404 52.26971143 C374.40612205 52.27342264 370.53570406 52.27739592 366.66528606 52.2814641 C342.64076368 52.30669701 318.61624158 52.3287705 294.59170914 52.34119225 C289.02630867 52.34411357 283.46090823 52.34708109 277.89550781 52.35009766 C276.85836372 52.35065402 276.85836372 52.35065402 275.80026723 52.35122162 C253.37803965 52.36337953 230.95589053 52.39432849 208.5336998 52.43601918 C184.82956675 52.4800131 161.1254947 52.50572539 137.42131782 52.51111281 C124.49898701 52.51452997 111.57678003 52.52632136 98.65448761 52.55921555 C87.6520113 52.58717665 76.64968419 52.5982326 65.6471751 52.58702008 C60.03199812 52.58182365 54.41713378 52.58478449 48.80200195 52.60948563 C43.66232521 52.63190691 38.52318699 52.63129356 33.38350126 52.61228175 C31.52345652 52.60947178 29.66337581 52.6151354 27.8033891 52.63009469 C11.00841774 52.75692042 11.00841774 52.75692042 5.33959556 48.38711131 C0.83450477 43.72222396 -0.45561527 39.54314412 -0.45318604 33.10829163 C-0.43254089 32.26946945 -0.41189575 31.43064728 -0.390625 30.56640625 C-0.38496521 29.68846909 -0.37930542 28.81053192 -0.37347412 27.9059906 C-0.35122853 25.1242532 -0.30105591 22.34384268 -0.25 19.5625 C-0.22991965 17.66733642 -0.21167158 15.77215248 -0.1953125 13.87695312 C-0.1514027 9.25079716 -0.08245882 4.62562291 0 0 Z " fill="#BBC8CE" transform="translate(11,431)"/>
<path d="M0 0 C0.79697275 -0.00696761 1.59394549 -0.01393521 2.41506892 -0.02111396 C5.09057882 -0.03838453 7.76464563 -0.01997924 10.44013214 -0.0017767 C12.37557238 -0.0068209 14.31100796 -0.01404875 16.24643278 -0.02327484 C21.56878759 -0.04224182 26.8906843 -0.02993816 32.21302772 -0.0125519 C37.95135686 0.00079528 43.6896178 -0.01460548 49.42794037 -0.02637386 C60.67084113 -0.04477457 71.91356835 -0.03622186 83.15646374 -0.01828564 C92.29196152 -0.00427281 101.42741212 -0.00036401 110.56291962 -0.00372791 C111.86201876 -0.00420536 113.16111791 -0.0046828 114.49958369 -0.00517471 C117.13849311 -0.00620101 119.77740252 -0.00725637 122.41631192 -0.00834047 C146.46836465 -0.01717155 170.52032762 0.00149997 194.57235866 0.03218976 C216.5324258 0.06005077 238.49238222 0.06501418 260.45246124 0.04999638 C266.07563776 0.04617399 271.69881428 0.04237921 277.32199097 0.03882599 C278.01425462 0.03838817 278.70651827 0.03795036 279.41975961 0.03749928 C297.76549739 0.02626141 316.11122595 0.03367975 334.45696115 0.04670674 C337.08628495 0.04855117 339.71560875 0.05038589 342.34493256 0.05221081 C343.63868607 0.0531229 344.93243959 0.05403499 346.26539776 0.05497472 C355.3922915 0.06058604 364.51915727 0.05726738 373.6460495 0.05066586 C384.76529041 0.04294273 395.88441222 0.04964849 407.00362909 0.0748409 C412.6792704 0.08735956 418.35472609 0.09345372 424.03037453 0.08229923 C429.22287446 0.0722868 434.41500353 0.08065255 439.60745817 0.10388041 C441.48892812 0.10905614 443.37043107 0.10744845 445.25188679 0.09848576 C447.80432239 0.0873354 450.35549425 0.10067608 452.90785217 0.12025452 C453.64281302 0.1111757 454.37777386 0.10209688 455.13500625 0.09274295 C460.19947852 0.16876194 463.04038166 1.46727128 466.95392609 4.62641239 C471.70020482 10.01408014 472.09462312 13.32510774 472.05158234 20.35297489 C472.04945992 21.64719868 472.04945992 21.64719868 472.04729462 22.9675684 C472.04168796 25.7288847 472.02913436 28.49012052 472.01642609 31.25141239 C472.01141194 33.12120289 472.00684889 34.99099465 472.00275421 36.86078739 C471.99171637 41.44936016 471.97444728 46.03787262 471.95392609 50.62641239 C451.64710207 50.83736172 431.34050271 50.99570599 411.03280735 51.09272194 C401.60192381 51.13898091 392.17172402 51.20196147 382.7412796 51.30536747 C374.51439384 51.39553271 366.28800361 51.45324417 358.06063741 51.47320884 C353.71056449 51.4848659 349.3619082 51.5119379 345.01229286 51.5779829 C311.48395867 52.06771474 311.48395867 52.06771474 296.95392609 41.62641239 C293.23019331 39.94013085 289.44550339 38.57128164 285.57892609 37.25141239 C284.25828156 36.77768192 284.25828156 36.77768192 282.91095734 36.29438114 C264.60772161 29.83599196 247.12071857 27.34230046 227.82892609 27.31391239 C227.06710022 27.31041782 226.30527435 27.30692326 225.52036285 27.30332279 C211.12505369 27.26676635 197.0623847 28.30276229 183.14142609 32.25141239 C182.21982697 32.50866093 181.29822784 32.76590946 180.34870148 33.03095341 C170.07020139 36.0118506 159.3247403 39.62093929 150.21763325 45.34678078 C141.41157255 50.73252875 134.12620283 51.60417211 123.97418976 51.42109013 C122.4156427 51.41911056 120.85708914 51.42023377 119.29854584 51.42418766 C115.10877958 51.42617854 110.92044474 51.38531495 106.73100829 51.33616996 C102.33756065 51.29211309 97.94407239 51.28827558 93.55043793 51.2799921 C85.24905504 51.25832192 76.94832517 51.20099766 68.64722854 51.13054568 C59.18891672 51.05203202 49.73057207 51.01374812 40.27201498 50.97867763 C20.83228318 50.90570619 1.39315732 50.78275245 -18.04607391 50.62641239 C-18.14524117 45.18213002 -18.217683 39.73837791 -18.26580048 34.29340458 C-18.2858673 32.44272543 -18.31312737 30.5921093 -18.34783173 28.74164677 C-18.39656824 26.07547262 -18.41909179 23.41013953 -18.43669891 20.74359989 C-18.45734406 19.92149021 -18.4779892 19.09938053 -18.49925995 18.25235844 C-18.50134271 12.87279987 -17.66655569 9.85080918 -14.04607391 5.62641239 C-9.50543546 1.10597909 -6.46648241 -0.10550763 0 0 Z " fill="#BCC9CF" transform="translate(29.04607391357422,86.3735876083374)"/>
<path d="M0 0 C46.2 0 92.4 0 140 0 C140 20.46 140 40.92 140 62 C112.6875 62.3125 112.6875 62.3125 104.0690918 62.38793945 C101.82078369 62.4202171 99.5724909 62.45358906 97.32421875 62.48828125 C96.15201782 62.49452515 94.97981689 62.50076904 93.77209473 62.50720215 C92.65580688 62.52714233 91.53951904 62.54708252 90.3894043 62.56762695 C89.41899704 62.57873001 88.44858978 62.58983307 87.44877625 62.60127258 C84.48392499 63.08403106 83.78328327 63.6173417 82 66 C81.54970902 68.64742369 81.54970902 68.64742369 81.6257782 71.69348145 C81.61876389 72.87966568 81.61174957 74.06584991 81.60452271 75.28797913 C81.61216644 76.5909343 81.61981018 77.89388947 81.62768555 79.23632812 C81.62525783 80.62105076 81.6215387 82.00577164 81.61662292 83.39048767 C81.60720744 87.15288154 81.61664472 90.91501555 81.62995505 94.67738914 C81.64126035 98.61179017 81.63716276 102.54617823 81.63520813 106.48059082 C81.63432486 113.08817802 81.64541237 119.69566269 81.66381836 126.30322266 C81.68498651 133.9462088 81.68849607 141.58904471 81.6822564 149.23205423 C81.67656472 156.57956332 81.68220609 163.92701942 81.69342995 171.27452087 C81.69807854 174.4036507 81.69894866 177.53274815 81.6968441 180.66188049 C81.69496255 184.34563424 81.70305475 188.02923476 81.7189045 191.71295357 C81.72518158 193.71263285 81.72163664 195.71233535 81.71783447 197.71202087 C81.72491928 198.89820511 81.73200409 200.08438934 81.73930359 201.30651855 C81.74135646 202.33963921 81.74340933 203.37275986 81.74552441 204.43718719 C81.82127984 207.24083857 81.82127984 207.24083857 84 210 C86.45981426 210.47735558 86.45981426 210.47735558 89.36767578 210.43237305 C90.50438721 210.45231323 91.64109863 210.47225342 92.81225586 210.49279785 C94.01116455 210.49904175 95.21007324 210.50528564 96.4453125 210.51171875 C97.54415771 210.52835571 98.64300293 210.54499268 99.77514648 210.56213379 C103.89156834 210.62009759 108.00832118 210.65222592 112.125 210.6875 C121.32375 210.790625 130.5225 210.89375 140 211 C140 231.13 140 251.26 140 272 C94.13 272 48.26 272 1 272 C4.12584315 268.87415685 7.21428776 265.88674964 10.50292969 262.95532227 C41.28191084 235.34040555 62.85445985 193.54283169 65.109375 151.98419189 C65.3189181 146.82344886 65.37116668 141.66454503 65.375 136.5 C65.37699402 135.7959201 65.37898804 135.09184021 65.38104248 134.36642456 C65.37672268 120.92340478 64.38827728 107.49721835 60.75 94.5 C60.53384033 93.70940186 60.31768066 92.91880371 60.0949707 92.10424805 C51.94104149 63.09602716 36.96386388 35.79605108 15 15 C14.195625 14.175 13.39125 13.35 12.5625 12.5 C9.15351196 9.17415801 5.5835601 6.04010262 2.01171875 2.890625 C1.34785156 2.26671875 0.68398438 1.6428125 0 1 C0 0.67 0 0.34 0 0 Z " fill="#EEEEEE" transform="translate(361,148)"/>
<path d="M0 0 C46.2 0 92.4 0 140 0 C137.525 2.475 137.525 2.475 135 5 C134.42636719 5.58523437 133.85273438 6.17046875 133.26171875 6.7734375 C130.36986778 9.71551914 127.45310899 12.46202093 124.25 15.0625 C118.78690101 19.77389351 114.60146063 25.55676294 110.28564453 31.296875 C109.16365726 32.7831992 108.01921801 34.25252159 106.87109375 35.71875 C79.42825804 71.64391675 70.22375196 118.75383017 76.02563477 163.02539062 C82.27258313 203.02129269 103.45369987 243.50359354 136.015625 268.29296875 C136.67046875 268.85628906 137.3253125 269.41960937 138 270 C138 270.66 138 271.32 138 272 C92.46 272 46.92 272 0 272 C0 251.87 0 231.74 0 211 C27.3125 210.6875 27.3125 210.6875 35.9309082 210.61206055 C38.17921631 210.5797829 40.4275091 210.54641094 42.67578125 210.51171875 C43.84798218 210.50547485 45.02018311 210.49923096 46.22790527 210.49279785 C47.34419312 210.47285767 48.46048096 210.45291748 49.6105957 210.43237305 C50.58100296 210.42126999 51.55141022 210.41016693 52.55122375 210.39872742 C55.51615567 209.91595581 56.21633929 209.3824314 58 207 C58.45309238 204.35272419 58.45309238 204.35272419 58.38095093 201.30651855 C58.3894104 200.12033432 58.39786987 198.93415009 58.40658569 197.71202087 C58.400513 196.4090657 58.39444031 195.10611053 58.38818359 193.76367188 C58.39224825 192.37894781 58.39758954 190.99422699 58.40411377 189.60951233 C58.41780591 185.84713116 58.41248102 182.08499641 58.40297651 178.32261086 C58.39538969 174.38820346 58.4024228 170.45381739 58.40713501 166.51940918 C58.41259542 159.91182663 58.40539349 153.30434463 58.39111328 146.69677734 C58.37478616 139.05375152 58.38007447 131.41096577 58.3965925 123.76794577 C58.41019926 117.20990997 58.41213101 110.65194651 58.40427649 104.09390116 C58.39959549 100.17526723 58.39898675 96.25674621 58.40888596 92.33811951 C58.41754164 88.65431397 58.41155966 84.97081843 58.39420319 81.28704643 C58.3883334 79.28736169 58.39726581 77.28765077 58.40658569 75.28797913 C58.39389648 73.50870277 58.39389648 73.50870277 58.38095093 71.69348145 C58.37981985 70.66036079 58.37868877 69.62724014 58.37752342 68.56281281 C58.20319897 65.96848674 58.20319897 65.96848674 56.62923908 64.16907787 C54.2798929 62.48327947 52.48337574 62.60049629 49.6105957 62.56762695 C47.93616394 62.53771667 47.93616394 62.53771667 46.22790527 62.50720215 C45.05570435 62.50095825 43.88350342 62.49471436 42.67578125 62.48828125 C41.59760132 62.47164429 40.51942139 62.45500732 39.40856934 62.43786621 C35.37674515 62.37998366 31.34458519 62.34779402 27.3125 62.3125 C18.299375 62.209375 9.28625 62.10625 0 62 C0 41.54 0 21.08 0 0 Z " fill="#EEEEEE" transform="translate(11,148)"/>
<path d="M0 0 C2.16942697 0.00157462 4.33927649 0.05760521 6.50634766 0.15869141 C7.65205231 0.17284088 8.79775696 0.18699036 9.97817993 0.2015686 C13.62827805 0.25743666 17.27217682 0.38286139 20.92041016 0.51025391 C23.39818591 0.56042441 25.87605816 0.60605005 28.35400391 0.64697266 C34.41991178 0.7570716 40.48221826 0.92426459 46.54541016 1.13525391 C47.02587799 1.98883736 47.02587799 1.98883736 47.51605225 2.85966492 C54.97223851 16.16723339 54.97223851 16.16723339 63.06103516 29.09228516 C72.49168188 43.58389041 72.49168188 43.58389041 72.58007812 49.42675781 C71.53219325 53.91815361 68.92939966 57.31583882 66.14990234 60.91357422 C62.93197315 65.36931914 60.48701777 70.31794728 57.85791016 75.13525391 C56.77699573 77.05549478 55.68998399 78.9723193 54.59619141 80.88525391 C54.12866455 81.70509766 53.6611377 82.52494141 53.17944336 83.36962891 C52.37059692 84.73861328 52.37059692 84.73861328 51.54541016 86.13525391 C51.24893082 86.81470566 50.95245148 87.49415741 50.64698792 88.19419861 C49.48104096 90.56680655 48.4342175 92.27681172 46.54541016 94.13525391 C42.73928717 95.43004241 39.03034479 95.4696169 35.03369141 95.51416016 C33.91028854 95.54315903 32.78688568 95.5721579 31.62944031 95.60203552 C29.25351097 95.6468741 26.87708325 95.66987469 24.50073242 95.67260742 C20.88016012 95.69760031 17.28111226 95.85539478 13.66455078 96.02001953 C-2.53496764 96.37847486 -2.53496764 96.37847486 -7.42337036 92.62258911 C-10.76675101 88.68933256 -12.64754981 84.18641796 -14.49838257 79.4112854 C-15.98334338 75.87667773 -18.07139264 72.81200982 -20.17724609 69.62353516 C-21.2740746 67.83364512 -22.35238399 66.0335267 -23.42944336 64.23168945 C-24.16527522 63.02479307 -24.92157518 61.83017876 -25.69604492 60.64770508 C-28.31371542 56.62843009 -30.40469138 52.87755045 -31.45458984 48.13525391 C-30.28194504 43.46180287 -28.17408951 39.74800655 -25.53591919 35.78573608 C-23.91141598 33.30618292 -22.54276508 30.69713393 -21.13818359 28.08837891 C-20.05976426 26.18528596 -18.9777709 24.28421354 -17.89208984 22.38525391 C-17.35390625 21.43521484 -16.81572266 20.48517578 -16.26123047 19.50634766 C-14.67091695 16.70846755 -13.07563747 13.91547514 -11.45458984 11.13525391 C-10.90309265 9.87988327 -10.90309265 9.87988327 -10.3404541 8.59915161 C-7.76976865 3.31739617 -6.08914096 0.54979055 0 0 Z " fill="#FCCF85" transform="translate(235.45458984375,236.86474609375)"/>
<path d="M0 0 C15.84 0 31.68 0 48 0 C48 41.91 48 83.82 48 127 C32.16 127 16.32 127 0 127 C0 85.09 0 43.18 0 0 Z " fill="#FCCE84" transform="translate(453,221)"/>
<path d="M0 0 C15.84 0 31.68 0 48 0 C48 41.91 48 83.82 48 127 C32.16 127 16.32 127 0 127 C0 85.09 0 43.18 0 0 Z " fill="#FCCE84" transform="translate(11,221)"/>
<path d="M0 0 C1.17113799 0.00138269 1.17113799 0.00138269 2.36593533 0.00279331 C3.70584782 0.00073132 3.70584782 0.00073132 5.07282925 -0.00137234 C6.55420376 0.00402058 6.55420376 0.00402058 8.06550503 0.00952244 C9.09952953 0.00937641 10.13355404 0.00923038 11.19891262 0.00907993 C14.63485175 0.00977956 18.07073742 0.01757425 21.50666714 0.02539158 C23.88178382 0.02725558 26.25690089 0.02867957 28.63201809 0.0296793 C34.89727233 0.03350586 41.16250356 0.04333732 47.42774868 0.05438328 C53.81537979 0.06459443 60.2030146 0.06917628 66.59065151 0.0742197 C79.13428115 0.08495947 91.6778948 0.10184656 104.22151089 0.12304783 C106.96615308 6.08265219 109.66486178 12.03178746 112.04572964 18.14648533 C112.51688198 19.35175877 112.98803432 20.5570322 113.47346401 21.79882908 C113.94719448 23.01957127 114.42092495 24.24031345 114.90901089 25.49804783 C115.39896015 26.75466945 115.88919327 28.01118043 116.37971401 29.26757908 C117.27593556 31.56437859 118.17087428 33.86167943 119.06404018 36.15966892 C119.80594404 38.05910555 120.57351106 39.9488341 121.37312222 41.82470798 C122.22151089 44.12304783 122.22151089 44.12304783 122.22151089 47.12304783 C75.36151089 47.12304783 28.50151089 47.12304783 -19.77848911 47.12304783 C-19.00157443 42.46155971 -18.2157666 39.32452191 -16.45036411 35.08789158 C-15.9798563 33.9477158 -15.50934849 32.80754002 -15.02458286 31.63281345 C-14.28401646 29.86454197 -14.28401646 29.86454197 -13.52848911 28.06054783 C-12.56364838 25.73686805 -11.60010289 23.41265003 -10.63786411 21.08789158 C-10.16413364 19.94562107 -9.69040318 18.80335056 -9.20231724 17.6264658 C-7.31059274 12.97175959 -5.53054036 8.27961905 -3.76774693 3.57446384 C-2.39207496 0.16549982 -2.39207496 0.16549982 0 0 Z " fill="#FACE85" transform="translate(204.778489112854,28.876952171325684)"/>
<path d="M0 0 C22.77 0 45.54 0 69 0 C71.7088481 6.09490822 73.79937828 11.20759675 75.1875 17.5625 C75.4340332 18.61727539 75.4340332 18.61727539 75.68554688 19.69335938 C80.08274023 39.04457062 80.31959543 61.09972848 74 80 C73.77505859 80.68336426 73.55011719 81.36672852 73.31835938 82.07080078 C70.37969472 90.86048438 66.76560024 99.02353436 62 107 C59.28978954 103.74665242 57.03755623 100.52774111 55.00390625 96.81640625 C54.17632812 95.31871704 54.17632812 95.31871704 53.33203125 93.79077148 C52.74808594 92.72544189 52.16414063 91.6601123 51.5625 90.5625 C46.97978475 82.28928486 42.33490008 74.06611529 37.5 65.9375 C36.96947021 65.04522705 36.43894043 64.1529541 35.89233398 63.23364258 C34.81084403 61.41528464 33.72921913 59.59700697 32.64746094 57.77880859 C28.00635589 49.95055464 23.43870824 42.07890279 18.86621094 34.21044922 C17.56337656 31.96917867 16.25945581 29.72857069 14.95410156 27.48876953 C13.21804961 24.50942794 11.48571213 21.52795346 9.75579834 18.54504395 C8.77180807 16.85006562 7.78462127 15.15694428 6.79736328 13.46386719 C6.19907715 12.43036133 5.60079102 11.39685547 4.984375 10.33203125 C4.45553711 9.42171143 3.92669922 8.5113916 3.38183594 7.57348633 C2 5 2 5 0 0 Z " fill="#BCC9CF" transform="translate(295,238)"/>
<path d="M0 0 C3.94209538 1.31403179 4.30057532 2.78856653 6.30078125 6.37890625 C6.94096191 7.51553711 7.58114258 8.65216797 8.24072266 9.82324219 C8.57807434 10.4321228 8.91542603 11.04100342 9.26300049 11.66833496 C10.68458702 14.2340527 12.12595232 16.78846891 13.56591797 19.34390259 C14.30398583 20.65446764 15.0409556 21.96565167 15.77685547 23.2774353 C19.16059623 29.30688345 22.6291653 35.28487336 26.125 41.25 C26.69387939 42.22267822 27.26275879 43.19535645 27.84887695 44.19750977 C28.99288983 46.15341322 30.13733699 48.10906272 31.28222656 50.06445312 C34.77017779 56.02510201 38.24745771 61.99199021 41.72412109 67.95922852 C44.77959352 73.20168056 47.84420512 78.43851239 50.921875 83.66796875 C51.56253906 84.75916016 52.20320313 85.85035156 52.86328125 86.97460938 C54.09224334 89.06740714 55.32388152 91.15863644 56.55859375 93.24804688 C57.38810547 94.6624707 57.38810547 94.6624707 58.234375 96.10546875 C58.72131836 96.93199951 59.20826172 97.75853027 59.70996094 98.61010742 C61 101 61 101 63 106 C40.23 106 17.46 106 -6 106 C-11.63522618 91.34841193 -11.63522618 91.34841193 -12.75 85.625 C-12.97171875 84.52414062 -13.1934375 83.42328125 -13.421875 82.2890625 C-13.61265625 81.20367187 -13.8034375 80.11828125 -14 79 C-14.28037109 77.43572266 -14.28037109 77.43572266 -14.56640625 75.83984375 C-17.67444509 48.31549982 -12.19604565 24.45261759 0 0 Z " fill="#BDC9CF" transform="translate(154,225)"/>
<path d="M0 0 C-1.56715125 5.63992223 -4.31179565 10.3044331 -7.25 15.3125 C-8.34218909 17.19861502 -9.43329009 19.08536044 -10.5234375 20.97265625 C-11.09416992 21.9589502 -11.66490234 22.94524414 -12.25292969 23.96142578 C-15.16939486 29.03385808 -18.0222075 34.14156698 -20.875 39.25 C-21.75031372 40.81560669 -21.75031372 40.81560669 -22.64331055 42.4128418 C-23.83366028 44.54229774 -25.02368198 46.67193709 -26.21337891 48.80175781 C-31.46686603 58.20605972 -36.73008001 67.60489803 -42 77 C-42.59828613 78.06750488 -43.19657227 79.13500977 -43.81298828 80.23486328 C-45.58100244 83.38724346 -47.35248433 86.53764918 -49.125 89.6875 C-49.65746338 90.6377002 -50.18992676 91.58790039 -50.73852539 92.56689453 C-53.33427785 97.17109117 -55.98832776 101.65541062 -59 106 C-62.15408389 103.26389734 -64.05478752 99.79617295 -66.1328125 96.234375 C-66.52894745 95.56392151 -66.9250824 94.89346802 -67.33322144 94.20269775 C-68.60142155 92.05428413 -69.8633826 89.9022845 -71.125 87.75 C-71.95009155 86.34870548 -72.77560861 84.94766141 -73.6015625 83.546875 C-74.83613323 81.45292333 -76.07058833 79.35890655 -77.30393982 77.26423645 C-80.15996465 72.4156641 -83.02965606 67.57550611 -85.91796875 62.74609375 C-86.28234039 62.13469543 -86.64671204 61.52329712 -87.02212524 60.89337158 C-88.98088127 57.62589906 -91.04183538 54.45901776 -93.1875 51.3125 C-93.785625 50.219375 -94.38375 49.12625 -95 48 C-93.17925572 42.44672996 -87.89310462 38.17211045 -84 34 C-83.4534375 33.38769531 -82.906875 32.77539062 -82.34375 32.14453125 C-61.4260688 9.67936853 -29.85759203 -0.4211886 0 0 Z " fill="#BDC9CF" transform="translate(257,167)"/>
<path d="M0 0 C2.85981279 2.54344498 4.5483818 5.41827487 6.44921875 8.72265625 C6.94452087 9.57688171 6.94452087 9.57688171 7.4498291 10.44836426 C8.53317257 12.31739334 9.61047903 14.18982158 10.6875 16.0625 C15.25415421 23.97456502 19.85034579 31.85089479 24.75 39.5625 C25.31458672 40.45599403 25.31458672 40.45599403 25.89057922 41.36753845 C27.69141081 44.21571653 29.50649949 47.05125293 31.34838867 49.87329102 C31.9901001 50.88576904 32.63181152 51.89824707 33.29296875 52.94140625 C33.8655542 53.82513916 34.43813965 54.70887207 35.02807617 55.61938477 C36 58 36 58 35.25512695 60.2043457 C32.78712691 63.73520357 29.92375263 66.84212938 27 70 C26.27683594 70.78890625 25.55367188 71.5778125 24.80859375 72.390625 C9.35741084 88.58000281 -9.74764916 97.80639545 -31 104 C-32.34964844 104.4021875 -32.34964844 104.4021875 -33.7265625 104.8125 C-41.91426132 106.83832239 -50.62876955 106.16414177 -59 106 C-57.73437471 102.70451621 -56.32960659 99.60450169 -54.63671875 96.5078125 C-54.1689502 95.65018311 -53.70118164 94.79255371 -53.21923828 93.90893555 C-52.46102783 92.53088745 -52.46102783 92.53088745 -51.6875 91.125 C-50.89061768 89.67057495 -50.89061768 89.67057495 -50.07763672 88.18676758 C-45.24143105 79.38600619 -40.3030857 70.64415569 -35.34765625 61.91015625 C-31.89757922 55.82720564 -28.47720684 49.72786006 -25.0625 43.625 C-24.48854492 42.60003418 -23.91458984 41.57506836 -23.32324219 40.51904297 C-20.25688089 35.04119653 -17.19729051 29.55965755 -14.14453125 24.07421875 C-13.51345459 22.94226074 -12.88237793 21.81030273 -12.23217773 20.64404297 C-11.02518864 18.47885653 -9.82016228 16.31257438 -8.61743164 14.14501953 C-5.91218083 9.29590231 -3.18046313 4.55349233 0 0 Z " fill="#BCC9CF" transform="translate(314,296)"/>
<path d="M0 0 C39.93 0 79.86 0 121 0 C119.61511678 4.15464966 118.55433167 7.08855678 116.453125 10.73828125 C115.94450928 11.629104 115.43589355 12.51992676 114.91186523 13.43774414 C114.36344971 14.38641357 113.81503418 15.33508301 113.25 16.3125 C112.07875174 18.35898863 110.90820469 20.40587871 109.73828125 22.453125 C109.12807129 23.51853516 108.51786133 24.58394531 107.88916016 25.68164062 C104.09767184 32.34148932 100.38643854 39.04681527 96.67089844 45.74926758 C93.94812836 50.6339806 91.20532458 55.41536704 88 60 C56.40617813 55.3133074 27.74146713 40.37092303 8.24609375 14.453125 C4.89495192 9.78104765 2.14823906 5.37059766 0 0 Z " fill="#BDC9CF" transform="translate(154,342)"/>
<path d="M0 0 C29.09216622 0.54796888 53.75062736 16.77566273 73.69140625 36.6875 C89 52.76736641 89 52.76736641 89 59 C49.07 59 9.14 59 -32 59 C-30.65691735 54.97075204 -29.71546863 52.19301242 -27.671875 48.69921875 C-27.20845703 47.89887207 -26.74503906 47.09852539 -26.26757812 46.27392578 C-25.76677734 45.42040527 -25.26597656 44.56688477 -24.75 43.6875 C-23.67076891 41.82485919 -22.59269529 39.96154737 -21.515625 38.09765625 C-20.94650391 37.1142627 -20.37738281 36.13086914 -19.79101562 35.11767578 C-16.64774948 29.64609609 -13.57558751 24.13481836 -10.5 18.625 C-3.54076433 6.1616242 -3.54076433 6.1616242 0 0 Z " fill="#BDC9CF" transform="translate(269,168)"/>
<path d="M0 0 C-1.11375 0.64324219 -2.2275 1.28648437 -3.375 1.94921875 C-41.67953318 24.45915804 -71.49150819 59.53123867 -83 103 C-86.29306817 116.98656866 -88.18691935 130.44557775 -88.18530273 144.82373047 C-88.18746702 146.96733142 -88.20560751 149.11039745 -88.22460938 151.25390625 C-88.2777892 163.96891077 -87.44542038 176.69875863 -83.75 188.9375 C-83.53239014 189.6807251 -83.31478027 190.4239502 -83.09057617 191.18969727 C-82.41246171 193.46603539 -81.71003717 195.7334383 -81 198 C-80.78359863 198.70769531 -80.56719727 199.41539062 -80.34423828 200.14453125 C-68.12701544 239.54667403 -39.56382486 272.77005587 -3.79296875 292.84375 C-2 294 -2 294 -1 296 C-6.40415242 295.45873904 -10.37302221 293.55073525 -15.0625 291 C-15.80838379 290.59845703 -16.55426758 290.19691406 -17.32275391 289.78320312 C-54.96685213 269.13732765 -83.41127326 233.95264785 -95.71484375 192.79296875 C-100.05805172 177.10861996 -101.37449048 161.64262968 -101.4375 145.4375 C-101.44376404 144.68140442 -101.45002808 143.92530884 -101.45648193 143.14630127 C-101.5112933 132.69834543 -100.42659948 123.19954799 -98 113 C-97.80672119 112.12190674 -97.61344238 111.24381348 -97.41430664 110.33911133 C-94.7029175 98.19835383 -90.47716345 87.1474146 -85 76 C-84.18402344 74.30810547 -84.18402344 74.30810547 -83.3515625 72.58203125 C-75.8012485 57.75763425 -65.6416439 44.79745572 -54 33 C-53.46342773 32.44078857 -52.92685547 31.88157715 -52.37402344 31.30541992 C-48.16082245 26.97332685 -43.69423029 23.2023803 -38.875 19.5625 C-37.7607666 18.71836548 -37.7607666 18.71836548 -36.62402344 17.85717773 C-9.06442863 -2.77106647 -9.06442863 -2.77106647 0 0 Z " fill="#F6F9F9" transform="translate(197,137)"/>
<path d="M0 0 C7.04536892 3.78316465 11.69236007 9.61223645 14.21875 17.19140625 C15.00453983 26.45250063 14.94642994 34.46266344 9.21875 42.19140625 C4.17830418 47.95727603 -2.35131086 51.65872645 -9.96484375 52.57421875 C-16.8685443 52.81365345 -22.1023821 52.21914957 -27.78125 48.19140625 C-28.40773437 47.75570312 -29.03421875 47.32 -29.6796875 46.87109375 C-35.1453456 42.65077547 -37.63135944 37.64107794 -39.78125 31.19140625 C-40.41567323 23.00630648 -40.58837237 16.0659274 -35.78125 9.19140625 C-35.245 8.32515625 -34.70875 7.45890625 -34.15625 6.56640625 C-24.52894416 -3.06089959 -12.41189038 -5.63641225 0 0 Z " fill="#1A6683" transform="translate(268.78125,259.80859375)"/>
<path d="M0 0 C3.96 0 7.92 0 12 0 C12 41.91 12 83.82 12 127 C8.04 127 4.08 127 0 127 C0 85.09 0 43.18 0 0 Z " fill="#FEE7C5" transform="translate(489,221)"/>
<path d="M0 0 C3.96 0 7.92 0 12 0 C12 41.91 12 83.82 12 127 C8.04 127 4.08 127 0 127 C0 85.09 0 43.18 0 0 Z " fill="#FEE7C5" transform="translate(11,221)"/>
<path d="M0 0 C3.62480591 1.20826864 4.3902273 2.84196645 6.328125 6.015625 C8.17615972 11.47377405 4.18414577 18.31419433 2.3515625 23.4296875 C-1.31823902 35.04981073 -2.50558217 46.28576578 -2.375 58.4375 C-2.36901794 59.45006866 -2.36901794 59.45006866 -2.36291504 60.48309326 C-2.264938 74.65082458 -0.28364312 86.95107278 4.23046875 100.42578125 C5 103 5 103 5 106 C1.37 106 -2.26 106 -6 106 C-9.73853143 97.10436396 -12.32674162 88.51948349 -14 79 C-14.28037109 77.43572266 -14.28037109 77.43572266 -14.56640625 75.83984375 C-17.67444509 48.31549982 -12.19604565 24.45261759 0 0 Z " fill="#E1E7EA" transform="translate(154,225)"/>
<path d="M0 0 C13.53 0 27.06 0 41 0 C41 8.58 41 17.16 41 26 C27.47 26 13.94 26 0 26 C0 17.42 0 8.84 0 0 Z " fill="#EFEFEF" transform="translate(406,49)"/>
<path d="M0 0 C13.53 0 27.06 0 41 0 C41 8.58 41 17.16 41 26 C27.47 26 13.94 26 0 26 C0 17.42 0 8.84 0 0 Z " fill="#EFEFEF" transform="translate(65,49)"/>
<path d="M0 0 C0.95132813 0.11601562 1.90265625 0.23203125 2.8828125 0.3515625 C3.84960938 0.44179687 4.81640625 0.53203125 5.8125 0.625 C6.53695312 0.74101562 7.26140625 0.85703125 8.0078125 0.9765625 C6.50158967 5.01055068 4.60489885 8.68984517 2.5234375 12.45703125 C2.18536072 13.06992508 1.84728394 13.68281891 1.4989624 14.31428528 C0.78422985 15.60848712 0.06807619 16.90190504 -0.64941406 18.19458008 C-1.72818875 20.13883285 -2.80195669 22.08578253 -3.875 24.03320312 C-4.57536575 25.29956495 -5.27588497 26.56584191 -5.9765625 27.83203125 C-6.48781677 28.76110794 -6.48781677 28.76110794 -7.00939941 29.70895386 C-9.05646627 33.39929423 -11.259221 36.93608756 -13.5703125 40.46484375 C-15.3802924 43.50441433 -15.98085598 44.81774137 -16.23828125 48.42578125 C-14.42984708 53.57896827 -11.82910414 58.09846545 -9.0546875 62.7890625 C-7.87442003 64.82909165 -6.69474016 66.86946086 -5.515625 68.91015625 C-4.62955566 70.43165283 -4.62955566 70.43165283 -3.72558594 71.98388672 C-1.16057508 76.41232378 1.33572292 80.87765189 3.8203125 85.3515625 C4.24626709 86.11186768 4.67222168 86.87217285 5.11108398 87.65551758 C8.0078125 92.85774365 8.0078125 92.85774365 8.0078125 93.9765625 C3.98976256 95.14531087 1.00589015 95.30754866 -2.9921875 93.9765625 C-6.65824482 89.742356 -8.90740623 84.94468753 -11.39941406 79.95703125 C-12.90940151 77.13147534 -14.53491387 74.44339001 -16.24839783 71.73957825 C-17.8285027 69.23941492 -19.36125328 66.7116565 -20.89151001 64.18075562 C-21.66110922 62.92914479 -22.44858259 61.68833416 -23.25424194 60.45962524 C-25.86479585 56.45072294 -27.94506693 52.70631158 -28.9921875 47.9765625 C-27.8195427 43.30311146 -25.71168716 39.58931515 -23.07351685 35.62704468 C-21.44901364 33.14749152 -20.08036274 30.53844253 -18.67578125 27.9296875 C-17.59736191 26.02659455 -16.51536856 24.12552213 -15.4296875 22.2265625 C-14.89150391 21.27652344 -14.35332031 20.32648438 -13.79882812 19.34765625 C-12.73157079 17.47000256 -11.65562362 15.59725693 -10.5703125 13.72998047 C-9.50001043 11.86258153 -8.46437501 9.97496424 -7.4609375 8.07080078 C-3.72299651 1.21507719 -3.72299651 1.21507719 0 0 Z " fill="#FBE5C5" transform="translate(232.9921875,237.0234375)"/>
<path d="M0 0 C4.48076681 2.6130827 7.69262304 5.26250341 9.83984375 10.09375 C10.60373819 15.42509659 10.54394482 19.65947005 8.15234375 24.53125 C1.60102979 31.79081412 1.60102979 31.79081412 -3.33203125 32.33203125 C-9.17862162 32.50034218 -12.59208488 32.11800335 -17.16015625 28.09375 C-21.7829656 22.84623668 -22.51346625 19.7462061 -22.44140625 12.85546875 C-21.91935299 7.72919581 -19.2845209 5.10842054 -15.59765625 1.78125 C-10.85534553 -1.50188819 -5.3365716 -2.23885102 0 0 Z " fill="#ECEDED" transform="translate(262.16015625,268.90625)"/>
<path d="M0 0 C3.96 0 7.92 0 12 0 C12 20.46 12 40.92 12 62 C8.04 62 4.08 62 0 62 C0 41.54 0 21.08 0 0 Z " fill="#FEFEFE" transform="translate(11,148)"/>
<path d="M0 0 C3.96 0 7.92 0 12 0 C12 20.13 12 40.26 12 61 C8.04 61 4.08 61 0 61 C0 40.87 0 20.74 0 0 Z " fill="#FEFEFE" transform="translate(11,359)"/>
<path d="M0 0 C3.96 0 7.92 0 12 0 C12.01458252 1.13953125 12.02916504 2.2790625 12.04418945 3.453125 C12.1024782 7.71010587 12.17970762 11.9665746 12.26245117 16.22314453 C12.29555738 18.05997358 12.32363317 19.89690086 12.34643555 21.73388672 C12.38024631 24.38551411 12.43257293 27.03625283 12.48828125 29.6875 C12.49467117 30.49928711 12.5010611 31.31107422 12.50764465 32.14746094 C12.6797221 38.93005274 14.18024715 44.27037072 18 50 C13.45760196 50.31326883 10.8888925 50.42735216 6.75 48.4375 C3.0923909 45.1955283 0.44714392 41.74640957 -0.34680176 36.86990356 C-0.46018731 34.49793325 -0.45061533 32.1590323 -0.390625 29.78515625 C-0.38496521 28.92941513 -0.37930542 28.07367401 -0.37347412 27.19200134 C-0.35123507 24.48157789 -0.30106425 21.77251809 -0.25 19.0625 C-0.22991878 17.215514 -0.21167086 15.3685071 -0.1953125 13.52148438 C-0.15141147 9.0138043 -0.08247269 4.50713267 0 0 Z " fill="#E3E8EA" transform="translate(11,432)"/>
<path d="M0 0 C-0.35151123 0.48839355 -0.70302246 0.97678711 -1.06518555 1.47998047 C-6.53055765 10.41314997 -5.78238611 20.00308418 -5.8125 30.125 C-5.83567635 31.95836266 -5.86104813 33.79169895 -5.88867188 35.625 C-5.95111843 40.08343187 -5.98377335 44.54117014 -6 49 C-9.96 49 -13.92 49 -18 49 C-18.09918586 43.69813441 -18.17161755 38.39681382 -18.21972656 33.09423828 C-18.23979033 31.29205919 -18.26704813 29.48994479 -18.30175781 27.68798828 C-18.35050829 25.09130864 -18.37302082 22.49549271 -18.390625 19.8984375 C-18.41127014 19.0982016 -18.43191528 18.2979657 -18.45318604 17.47348022 C-18.4559159 10.60340851 -15.99721936 7.08800205 -11.25 2.125 C-7.04049395 -0.62736934 -4.92363809 -0.42445156 0 0 Z " fill="#E3E8EA" transform="translate(29,87)"/>
<path d="M0 0 C3.96 0 7.92 0 12 0 C10.04422908 5.99165317 7.94636654 11.88743738 5.64453125 17.75390625 C5.18478157 18.93339088 5.18478157 18.93339088 4.71574402 20.13670349 C3.7500586 22.61278003 2.78133736 25.08765529 1.8125 27.5625 C1.15149028 29.25578036 0.4906812 30.94913907 -0.16992188 32.64257812 C-1.77763331 36.76262667 -3.38806577 40.88160186 -5 45 C-8.63 45 -12.26 45 -16 45 C-15.43084491 39.21078348 -13.80328087 34.37633627 -11.62109375 29.00390625 C-11.28956802 28.17036118 -10.9580423 27.3368161 -10.61647034 26.47801208 C-9.56398917 23.83657428 -8.50093663 21.19954357 -7.4375 18.5625 C-6.71869663 16.76395324 -6.00059029 14.96512774 -5.28320312 13.16601562 C-3.53018422 8.77407742 -1.76767682 4.38605803 0 0 Z " fill="#FAE5C5" transform="translate(202,30)"/>
<path d="M0 0 C4.00076807 -1.0952673 7.02949779 -1.30495487 11 0 C13.99234198 3.62400739 16.12285386 7.45124415 18.40234375 11.54296875 C29.0514232 30.53430513 48.37853943 45.22805292 68 54 C62.18155392 55.93948203 55.38336873 51.55936842 50 49 C30.5387933 38.96889272 7.66706353 21.38914133 0 0 Z " fill="#DFE6E9" transform="translate(154,342)"/>
<path d="M0 0 C-1.45019531 0.8353125 -1.45019531 0.8353125 -2.9296875 1.6875 C-10.79619092 6.2759561 -18.05937664 11.06544865 -25 17 C-25.60972656 17.47695312 -26.21945313 17.95390625 -26.84765625 18.4453125 C-34.85917203 24.83262576 -40.81995043 33.46639967 -46.4921875 41.90625 C-48 44 -48 44 -51 47 C-53.475 43.535 -53.475 43.535 -56 40 C-53.58059594 34.43153034 -49.08991413 30.38302465 -45 26 C-44.4534375 25.38769531 -43.906875 24.77539062 -43.34375 24.14453125 C-35.85120367 16.0976894 -11.65201133 -4.31555975 0 0 Z " fill="#DEE5E8" transform="translate(218,175)"/>
<path d="M0 0 C-0.54140625 0.74830078 -0.54140625 0.74830078 -1.09375 1.51171875 C-5.42427135 8.21199761 -5.97461656 14.14085798 -5 22 C-3.8022261 25.48845089 -3.8022261 25.48845089 -2 28 C-1.33333333 29.33333333 -0.66666667 30.66666667 0 32 C-5.60795104 31.77110404 -8.34479785 30.3841502 -12.51953125 26.66796875 C-16.35945398 22.34172335 -16.42826909 18.29200582 -16.31640625 12.69140625 C-15.72851985 7.69074293 -13.06856661 5.09744679 -9.6875 1.625 C-6.28082201 -0.43485181 -3.91155321 -0.30678849 0 0 Z " fill="#FAFBFC" transform="translate(256,269)"/>
<path d="M0 0 C3.63 0 7.26 0 11 0 C11 8.58 11 17.16 11 26 C7.37 26 3.74 26 0 26 C0 17.42 0 8.84 0 0 Z " fill="#FEFEFE" transform="translate(406,49)"/>
<path d="M0 0 C3.3 0 6.6 0 10 0 C10 8.58 10 17.16 10 26 C6.7 26 3.4 26 0 26 C0 17.42 0 8.84 0 0 Z " fill="#FFFFFF" transform="translate(65,49)"/>
<path d="M0 0 C3 2.0625 3 2.0625 5 5 C5 8.52133145 4.69441423 10.84264294 2.875 13.875 C-0.15735706 15.69441423 -2.47866855 16 -6 16 C-8.9375 14 -8.9375 14 -11 11 C-11.63007693 7.00951279 -11.63021887 4.98314143 -9.4375 1.5625 C-6.01685857 -0.63021887 -3.99048721 -0.63007693 0 0 Z " fill="#1A6684" transform="translate(474,106)"/>
<path d="M0 0 C2.875 1.5 2.875 1.5 5 4 C5.71773256 6.82462492 5.71070236 9.17452478 5 12 C2.9375 14.5625 2.9375 14.5625 0 16 C-3.46758942 15.94021398 -5.88826749 15.60965977 -8.9375 13.9375 C-10.69220303 10.73774742 -10.626852 7.5005106 -10 4 C-7.30203057 -0.15072221 -4.80768487 -0.78492814 0 0 Z " fill="#176583" transform="translate(432,106)"/>
<path d="M0 0 C3.91211733 1.15585285 6.8745041 2.35534962 10 5 C8.53984709 4.71758359 7.08190207 4.42373386 5.625 4.125 C4.81289062 3.96257812 4.00078125 3.80015625 3.1640625 3.6328125 C1 3 1 3 -1 1 C-0.67 0.67 -0.34 0.34 0 0 Z " fill="#CCD9DE" transform="translate(212,392)"/>
</svg>
