<?xml version="1.0" encoding="UTF-8"?>
<svg version="1.1" xmlns="http://www.w3.org/2000/svg" width="512" height="512">
<path d="M0 0 C1.12066668 -0.00525911 1.12066668 -0.00525911 2.26397309 -0.01062447 C4.76948182 -0.01993438 7.27475792 -0.01501623 9.7802763 -0.01015663 C11.59395448 -0.01389309 13.40763106 -0.0184946 15.22130507 -0.02388728 C20.20708437 -0.03613312 25.19279665 -0.03585494 30.17858756 -0.03349853 C35.55499313 -0.03309076 40.9313771 -0.04412562 46.30777264 -0.05361366 C56.84175163 -0.07023316 67.37570824 -0.07572363 77.90969924 -0.07683842 C86.47117258 -0.07778841 95.03263853 -0.08189626 103.59410954 -0.08823967 C127.86158593 -0.10585441 152.12904462 -0.11507814 176.39652745 -0.11357872 C178.35930913 -0.11345885 178.35930913 -0.11345885 180.36174297 -0.11333656 C181.67185967 -0.1132548 182.98197637 -0.11317304 184.33179357 -0.1130888 C205.56790191 -0.11227576 226.80393935 -0.13141737 248.04002718 -0.1596133 C269.83933487 -0.18832892 291.63860796 -0.20215433 313.43793505 -0.20042574 C325.67892875 -0.1997614 337.9198481 -0.20527313 350.16082478 -0.22678185 C360.5824111 -0.24497619 371.00388938 -0.24935529 381.42548469 -0.235763 C386.7430417 -0.22922466 392.06039134 -0.22914752 397.37792873 -0.2464695 C402.24675016 -0.26216672 407.11519921 -0.25937077 411.98401137 -0.24190123 C413.74441284 -0.23882397 415.50484187 -0.24249101 417.26521084 -0.25362138 C436.51551126 -0.36726538 436.51551126 -0.36726538 443.57145977 6.29242516 C444.01489727 6.96144859 444.45833477 7.63047203 444.91520977 8.31976891 C445.37927227 8.99137047 445.84333477 9.66297203 446.32145977 10.35492516 C448.23617922 13.68516934 448.53988572 16.38049863 448.5382576 20.1398325 C448.54024865 21.15250696 448.5422397 22.16518143 448.54429108 23.208543 C448.54137824 24.32428854 448.5384654 25.44003407 448.53546429 26.58959007 C448.53674592 28.36365493 448.53674592 28.36365493 448.53805345 30.17355949 C448.53941862 33.46185836 448.53628252 36.75009807 448.53127539 40.0383898 C448.52696543 43.58233746 448.52841771 47.12628323 448.52917767 50.67023277 C448.52970255 56.81218653 448.52655942 62.95412969 448.52093983 69.09608078 C448.51282008 77.97636037 448.51020912 86.85663481 448.50895184 95.73691771 C448.50676207 110.14385084 448.500104 124.55077831 448.49064922 138.95770836 C448.48147317 152.95445286 448.47439328 166.95119583 448.47014141 180.94794273 C448.46974733 182.24162306 448.46974733 182.24162306 448.46934528 183.56143834 C448.46804026 187.88802302 448.46677655 192.21460771 448.46553338 196.54119241 C448.4551631 232.44655524 448.43754681 268.35191163 448.41520977 304.25726891 C449.09140362 304.24276695 449.76759747 304.228265 450.46428204 304.21332359 C451.80317486 304.19640465 451.80317486 304.19640465 453.16911602 304.17914391 C454.05155987 304.16464195 454.93400372 304.15014 455.84318829 304.13519859 C460.31111345 304.3472501 463.76294522 305.70849811 467.07951641 308.8173275 C469.0615284 312.43791383 468.86316518 316.02038699 468.84880352 320.04633141 C468.85404537 320.90479668 468.85928722 321.76326195 468.86468792 322.64774132 C468.87110624 324.46500126 468.86977356 326.28230275 468.86125469 328.09955406 C468.85280235 330.85211945 468.88141323 333.60256778 468.91325665 336.35492516 C468.96549365 349.30506072 467.54417223 359.41190805 458.41520977 369.25726891 C447.7921966 379.7727617 434.73182513 380.85106621 420.54979098 380.77951676 C419.68577713 380.77479337 418.82176328 380.77006999 417.93156719 380.76520348 C416.08169694 380.76981946 414.23183035 380.77617703 412.38197136 380.78411245 C407.32843476 380.8007331 402.27520226 380.79259256 397.22166491 380.78016758 C391.76008725 380.77108957 386.29856062 380.78510044 380.83699322 380.79608727 C370.14952844 380.81384773 359.46217621 380.8100435 348.77470708 380.7984367 C340.08661779 380.78939293 331.39855998 380.78818247 322.71046734 380.79253197 C320.85369674 380.79345137 320.85369674 380.79345137 318.95941561 380.79438934 C316.44453405 380.79566827 313.9296525 380.79696513 311.41477096 380.7982797 C288.51959046 380.8093535 265.62446078 380.79788126 242.72929113 380.77690931 C221.84884838 380.75792826 200.96850323 380.75962683 180.08806133 380.77875328 C156.60416509 380.80019283 133.12031541 380.80857969 109.63640976 380.79630423 C107.13092392 380.79503007 104.62543806 380.79377258 102.1199522 380.79253197 C100.27096625 380.79160631 100.27096625 380.79160631 98.38462704 380.79066196 C89.70977986 380.7872123 81.03496736 380.79302913 72.36012554 380.80245018 C61.78436949 380.81368349 51.20873215 380.81060202 40.63298965 380.7893272 C35.23996273 380.77883482 29.84713356 380.77466415 24.45410824 380.78792381 C19.51194581 380.79989094 14.57016341 380.79321407 9.62803519 380.7720136 C7.84557011 380.76756582 6.06307256 380.76977251 4.28062856 380.77951676 C-9.90140559 380.85106621 -22.96177706 379.7727617 -33.58479023 369.25726891 C-43.41973116 358.65052768 -44.23561742 347.52363883 -44.1062746 333.68768883 C-44.08470046 330.93330789 -44.10621452 328.18149568 -44.13166523 325.42719078 C-44.12902414 323.66611735 -44.12390371 321.90504551 -44.11604023 320.14398766 C-44.12413715 319.32621346 -44.13223408 318.50843925 -44.14057636 317.66588402 C-44.07560271 313.70739563 -43.87144524 311.71327352 -41.7156496 308.28388023 C-37.68360816 304.44909838 -33.72834152 304.16625825 -28.37385273 304.21430016 C-27.47618183 304.22050377 -26.57851093 304.22670738 -25.65363789 304.23309898 C-24.97091816 304.24107506 -24.28819843 304.24905113 -23.58479023 304.25726891 C-23.58630911 303.64879144 -23.58782799 303.04031397 -23.5893929 302.41339779 C-23.6789119 266.34732764 -23.74753984 230.28127393 -23.78905155 194.21511543 C-23.79405435 189.88427708 -23.79923164 185.55343895 -23.80451679 181.22260094 C-23.80556603 180.36041175 -23.80661528 179.49822257 -23.80769631 178.60990644 C-23.82509991 164.65081207 -23.85663736 150.69178363 -23.89340141 136.73272836 C-23.93081209 122.40865666 -23.95302635 108.08461946 -23.96114421 93.76050091 C-23.96663172 84.92225879 -23.98396139 76.08420299 -24.0164561 67.24601823 C-24.03760555 61.18472822 -24.04398931 55.12353449 -24.03879574 49.06221026 C-24.03623461 45.56548129 -24.040151 42.06907782 -24.06161213 38.57240677 C-24.08149935 34.77829864 -24.07673279 30.98498909 -24.0658083 27.19086266 C-24.07745966 26.08968133 -24.08911103 24.9885 -24.10111547 23.85394955 C-24.04610481 16.7903929 -23.07302694 11.10727703 -18.20825124 5.73796654 C-12.78207593 0.82876104 -7.06603341 -0.04224383 0 0 Z M-10.58479023 18.25726891 C-11.31408139 20.71453562 -11.31408139 20.71453562 -11.20002937 23.33907604 C-11.20998462 24.34528242 -11.21993986 25.3514888 -11.23019677 26.38818628 C-11.21563257 27.48643328 -11.20106836 28.58468029 -11.18606281 29.7162075 C-11.19033494 30.8883756 -11.19460706 32.0605437 -11.19900864 33.26823205 C-11.20581981 36.51815722 -11.1901989 39.76708487 -11.16511834 43.01689208 C-11.14352335 46.52263062 -11.15083306 50.02832277 -11.15462971 53.53410912 C-11.15725132 59.60683585 -11.14156569 65.67929396 -11.11344051 71.75195312 C-11.07280293 80.53194818 -11.05978306 89.31181336 -11.05350056 98.09189226 C-11.04255776 112.33695147 -11.00928401 126.58186751 -10.9619875 140.82684898 C-10.9160915 154.6644068 -10.8806998 168.50192573 -10.85944843 182.3395443 C-10.85813482 183.19251141 -10.8568212 184.04547853 -10.85546777 184.92429314 C-10.84894258 189.2033841 -10.84262404 193.48247534 -10.83640826 197.76156676 C-10.78457571 233.2602362 -10.69651087 268.75873935 -10.58479023 304.25726891 C-9.59445648 304.26085144 -9.59445648 304.26085144 -8.58411598 304.26450634 C7.48226438 304.32364827 23.54847127 304.39919304 39.61468315 304.49298382 C47.38419711 304.53794506 55.15366519 304.57735893 62.92326641 304.60370445 C69.69543637 304.62668193 76.46746121 304.66007703 83.23951608 304.70597047 C86.82512776 304.72990624 90.41059569 304.74863262 93.99628544 304.75488281 C97.9996606 304.76205629 102.00253553 304.79248788 106.00578594 304.82489586 C107.78818928 304.82274323 107.78818928 304.82274323 109.60660076 304.8205471 C110.69889996 304.83308525 111.79119915 304.8456234 112.91659832 304.85854149 C113.86327971 304.86315045 114.80996111 304.86775942 115.78532982 304.87250805 C118.95571869 305.3363473 120.82856202 306.39224684 123.41520977 308.25726891 C125.23625469 310.84515953 125.23625469 310.84515953 126.89567852 313.91351891 C127.50218243 315.01824547 128.10868633 316.12297203 128.73356915 317.26117516 C129.35038555 318.41488609 129.96720196 319.56859703 130.60270977 320.75726891 C131.84549818 323.03890097 133.08895705 325.320168 134.33317852 327.60101891 C134.87740459 328.6135775 135.42163067 329.62613609 135.98234844 330.66937828 C137.43281568 333.37277763 137.43281568 333.37277763 139.41520977 336.25726891 C142.05306424 336.70599503 142.05306424 336.70599503 145.19844341 336.61803246 C146.42965923 336.62215645 147.66087505 336.62628044 148.92940044 336.6305294 C150.30113723 336.61991128 151.67287183 336.60900684 153.0446043 336.59784508 C154.48330448 336.59699923 155.92200595 336.59747313 157.36070538 336.59917259 C161.27379799 336.60003562 165.18661641 336.58236047 169.09964514 336.56145072 C173.18625446 336.54273489 177.27286962 336.54093751 181.35951519 336.5373745 C189.10143986 336.52803901 196.8432379 336.50340497 204.58510673 336.47332603 C213.39754316 336.43982871 222.20998554 336.42330778 231.02246976 336.40823972 C249.15345497 336.37685666 267.2843222 336.32406705 285.41520977 336.25726891 C285.85389385 335.49059898 286.29257793 334.72392906 286.74455547 333.93402672 C288.38062679 331.07766209 290.01906599 328.22268325 291.65910625 325.36859703 C292.3670851 324.13541661 293.07412869 322.90169874 293.7802 321.66742516 C294.79797917 319.88864268 295.81915784 318.11184989 296.84099102 316.33539391 C297.45369854 315.26708336 298.06640606 314.19877281 298.69768047 313.09808922 C302.68676289 306.50008453 302.68676289 306.50008453 306.41520977 305.25726891 C308.16574467 305.15543995 309.91985866 305.11097878 311.67331219 305.09905052 C312.76286205 305.0892617 313.85241192 305.07947289 314.97497845 305.06938744 C316.17043789 305.06363197 317.36589733 305.05787651 318.59758282 305.05194664 C319.8562315 305.04204704 321.11488018 305.03214745 322.41166973 305.02194786 C325.863841 304.99490632 329.31602593 304.9738927 332.7682445 304.95394588 C336.37575538 304.93208169 339.98322417 304.90469512 343.5907011 304.87788963 C350.42231827 304.82796859 357.2539588 304.78302758 364.08562165 304.73986727 C371.86308005 304.69048987 379.64049623 304.6355736 387.41791379 304.58018768 C403.41697345 304.46637667 419.41607191 304.35953571 435.41520977 304.25726891 C435.52960878 267.90770515 435.61773504 231.55817291 435.67053642 195.20846625 C435.67679009 190.9188253 435.68326169 186.62918471 435.68986797 182.3395443 C435.69117953 181.48554002 435.69249108 180.63153575 435.69384237 179.75165256 C435.71560971 165.91660869 435.75503853 152.08166852 435.80097375 138.2466862 C435.84770148 124.05484279 435.87549736 109.86305374 435.88565224 95.67113656 C435.89251908 86.91114834 435.91422113 78.15145318 435.9547921 69.39155515 C435.98118504 63.38774258 435.98921863 57.3840819 435.98271666 51.3802155 C435.97950831 47.91416388 435.9844884 44.44862498 436.01123714 40.98266411 C436.03600828 37.22676524 436.03017133 33.47213394 436.01648235 29.7162075 C436.03104656 28.6179605 436.04561077 27.51971349 436.06061631 26.38818628 C436.05066107 25.3819799 436.04070583 24.37577352 436.03044891 23.33907604 C436.03234752 22.47217453 436.03424612 21.60527301 436.03620225 20.71210176 C435.10050293 17.01320765 433.4246017 15.54331615 430.41520977 13.25726891 C426.92670602 12.51040961 426.92670602 12.51040961 423.0047636 12.6280632 C421.89416035 12.6171624 421.89416035 12.6171624 420.76112068 12.60604137 C418.27201182 12.58774613 415.78443516 12.60516638 413.29533672 12.62235069 C411.49616392 12.61659126 409.69699699 12.60865134 407.89784241 12.59871447 C402.9475466 12.57779341 397.99773118 12.58818021 393.04743338 12.60364556 C387.71128225 12.61493364 382.37521518 12.59750901 377.03908062 12.58374596 C366.58312235 12.56148183 356.12734327 12.5663289 345.6713779 12.58080916 C337.175624 12.59208891 328.67992042 12.59363778 320.18416119 12.58819008 C318.97622475 12.58742391 317.76828831 12.58665775 316.52374774 12.58586837 C314.07005205 12.58426978 311.61635638 12.58264872 309.16266072 12.58100541 C286.13996188 12.5667386 263.11736248 12.58315527 240.09467995 12.61000724 C220.32875205 12.63234683 200.56297096 12.62846697 180.79704571 12.60541344 C157.85822887 12.57867191 134.91949926 12.56811199 111.98066902 12.58347476 C109.53586548 12.58506755 107.09106192 12.5866394 104.64625835 12.58819008 C102.84179799 12.58934715 102.84179799 12.58934715 101.00088388 12.59052759 C92.51272004 12.59484952 84.0246114 12.58754739 75.53645611 12.57579231 C65.19594075 12.56178709 54.85561523 12.56552565 44.5151217 12.59219603 C39.23651665 12.60536078 33.95822841 12.6104413 28.67962551 12.59395027 C23.85097077 12.5790928 19.02292762 12.5871693 14.19432867 12.61383803 C12.44407044 12.61944088 10.69376094 12.61654235 8.94353545 12.60445909 C6.57016694 12.58932585 4.19891271 12.60476918 1.82565594 12.6280632 C0.50580039 12.62887496 -0.81405516 12.62968673 -2.17390633 12.63052309 C-6.4992432 13.42529854 -7.97545751 14.76404949 -10.58479023 18.25726891 Z M6.41520977 338.31976891 C4.89881624 341.25778136 5.4922726 343.15883698 6.41520977 346.25726891 C9.17416612 348.5536467 9.17416612 348.5536467 11.97770977 348.00726891 C14.56521544 347.41918838 14.56521544 347.41918838 16.41520977 345.25726891 C16.09194424 341.66047824 16.09194424 341.66047824 15.41520977 338.25726891 C10.79886998 337.11552572 10.79886998 337.11552572 6.41520977 338.31976891 Z M31.41520977 339.25726891 C30.83175501 342.21473383 30.83175501 342.21473383 31.41520977 345.25726891 C32.91520977 347.42393557 32.91520977 347.42393557 35.41520977 348.25726891 C38.63695521 347.54503043 38.63695521 347.54503043 41.41520977 346.25726891 C42.56604117 342.18647683 42.56604117 342.18647683 41.29020977 338.38226891 C37.47125216 336.09089434 34.97727074 336.88256159 31.41520977 339.25726891 Z M57.41520977 338.94476891 C56.15986901 341.25355798 56.15986901 341.25355798 56.91520977 343.88226891 C58.74327388 346.77670375 60.18235493 347.3214425 63.41520977 348.25726891 C65.06520977 346.60726891 66.71520977 344.95726891 68.41520977 343.25726891 C67.32736009 340.00743756 67.32736009 340.00743756 65.41520977 337.25726891 C61.04332746 336.75896987 61.04332746 336.75896987 57.41520977 338.94476891 Z M359.41520977 337.25726891 C357.47979497 339.64783833 357.47979497 339.64783833 356.41520977 342.25726891 C358.23998138 345.86473597 358.23998138 345.86473597 361.29020977 348.38226891 C363.76111622 348.45663145 363.76111622 348.45663145 366.16520977 345.81976891 C366.90770977 344.97414391 367.65020977 344.12851891 368.41520977 343.25726891 C367.32736009 340.00743756 367.32736009 340.00743756 365.41520977 337.25726891 C362.49982948 336.75684744 362.49982948 336.75684744 359.41520977 337.25726891 Z M383.54020977 338.38226891 C381.86230346 341.17877943 382.66645329 343.19417423 383.41520977 346.25726891 C386.19346433 347.54503043 386.19346433 347.54503043 389.41520977 348.25726891 C391.91520977 347.42393557 391.91520977 347.42393557 393.41520977 345.25726891 C393.99866453 342.21473383 393.99866453 342.21473383 393.41520977 339.25726891 C389.8531488 336.88256159 387.35916738 336.09089434 383.54020977 338.38226891 Z M409.60270977 338.44476891 C407.97468975 340.92964156 407.90545478 342.34438323 408.41520977 345.25726891 C410.01136982 347.26692665 410.01136982 347.26692665 412.41520977 348.25726891 C415.05058485 348.26362137 415.05058485 348.26362137 417.41520977 347.25726891 C419.71158757 344.49831256 419.71158757 344.49831256 419.16520977 341.69476891 C418.57712925 339.10726324 418.57712925 339.10726324 416.41520977 337.25726891 C413.56918383 336.89239379 412.02877917 336.85527516 409.60270977 338.44476891 Z " fill="#4C6EB0" transform="translate(43.58479022979736,65.74273109436035)"/>
<path d="M0 0 C1.03841018 -0.00872064 1.03841018 -0.00872064 2.09779835 -0.01761746 C4.42903379 -0.03227313 6.75922547 -0.01830731 9.0904541 -0.00457001 C10.7739796 -0.00917675 12.45750108 -0.01552814 14.1410141 -0.02347898 C18.77620523 -0.04022669 23.41106829 -0.03190134 28.04626083 -0.01953411 C33.04156504 -0.01050813 38.03681162 -0.02444113 43.03210449 -0.0354538 C52.82142172 -0.05326987 62.61061649 -0.0493853 72.39993858 -0.03780323 C80.35367211 -0.02878132 88.30737123 -0.02753952 96.2611084 -0.0318985 C97.39175893 -0.03251143 98.52240947 -0.03312436 99.68732214 -0.03375587 C101.98398909 -0.03503473 104.28065603 -0.03633158 106.57732296 -0.03764623 C128.12923685 -0.04906108 149.68108276 -0.03592414 171.2329855 -0.01444477 C189.73824346 0.00342702 208.24340107 0.00032317 226.74865723 -0.01811981 C248.22178043 -0.03951055 269.69484401 -0.04796236 291.16797638 -0.03567076 C293.4563446 -0.03439652 295.74471282 -0.03313904 298.03308105 -0.0318985 C299.72210234 -0.03097285 299.72210234 -0.03097285 301.44524527 -0.03002849 C309.39234437 -0.0265702 317.33940576 -0.03241425 325.28649902 -0.04181671 C334.96718653 -0.05301813 344.64774425 -0.05003583 354.32841682 -0.02869374 C359.27066316 -0.01815827 364.21269286 -0.01410387 369.15493774 -0.02729034 C373.67510598 -0.03916855 378.19485582 -0.03272768 382.71498585 -0.01138014 C384.35422252 -0.00689459 385.9934942 -0.00922384 387.63270855 -0.01888329 C389.85371135 -0.03097183 392.0732636 -0.0186515 394.29418945 0 C395.52990944 0.00064941 396.76562943 0.00129882 398.03879547 0.00196791 C401.14709473 0.50336456 401.14709473 0.50336456 403.5441156 2.26349348 C405.32015797 4.74518889 405.64723368 5.83537655 405.64766598 8.84466648 C405.65748027 9.71117929 405.66729456 10.57769209 405.67740625 11.47046286 C405.66780124 12.41782936 405.65819624 13.36519587 405.64830017 14.34127045 C405.65383457 15.35120888 405.65936896 16.36114732 405.66507107 17.40168995 C405.67871679 20.79593698 405.66368665 24.1894537 405.64880371 27.58368683 C405.65258542 30.01287906 405.65808424 32.44206914 405.66517639 34.87125397 C405.67771282 40.79006085 405.67154683 46.70867328 405.65650081 52.62745804 C405.63965184 59.51734819 405.64284951 66.40718507 405.64659489 73.29708945 C405.65247489 85.5881403 405.63829585 97.87908874 405.61364746 110.17011261 C405.58972102 122.10244332 405.58264503 134.03463722 405.59313965 145.96698761 C405.60454273 158.95555993 405.6064869 171.94406895 405.59204155 184.93264049 C405.59051568 186.3169374 405.58899533 187.70123431 405.58748055 189.08553123 C405.58672273 189.76666438 405.58596492 190.44779753 405.58518414 191.14957108 C405.58043699 195.95473777 405.58229575 200.75987623 405.58654594 205.5650425 C405.59198005 212.02877483 405.58125556 218.49235931 405.55959129 224.9560585 C405.5540098 227.33331727 405.55357052 229.71059427 405.55854416 232.08785439 C405.56446546 235.32293067 405.55205236 238.55741915 405.53477478 241.79244232 C405.54378985 243.21683816 405.54378985 243.21683816 405.55298704 244.67000967 C405.54032713 245.96586726 405.54032713 245.96586726 405.52741146 247.28790379 C405.52638233 248.03492371 405.5253532 248.78194363 405.52429289 249.55160052 C405.03628721 252.076724 404.15399112 252.93638811 402.14709473 254.50336456 C398.72070295 255.64549515 396.09767448 255.63110892 392.48250008 255.63479233 C391.79843356 255.63684496 391.11436704 255.6388976 390.40957123 255.64101243 C388.10055447 255.64669983 385.79159703 255.64522305 383.48257446 255.64380646 C381.81712871 255.64638909 380.15168358 255.64940196 378.48623931 255.65280986 C373.89643151 255.66089495 369.30663933 255.66267027 364.71682525 255.66340733 C359.77194659 255.66525523 354.8270761 255.67280118 349.88220215 255.67954254 C339.06420838 255.69313655 328.2462183 255.69915209 317.42821741 255.7035532 C310.67735242 255.70631351 303.92648887 255.71055045 297.17562485 255.71505737 C278.49527895 255.72725086 259.81493421 255.73755039 241.13458443 255.74093246 C239.93853265 255.74115203 238.74248088 255.7413716 237.51018512 255.74159782 C236.31122772 255.74181609 235.11227033 255.74203437 233.8769809 255.74225926 C231.44732483 255.74270273 229.01766876 255.7431493 226.5880127 255.74359894 C224.78021223 255.74393108 224.78021223 255.74393108 222.93589054 255.74426994 C203.39759893 255.74821983 183.85934457 255.76567933 164.32106735 255.78895846 C144.27565677 255.81264967 124.2302649 255.82513328 104.18484008 255.82630038 C92.92427344 255.82721834 81.66375535 255.83300101 70.40320206 255.85112 C60.81660563 255.86649083 51.23007276 255.87165929 41.64346637 255.86338189 C36.74973427 255.85946482 31.85613027 255.86045638 26.96241379 255.87443924 C22.48540679 255.88711482 18.00862498 255.88603684 13.53161858 255.87384853 C11.90915145 255.87188048 10.28666871 255.87502066 8.66422357 255.88369289 C6.46366362 255.89471363 4.26390854 255.88734914 2.06337166 255.87530136 C0.83964037 255.87589845 -0.38409092 255.87649554 -1.64490497 255.87711072 C-5.4503689 255.43375742 -8.12464898 254.23162085 -10.85290527 251.50336456 C-10.95988531 248.33960801 -11.00068692 245.19741212 -11.00007629 242.03295135 C-11.00375298 241.02628176 -11.00742967 240.01961217 -11.01121777 238.98243743 C-11.02230333 235.58144913 -11.02610666 232.18049132 -11.02990723 228.77948761 C-11.03616816 226.35236259 -11.04281462 223.92523853 -11.04981995 221.49811554 C-11.06908428 214.19404075 -11.07965356 206.88996845 -11.08854774 199.58587596 C-11.09292729 196.14901162 -11.09829498 192.71214883 -11.10353661 189.27528572 C-11.12055147 177.85488676 -11.13504639 166.43448878 -11.14228535 155.01407909 C-11.14419535 152.04867489 -11.14611566 149.08327069 -11.14807129 146.11786652 C-11.14855503 145.38079941 -11.14903877 144.64373231 -11.14953717 143.88432983 C-11.15784022 131.94014012 -11.18318058 119.99605047 -11.21565197 108.05190446 C-11.24869471 95.79799699 -11.2667316 83.54414041 -11.26992959 71.29018813 C-11.27209734 64.40643317 -11.2808844 57.5228241 -11.30639076 50.63911247 C-11.33032136 44.16557657 -11.33394094 37.6922323 -11.32362938 31.21865845 C-11.32313173 28.83858175 -11.32951914 26.45849249 -11.34318542 24.07845497 C-11.36076165 20.83689285 -11.35386829 17.59628982 -11.34065247 14.3547287 C-11.35162171 13.40599796 -11.36259096 12.45726721 -11.37389261 11.47978705 C-11.36531171 10.61204085 -11.35673082 9.74429465 -11.3478899 8.85025311 C-11.34886671 8.10198669 -11.34984352 7.35372027 -11.35084993 6.58277911 C-9.89756664 0.51387487 -5.52459374 0.00290335 0 0 Z M2.14709473 13.50336456 C2.14709473 89.07336456 2.14709473 164.64336456 2.14709473 242.50336456 C130.84709473 242.50336456 259.54709473 242.50336456 392.14709473 242.50336456 C392.14709473 166.93336456 392.14709473 91.36336456 392.14709473 13.50336456 C263.44709473 13.50336456 134.74709473 13.50336456 2.14709473 13.50336456 Z " fill="#2C8ABE" transform="translate(58.8529052734375,93.49663543701172)"/>
<path d="M0 0 C0.85916016 -0.020625 1.71832031 -0.04125 2.60351562 -0.0625 C3.43431641 -0.06765625 4.26511719 -0.0728125 5.12109375 -0.078125 C5.87704834 -0.0874707 6.63300293 -0.09681641 7.41186523 -0.10644531 C10.23782961 0.36192885 11.48845313 1.28182598 13.5625 3.25 C14.06370544 5.60266113 14.06370544 5.60266113 14.06420898 8.40820312 C14.07358994 9.45939331 14.08297089 10.5105835 14.09263611 11.59362793 C14.08140213 12.72804321 14.07016815 13.8624585 14.05859375 15.03125 C14.06004898 16.19628052 14.06150421 17.36131104 14.06300354 18.56164551 C14.06134258 21.02631123 14.04975944 23.49098711 14.02905273 25.95556641 C14.00011372 29.7351472 14.00843754 33.51332503 14.02148438 37.29296875 C14.01524683 39.68490267 14.00685577 42.07683215 13.99609375 44.46875 C13.99902939 45.60316528 14.00196503 46.73758057 14.00498962 47.90637207 C13.99230545 48.95756226 13.97962128 50.00875244 13.96655273 51.09179688 C13.96114975 52.01762573 13.95574677 52.94345459 13.95018005 53.89733887 C13.48803226 56.70191221 12.83553896 57.58730926 10.5625 59.25 C7.59375 59.83984375 7.59375 59.83984375 4.0625 60.1875 C-9.5071734 61.9186106 -20.97265542 67.15563806 -29.8359375 77.8671875 C-38.21029756 90.32660125 -40.58502335 104.1442364 -37.75390625 118.78515625 C-33.6705 131.91644192 -25.1097454 141.27006404 -13.5546875 148.4140625 C-7.56849929 151.48931997 -1.1531329 152.3026264 5.44287109 153.21166992 C11.3661348 154.0536348 11.3661348 154.0536348 13.5625 156.25 C13.81646729 158.52709961 13.81646729 158.52709961 13.82128906 161.40234375 C13.82759338 162.47685791 13.83389771 163.55137207 13.84039307 164.65844727 C13.8363446 165.82303467 13.83229614 166.98762207 13.828125 168.1875 C13.83003845 169.37851318 13.8319519 170.56952637 13.83392334 171.79663086 C13.8352863 174.31852428 13.83158216 176.84042469 13.82324219 179.36230469 C13.81254453 183.23388349 13.82313406 187.10499822 13.8359375 190.9765625 C13.83461593 193.42187603 13.83205358 195.86718927 13.828125 198.3125 C13.83217346 199.4770874 13.83622192 200.6416748 13.84039307 201.84155273 C13.83093658 203.45332397 13.83093658 203.45332397 13.82128906 205.09765625 C13.81969788 206.04648682 13.81810669 206.99531738 13.81646729 207.97290039 C13.5625 210.25 13.5625 210.25 11.5625 212.25 C7.812254 212.73230766 4.02772433 212.62039583 0.25 212.625 C-0.79607422 212.64949219 -1.84214844 212.67398438 -2.91992188 212.69921875 C-10.61397447 212.72860406 -10.61397447 212.72860406 -14.58984375 210.41796875 C-19.28015268 204.91454072 -18.96336319 197.14993829 -19.4375 190.25 C-20.83199109 189.766941 -22.22816707 189.28874483 -23.625 188.8125 C-24.40230469 188.54566406 -25.17960937 188.27882813 -25.98046875 188.00390625 C-26.79128906 187.75511719 -27.60210937 187.50632812 -28.4375 187.25 C-29.24445313 186.97285156 -30.05140625 186.69570313 -30.8828125 186.41015625 C-34.64571779 186.17425546 -36.21628898 187.8313643 -39.125 190.125 C-45.64443366 195.18880909 -45.64443366 195.18880909 -50.28515625 195.546875 C-57.2458884 194.67138135 -61.66137392 189.02836183 -66.26049805 184.1953125 C-67.87600275 182.49894706 -69.51930213 180.83402382 -71.16992188 179.171875 C-72.21788731 178.10065925 -73.26417211 177.0277962 -74.30859375 175.953125 C-74.79500839 175.45709778 -75.28142303 174.96107056 -75.78257751 174.45001221 C-79.5944573 170.42194514 -81.49361351 167.39939128 -81.34765625 161.80859375 C-80.28228131 157.6431149 -78.69474837 155.52939603 -75.875 152.3125 C-75.04871094 151.35472656 -74.22242188 150.39695312 -73.37109375 149.41015625 C-72.73300781 148.69730469 -72.09492188 147.98445312 -71.4375 147.25 C-72.32794729 142.33501141 -73.48848349 138.32368538 -76.4375 134.25 C-79.87949269 132.71551784 -83.47231479 132.39532785 -87.20483398 132.18432617 C-87.93130127 132.1351001 -88.65776855 132.08587402 -89.40625 132.03515625 C-90.06044922 132.02363525 -90.71464844 132.01211426 -91.38867188 132.00024414 C-94.79403638 130.75326069 -96.73587552 128.33533682 -98.4375 125.25 C-99.10380298 122.39591072 -99.09403453 119.66671194 -99.03125 116.74609375 C-99.03129028 115.94518814 -99.03133057 115.14428253 -99.03137207 114.31910706 C-99.02603365 112.6339631 -99.00852276 110.94881835 -98.97949219 109.26391602 C-98.93756427 106.69144305 -98.93843413 104.12158599 -98.9453125 101.54882812 C-98.93482096 99.9062319 -98.92188304 98.26364909 -98.90625 96.62109375 C-98.90604858 95.85639267 -98.90584717 95.09169159 -98.90563965 94.30381775 C-98.80602021 89.78970162 -98.20437441 86.85421798 -95.4375 83.25 C-91.99202325 80.73701466 -87.81760786 80.60125062 -83.6875 80.125 C-82.99011719 80.03863281 -82.29273438 79.95226562 -81.57421875 79.86328125 C-79.86277668 79.65228154 -78.15023371 79.45024499 -76.4375 79.25 C-73.96709656 75.00720185 -72.12978835 71.13765984 -71.4375 66.25 C-73.25208728 62.56452559 -75.39229487 59.99406898 -78.1953125 57.00390625 C-80.73184004 53.88848479 -81.3429607 52.23640729 -81.4375 48.25 C-80.13139757 43.63900405 -77.41033053 40.81339729 -74.0625 37.546875 C-73.53736816 37.02361633 -73.01223633 36.50035767 -72.47119141 35.96124268 C-71.36515529 34.86190359 -70.25553968 33.7661554 -69.14257812 32.67382812 C-67.43612943 30.99865455 -65.74069551 29.31293238 -64.046875 27.625 C-62.96937249 26.55666347 -61.89126811 25.48893356 -60.8125 24.421875 C-60.30412598 23.91775085 -59.79575195 23.41362671 -59.27197266 22.89422607 C-55.54141827 19.23930389 -53.25792814 17.6875 -47.8671875 17.6875 C-43.48822722 18.70127859 -40.30952026 21.64007689 -36.85546875 24.40234375 C-34.4998765 26.40961862 -34.4998765 26.40961862 -31.4375 27.25 C-29.21358582 26.49430865 -29.21358582 26.49430865 -26.9375 25.3125 C-24.06646417 23.90090738 -22.68775967 23.25 -19.4375 23.25 C-19.30794922 21.49623047 -19.30794922 21.49623047 -19.17578125 19.70703125 C-19.03502814 18.15874699 -18.89303555 16.61057507 -18.75 15.0625 C-18.66975586 13.90911133 -18.66975586 13.90911133 -18.58789062 12.73242188 C-18.17437116 8.54328993 -17.75209244 6.64259905 -15.04296875 3.26171875 C-10.28128141 -0.41484643 -5.75199232 0.0343659 0 0 Z " fill="#2C8BBE" transform="translate(248.4375,114.75)"/>
<path d="M0 0 C4.75982924 2.62772498 7.04616381 6.26349144 8.75 11.375 C8.87781786 14.04894964 8.79391871 16.69595857 8.75 19.375 C9.2346875 19.08625 9.719375 18.7975 10.21875 18.5 C15.13311247 15.77819925 19.13085664 14.29690854 24.75 15.375 C30.04291242 17.18115807 33.68295452 19.59040905 36.75 24.375 C38.4519824 29.48094721 38.78016629 35.40726707 36.99609375 40.546875 C35.16456485 43.90826921 33.08883827 46.48299165 29.75 48.375 C29.09 48.375 28.43 48.375 27.75 48.375 C27.76571045 49.2220752 27.7814209 50.06915039 27.79760742 50.94189453 C27.8489557 54.10642204 27.88645672 57.27073608 27.91479492 60.43554688 C27.92981428 61.80117816 27.95023608 63.16676176 27.97631836 64.53222656 C28.01300137 66.50303905 28.02818551 68.47421408 28.04296875 70.4453125 C28.0586792 71.62883301 28.07438965 72.81235352 28.09057617 74.03173828 C27.70365702 77.82992528 26.81127275 80.17077142 24.75 83.375 C21.45757317 85.56421997 18.68329548 85.61841721 14.78808594 85.60205078 C12.98667145 85.60182419 12.98667145 85.60182419 11.14886475 85.60159302 C9.85708313 85.59127045 8.56530151 85.58094788 7.234375 85.5703125 C5.89487927 85.56658034 4.55538079 85.56373432 3.21588135 85.56173706 C-0.30228265 85.55411657 -3.8202804 85.53448187 -7.33837891 85.5123291 C-10.93129223 85.49183643 -14.52423253 85.48272804 -18.1171875 85.47265625 C-25.16152617 85.45123434 -32.20575221 85.41711765 -39.25 85.375 C-39.25 86.695 -39.25 88.015 -39.25 89.375 C-17.14 89.375 4.97 89.375 27.75 89.375 C28.41 87.725 29.07 86.075 29.75 84.375 C34.06353911 80.29462517 37.67470343 78.57912753 43.5625 78 C48.24154605 78.14152124 51.97168566 79.63551266 55.75 82.375 C60.38458049 88.19793447 61.42121116 93.12840544 60.75 100.375 C59.05221365 105.27971612 56.30117658 108.83281559 51.75 111.375 C45.7204952 113.47438204 40.73559824 113.95702277 34.75 111.375 C30.41081042 108.57863338 29.76272566 107.40681416 27.75 102.375 C5.64 102.375 -16.47 102.375 -39.25 102.375 C-39.25 103.695 -39.25 105.015 -39.25 106.375 C-38.49689041 106.36611755 -37.74378082 106.35723511 -36.96784973 106.3480835 C-29.86156388 106.26784967 -22.7554356 106.20699124 -15.64882374 106.16775131 C-11.99542185 106.14689907 -8.34239503 106.11862592 -4.68920898 106.07324219 C-1.16193151 106.02969814 2.3649858 106.00584511 5.89251137 105.99549103 C7.88949599 105.98453126 9.88633624 105.95331852 11.88310242 105.92181396 C13.71443474 105.92136078 13.71443474 105.92136078 15.58276367 105.92089844 C17.19159676 105.90757477 17.19159676 105.90757477 18.83293152 105.89398193 C22.46370886 106.49268899 24.12817861 107.84695434 26.75 110.375 C28.17679303 113.65188236 27.84535299 117.14693469 27.8203125 120.6796875 C27.83578125 122.51466797 27.83578125 122.51466797 27.8515625 124.38671875 C27.86713989 126.95439172 27.85946818 129.52231484 27.828125 132.08984375 C27.71029203 138.66099225 27.71029203 138.66099225 30.29589844 144.45410156 C32.11714592 146.02737372 32.11714592 146.02737372 34.05419922 147.16845703 C36.15462528 148.66288628 36.81364074 149.99570769 37.75 152.375 C38.41360439 157.91532503 38.50573895 162.80754144 36.0625 167.875 C29.30664653 175.17862538 29.30664653 175.17862538 24.10546875 175.578125 C22.53732422 175.60132813 22.53732422 175.60132813 20.9375 175.625 C19.38095703 175.66367187 19.38095703 175.66367187 17.79296875 175.703125 C14.38848364 175.33601749 12.52607715 174.3249248 9.75 172.375 C9.63785156 173.44427734 9.63785156 173.44427734 9.5234375 174.53515625 C8.72497324 180.3514204 7.79393563 184.7559424 3.57421875 188.99609375 C-0.57297585 192.13091108 -4.66885347 193.50559372 -9.875 193.2421875 C-16.3085448 192.18907749 -20.17742235 190.23372779 -24.0625 184.875 C-26.23839528 178.46183496 -26.51139847 171.94284688 -23.5 165.8125 C-21.50907029 163.65565948 -19.7641898 161.88351388 -17.25 160.375 C-16.59 160.375 -15.93 160.375 -15.25 160.375 C-15.25 152.455 -15.25 144.535 -15.25 136.375 C-19.106875 136.478125 -22.96375 136.58125 -26.9375 136.6875 C-28.7486731 136.72484253 -28.7486731 136.72484253 -30.59643555 136.76293945 C-31.558479 136.79605225 -32.52052246 136.82916504 -33.51171875 136.86328125 C-34.49100342 136.88946533 -35.47028809 136.91564941 -36.47924805 136.94262695 C-39.66533599 137.43981276 -41.54130772 138.67855064 -44.25 140.375 C-57.280681 140.63348492 -68.88859661 135.50744888 -78.28125 126.57421875 C-86.0885689 117.85294783 -89.8371807 107.6109461 -89.6875 96 C-89.67992676 95.17000488 -89.67235352 94.34000977 -89.66455078 93.48486328 C-89.35749511 82.00725684 -85.0842612 72.56760354 -77.21484375 64.21484375 C-67.67468004 55.21310198 -57.16673534 51.31392036 -44.1953125 51.01171875 C-42.25 51.375 -42.25 51.375 -40.97485352 52.86572266 C-38.57030923 54.96974145 -36.86959935 54.80305293 -33.70703125 54.88671875 C-32.73999268 54.91983154 -31.7729541 54.95294434 -30.77661133 54.98706055 C-29.55095459 55.01195557 -28.32529785 55.03685059 -27.0625 55.0625 C-21.2153125 55.2171875 -21.2153125 55.2171875 -15.25 55.375 C-15.25 47.455 -15.25 39.535 -15.25 31.375 C-16.9 30.715 -18.55 30.055 -20.25 29.375 C-25.26150788 23.94586647 -25.60502988 19.47997451 -25.52734375 12.32421875 C-25.15073691 8.3194559 -24.00976479 6.28001557 -21.25 3.375 C-14.54257086 -1.68979344 -7.85068452 -3.53647658 0 0 Z M-2.25 31.375 C-2.98595855 34.70547691 -2.98595855 34.70547691 -2.8515625 38.5625 C-2.85956879 39.26141357 -2.86757507 39.96032715 -2.87582397 40.68041992 C-2.89890646 42.91253651 -2.88942589 45.14283402 -2.875 47.375 C-2.87115368 49.60682508 -2.87457641 51.83784571 -2.89559937 54.06958008 C-2.91325165 56.09448691 -2.90571819 58.11956636 -2.89697266 60.14453125 C-3.25 63.375 -3.25 63.375 -4.58349609 65.26171875 C-8.24457346 67.70744286 -11.83247707 67.56519974 -16.10546875 67.69140625 C-16.76710526 67.71218735 -17.42874176 67.73296844 -18.11042786 67.75437927 C-20.21934852 67.81964727 -22.32839135 67.87865344 -24.4375 67.9375 C-25.86915315 67.98070689 -27.30079404 68.02432188 -28.73242188 68.06835938 C-32.23815154 68.17530506 -35.74401786 68.27663641 -39.25 68.375 C-39.25 69.695 -39.25 71.015 -39.25 72.375 C-21.43 72.375 -3.61 72.375 14.75 72.375 C14.75 64.785 14.75 57.195 14.75 49.375 C12.11 47.065 9.47 44.755 6.75 42.375 C4.20281472 38.16660693 4.14972604 33.20326976 3.75 28.375 C1.21258574 28.375 -0.35450503 29.88223694 -2.25 31.375 Z M-39.25 119.375 C-39.25 120.695 -39.25 122.015 -39.25 123.375 C-38.30157227 123.3843457 -37.35314453 123.39369141 -36.37597656 123.40332031 C-32.84935242 123.44739231 -29.32393797 123.50902783 -25.79785156 123.58251953 C-24.27322569 123.61070535 -22.74845434 123.63193189 -21.22363281 123.64599609 C-19.02854064 123.66746049 -16.83519289 123.71412169 -14.640625 123.765625 C-13.32094727 123.78657227 -12.00126953 123.80751953 -10.64160156 123.82910156 C-7.25 124.375 -7.25 124.375 -4.81738281 125.97143555 C-2.6810467 129.24748369 -2.76728764 131.54615685 -2.78125 135.44140625 C-2.77420044 136.11670883 -2.76715088 136.79201141 -2.7598877 137.48777771 C-2.73788772 139.63807321 -2.74085254 141.78712503 -2.75 143.9375 C-2.76203146 146.77280849 -2.74838839 149.60626111 -2.71875 152.44140625 C-2.72326172 153.69896729 -2.72777344 154.95652832 -2.73242188 156.25219727 C-2.55051032 159.44678187 -2.55051032 159.44678187 -0.34570312 161.30834961 C1.65514645 162.5261992 1.65514645 162.5261992 3.75 162.375 C3.76417969 161.818125 3.77835938 161.26125 3.79296875 160.6875 C4.17185289 154.62535381 5.6419002 149.96030332 9.75 145.375 C12.225 143.89 12.225 143.89 14.75 142.375 C14.75 134.785 14.75 127.195 14.75 119.375 C-3.07 119.375 -20.89 119.375 -39.25 119.375 Z " fill="#2C8BBE" transform="translate(301.25,125.625)"/>
</svg>
